<?xml version="1.0" standalone="no"?>
<!DOCTYPE svg PUBLIC "-//W3C//DTD SVG 20010904//EN"
 "http://www.w3.org/TR/2001/REC-SVG-20010904/DTD/svg10.dtd">
<svg version="1.0" xmlns="http://www.w3.org/2000/svg"
 width="200.000000pt" height="200.000000pt" viewBox="0 0 200.000000 200.000000"
 preserveAspectRatio="xMidYMid meet">

<g transform="translate(0.000000,200.000000) scale(0.100000,-0.100000)"
fill="#000000" stroke="none">
<path d="M620 1571 c-168 -52 -221 -195 -109 -296 l41 -36 -27 -41 c-41 -61
-22 -69 72 -31 48 19 103 33 143 36 159 11 271 117 240 227 -14 49 -75 107
-137 130 -56 21 -172 26 -223 11z m-10 -156 c20 -25 8 -50 -25 -50 -21 0 -31
5 -33 18 -4 21 14 47 33 47 7 0 18 -7 25 -15z m128 6 c8 -4 12 -19 10 -32 -4
-33 -53 -40 -63 -9 -11 36 22 61 53 41z m137 -7 c18 -19 16 -33 -8 -48 -18
-11 -47 0 -54 21 -4 12 23 43 37 43 5 0 16 -7 25 -16z"/>
<path d="M1045 1334 c-32 -111 -146 -188 -294 -200 -36 -3 -78 -10 -93 -16
-27 -10 -28 -14 -28 -74 l0 -64 46 0 c40 0 51 -5 85 -38 86 -86 57 -187 -72
-253 -54 -27 -59 -32 -59 -63 0 -22 6 -36 16 -40 15 -6 614 -9 614 -3 0 1 -4
18 -10 37 -13 46 4 106 40 139 15 14 64 39 109 56 45 16 87 35 92 41 5 7 8
117 7 270 l-3 259 -217 3 -216 2 -17 -56z"/>
<path d="M153 1310 c-90 -54 -104 -182 -27 -250 108 -95 264 -27 264 115 0 93
-62 155 -155 155 -32 0 -62 -7 -82 -20z"/>
<path d="M1682 1310 c-47 -29 -72 -76 -72 -135 0 -144 165 -212 266 -111 74
74 60 192 -29 246 -43 27 -121 26 -165 0z"/>
<path d="M145 965 c-77 -28 -88 -69 -89 -335 l-1 -205 151 -3 c179 -3 159 -23
170 176 3 72 8 132 11 132 2 0 21 -11 41 -25 53 -36 84 -32 197 29 85 46 101
59 109 85 7 26 5 37 -11 59 -30 41 -71 40 -149 -2 -35 -20 -71 -36 -78 -36 -7
0 -48 25 -90 56 -110 80 -179 98 -261 69z"/>
<path d="M1715 965 c-28 -9 -64 -39 -118 -97 -73 -77 -83 -84 -170 -118 -73
-28 -95 -41 -105 -64 -18 -37 -1 -80 39 -96 26 -11 40 -8 131 26 55 21 107 44
114 51 10 10 14 -2 18 -65 4 -42 9 -101 12 -130 l6 -53 151 3 152 3 3 150 c3
166 -9 299 -32 343 -28 54 -120 75 -201 47z"/>
</g>
</svg>
