<?xml version="1.0" standalone="no"?>
<!DOCTYPE svg PUBLIC "-//W3C//DTD SVG 20010904//EN"
 "http://www.w3.org/TR/2001/REC-SVG-20010904/DTD/svg10.dtd">
<svg version="1.0" xmlns="http://www.w3.org/2000/svg"
 width="512.000000pt" height="512.000000pt" viewBox="0 0 512.000000 512.000000"
 preserveAspectRatio="xMidYMid meet">

<g transform="translate(0.000000,512.000000) scale(0.100000,-0.100000)"
fill="#000000" stroke="none">
<path d="M473 4749 c-18 -5 -47 -24 -66 -42 -34 -32 -370 -610 -393 -676 -29
-81 -7 -170 57 -226 19 -17 80 -56 136 -88 140 -79 165 -105 192 -197 54 -179
73 -195 632 -517 569 -327 567 -326 635 -321 90 8 162 67 200 166 1 1 25 -9
55 -23 34 -15 72 -25 102 -25 91 0 185 68 207 151 9 33 14 37 51 43 86 14 164
76 189 152 15 45 7 136 -14 169 -14 21 -13 24 6 41 30 27 68 113 68 155 0 58
-28 125 -68 161 -20 18 -185 118 -365 222 -180 104 -326 191 -323 193 2 3 62
13 133 23 144 20 166 27 212 65 80 68 100 192 45 282 -22 36 -42 55 -84 75
-50 25 -88 31 -420 68 -431 47 -474 48 -598 15 -129 -34 -146 -33 -249 22
-185 98 -219 113 -263 118 -25 2 -59 0 -77 -6z m205 -211 c190 -108 242 -117
412 -73 52 14 120 25 150 25 47 0 590 -58 724 -78 36 -5 54 -14 68 -33 23 -31
16 -73 -16 -94 -11 -7 -131 -27 -266 -45 -252 -32 -285 -41 -295 -83 -15 -56
-5 -64 427 -312 500 -288 498 -287 498 -325 0 -37 -31 -70 -65 -70 -15 0 -185
92 -408 221 -409 237 -430 247 -468 200 -25 -31 -24 -64 4 -95 12 -13 184
-118 382 -231 391 -225 486 -282 497 -299 25 -37 -11 -100 -58 -99 -19 0 -174
84 -464 252 -239 138 -442 251 -451 251 -9 0 -28 -9 -43 -21 -29 -23 -36 -72
-13 -102 6 -9 181 -114 387 -233 206 -118 383 -223 393 -231 43 -40 2 -120
-57 -110 -17 3 -198 102 -403 220 -204 119 -381 218 -392 222 -11 3 -33 -1
-50 -9 -39 -21 -51 -68 -25 -103 11 -13 138 -93 284 -177 286 -165 308 -183
280 -233 -23 -40 -44 -50 -80 -36 -17 6 -247 136 -510 288 -334 193 -490 288
-513 314 -23 25 -44 67 -62 122 -49 147 -79 180 -264 288 -63 36 -119 73 -124
82 -6 9 -7 27 -4 40 8 32 344 621 360 631 20 12 56 -2 165 -64z"/>
<path d="M4497 4740 c-15 -4 -63 -29 -106 -55 -93 -54 -112 -84 -87 -134 27
-52 58 -51 157 2 101 55 130 58 157 20 41 -60 342 -583 347 -605 8 -30 -13
-50 -134 -122 -174 -104 -217 -149 -247 -256 -38 -134 -58 -183 -112 -261 -91
-132 -404 -553 -421 -566 -43 -33 -105 2 -103 58 1 19 42 131 92 249 50 118
92 228 92 244 1 31 -39 76 -68 76 -21 0 -36 -8 -454 -250 -470 -272 -472 -273
-504 -259 -14 7 -30 25 -37 41 -10 25 -9 33 7 54 10 14 190 124 399 245 209
121 386 227 393 236 31 42 -6 113 -60 113 -21 0 -158 -74 -463 -250 -238 -137
-441 -250 -452 -250 -34 0 -63 29 -63 64 0 18 6 39 13 48 6 9 201 125 432 258
231 133 428 249 438 259 10 10 19 33 19 51 1 39 -30 70 -71 70 -16 0 -172 -84
-408 -220 -257 -148 -391 -220 -411 -220 -16 0 -36 8 -45 18 -22 24 -22 75 1
94 9 9 184 111 387 228 204 117 378 222 388 232 39 45 5 118 -54 118 -21 0
-114 -49 -298 -155 -160 -92 -279 -155 -295 -155 -55 0 -85 66 -48 108 14 17
852 506 982 573 34 17 63 23 119 24 64 1 76 4 92 24 27 33 24 73 -7 102 -23
21 -34 24 -102 23 -58 0 -91 -6 -137 -25 -80 -34 -1012 -573 -1049 -607 -80
-75 -88 -221 -15 -299 l21 -21 -22 -12 c-41 -22 -101 -83 -116 -119 -19 -44
-19 -129 -1 -173 8 -18 26 -47 41 -65 26 -31 27 -33 10 -64 -23 -46 -21 -136
5 -186 36 -71 118 -123 195 -123 20 0 26 -5 26 -20 0 -33 37 -97 72 -124 46
-35 85 -47 144 -47 63 0 55 -5 448 222 170 99 311 178 313 176 2 -2 -17 -52
-42 -112 -25 -59 -50 -127 -56 -151 -35 -140 99 -281 247 -260 93 12 105 26
441 488 169 231 192 273 227 408 30 115 45 130 221 235 65 39 128 84 141 100
36 47 51 116 36 169 -11 41 -327 595 -378 663 -42 56 -82 77 -149 80 -33 1
-72 -2 -88 -7z"/>
<path d="M2450 2857 c-40 -18 -98 -66 -105 -86 -5 -17 -14 -19 -83 -14 -74 4
-79 3 -132 -29 -40 -25 -60 -45 -80 -83 l-25 -49 -5 -405 -5 -405 -67 89
c-111 150 -160 185 -255 185 -126 -1 -239 -124 -218 -239 11 -60 274 -669 337
-779 16 -29 65 -90 109 -136 43 -46 83 -95 89 -110 5 -15 10 -72 10 -126 0
-135 14 -193 57 -241 61 -67 85 -70 520 -67 l378 3 45 25 c34 19 52 38 73 79
25 50 27 64 27 170 0 64 4 132 10 151 5 19 39 69 75 110 36 41 75 95 86 120
30 67 41 175 37 364 l-3 168 -29 25 c-22 18 -35 23 -55 18 -58 -15 -59 -18
-63 -253 -4 -251 -6 -258 -93 -352 -31 -34 -69 -87 -83 -119 -23 -50 -27 -72
-32 -199 -4 -112 -8 -145 -20 -152 -9 -6 -166 -10 -376 -10 -284 0 -364 3
-378 13 -16 12 -20 35 -26 158 -9 182 -19 206 -135 328 -76 81 -94 107 -142
209 -105 223 -264 597 -265 625 -2 52 53 83 102 57 10 -6 83 -94 160 -198 78
-103 151 -195 162 -204 27 -24 59 -23 92 3 l26 20 0 518 c0 509 0 519 21 545
25 32 70 35 99 6 19 -19 20 -33 20 -475 l0 -456 25 -24 c31 -32 69 -32 100 0
l25 24 0 500 c0 361 3 507 12 526 13 28 45 40 81 31 46 -11 47 -27 47 -557 l0
-500 25 -24 c31 -32 69 -32 100 0 l25 24 0 456 c0 442 1 456 20 475 20 20 65
26 86 12 32 -21 34 -53 34 -500 l0 -449 23 -21 c29 -27 67 -28 98 -3 l24 19 5
337 c5 319 6 337 24 351 27 19 59 18 87 -5 24 -19 24 -21 27 -253 3 -221 4
-234 24 -255 35 -38 89 -29 113 18 18 34 21 409 4 488 -22 103 -124 179 -228
169 l-48 -5 -7 60 c-14 139 -107 216 -246 204 -62 -5 -70 -4 -75 13 -7 22 -66
70 -108 88 -35 15 -123 15 -157 -1z"/>
</g>
</svg>
