<?xml version="1.0" encoding="UTF-8"?>
<svg id="Capa_2" xmlns="http://www.w3.org/2000/svg" viewBox="0 0 1920 1080">
  <g id="Capa_1-2" data-name="Capa_1">
    <g>
      <path d="M1345.62,485.51c-2.69,2.59-4.03,5.62-4.03,9.08v34.86h126.33c3.17,0,6-1.2,8.5-3.6,2.21-2.21,3.31-5.19,3.31-8.93v-35.44h-125.03c-3.55,0-6.58,1.35-9.07,4.03Z"/>
      <path d="M831.96,485.51c-2.69,2.59-4.03,5.62-4.03,9.08v34.86h126.33c3.17,0,6-1.2,8.5-3.6,2.21-2.21,3.31-5.19,3.31-8.93v-35.44h-125.03c-3.55,0-6.58,1.35-9.07,4.03Z"/>
      <path d="M0,0v1080h1920V0H0ZM599.11,765.09c7.73-20.26,15.47-40.55,23.41-61.34-124.43-120.18-214.51-207.1-218.25-210.33-.39-.33-3.27-2.78-5.48-6.78-.61-1.11-1.11-2.27-1.48-3.49-.96-3.19-.76-5.82-.7-6.85.31-5.38.1-14.84-1.52-32.5-.75-14.89-1.5-29.78-2.26-44.66-26.73-.97-53.45-1.95-80.18-2.92,40.84-38.22,70.36-65.81,74.15-69.61.44-.44,1.84-2.02,4.19-2.77,3.12-.99,6.07.05,7.5.61,37.49,14.65,75.16,28.85,112.57,43.71,7.12,2.83,11.59,2.29,17.34-3.05,53.41-49.58,107.18-98.77,160.69-148.24,4.78-4.42,9.67-6.33,16.14-6.61,55.14-2.45,110.27-5.23,165.4-7.89,35.01-1.69,70.02-3.36,105.03-5.03,1.32-.06,2.65,0,6.06,0-9.71,9.57-18.2,17.94-27.85,27.46,9.55.82,17.77,1.53,27.32,2.36-3.12,2.91-5.2,4.97-7.41,6.9-93.83,81.83-187.62,163.69-281.62,245.32-5.67,4.92-7.44,9.77-6.81,17,1.05,12.14.31,24.56,3.09,36.42,2.91,12.44,10.27,91.31,28.39,349.89-39.25-39.2-78.49-78.39-117.74-117.59ZM1014.03,516.92c0,16.9-5.81,31.21-17.43,42.92-6.05,6.15-12.82,10.71-20.31,13.68l35,70h-47.82l-35.15-65.97h-100.4v65.97h-47.97v-148.94c0-16.42,6-30.73,18.01-42.92,11.81-12.1,26.17-18.15,43.07-18.15h173v83.4ZM1264.81,643.53h-221.97v-148.22c0-17,6.05-31.54,18.15-43.64s26.55-18.15,43.36-18.15h151.53v47.97h-151.53c-3.46,0-6.58,1.44-9.36,4.32-2.79,2.69-4.18,5.86-4.18,9.51v100.4h126.04v-57.19h47.97v105.01ZM1527.69,516.92c0,16.9-5.81,31.21-17.43,42.92-6.05,6.15-12.82,10.71-20.31,13.68l35,70h-47.82l-35.15-65.97h-100.4v65.97h-47.97v-148.94c0-16.42,6-30.73,18.01-42.92,11.81-12.1,26.17-18.15,43.07-18.15h173v83.4Z"/>
    </g>
  </g>
</svg>