<?xml version="1.0" encoding="UTF-8"?>
<svg id="Capa_2" xmlns="http://www.w3.org/2000/svg" viewBox="0 0 1920 1080">
  <g id="Capa_1-2" data-name="Capa_1">
    <path d="M0,0v1080h1920V0H0ZM1430,98.96c-4.08,4.05-6.82,7.1-9.9,9.77-9.91,8.58-19.96,16.99-29.91,25.51-15.47,13.25-30.98,26.45-46.33,39.83-14.03,12.23-27.79,24.76-41.8,37-21.72,18.97-43.58,37.79-65.33,56.72-13.22,11.5-26.32,23.12-39.54,34.61-21.95,19.1-43.96,38.12-65.91,57.21-13.01,11.32-25.89,22.78-38.91,34.08-21.93,19.03-43.71,38.24-65.97,56.87-13.3,11.13-16.09,18.61-11.1,36.41.22.77.21,1.6.25,2.41.73,14.48,1.05,28.98,2.27,43.42,1.86,22.01,4.36,43.96,6.57,65.93.08.81.03,1.63.07,2.44.79,15.25,1.41,30.51,2.44,45.74,1.26,18.66,2.85,37.3,4.35,55.94,1.48,18.34,3.02,36.68,4.53,55.03,1.53,18.61,3.04,37.22,4.57,55.83,1.51,18.33,3.06,36.66,4.56,55,1.52,18.62,3,37.25,4.51,55.87,1.46,18.08,2.73,36.18,4.47,54.23,1.14,11.85,3.01,23.63,4.43,35.45.3,2.54.04,5.14.04,7.38-7.38-7.24-14.49-14.17-21.55-21.15-46.71-46.07-93.37-92.19-140.19-138.14-3.46-3.4-2.98-6.11-1.46-10.01,9.76-24.96,19.14-50.07,29.02-74.98,1.83-4.61,1.03-7.32-2.34-10.56-70.31-67.58-140.56-135.22-210.78-202.89-33.16-31.96-66.31-63.93-99.25-96.12-2.38-2.33-4.05-6.39-4.26-9.76-.95-15.13-1.3-30.31-1.76-45.47l-2.66-63.78c-38.33-3.99-76.66-7.98-114.99-11.98,1.38-1.89,2.06-3.22,3.09-4.17,34.56-32.05,69.22-64,103.65-96.19,3.81-3.56,6.77-3.82,11.44-2,55.98,21.78,112.09,43.23,168.03,65.11,5.97,2.33,9.58,1.58,14.22-2.71,78.01-72.06,156.23-143.89,234.26-215.93,4.71-4.34,9.54-6.32,15.83-6.61,74.41-3.4,148.81-7.09,223.22-10.43,20-.9,40.05-.7,60.07-1.29,17.47-.51,34.93-1.35,52.39-2.15,15.54-.71,31.09-1.51,46.62-2.43,2.85-.17,5.66-1.09,9.91-.33-12.83,12.21-25.66,24.42-39.73,37.8,13.61,1.22,25.14,2.26,38.85,3.49Z"/>
  </g>
</svg>