<?xml version="1.0" standalone="no"?>
<!DOCTYPE svg PUBLIC "-//W3C//DTD SVG 20010904//EN"
 "http://www.w3.org/TR/2001/REC-SVG-20010904/DTD/svg10.dtd">
<svg version="1.0" xmlns="http://www.w3.org/2000/svg"
 width="400px" height="400px" viewBox="0 0 1280.000000 720.000000"
 preserveAspectRatio="xMidYMid meet">
<metadata>
Created by potrace 1.16, written by Peter Selinger 2001-2019
</metadata>
<g transform="translate(0.000000,720.000000) scale(0.100000,-0.100000)"
fill="#000000" stroke="none">
<path d="M3400 7047 c-17 -9 -24 -20 -23 -35 l3 -22 -1151 0 c-1253 0 -1217 2
-1374 -57 -101 -38 -169 -78 -260 -154 -96 -80 -126 -112 -193 -205 -100 -141
-159 -293 -192 -498 -19 -118 -20 -181 -20 -2466 0 -2252 1 -2350 19 -2466 53
-336 196 -570 468 -767 68 -50 161 -91 280 -124 l98 -28 553 2 552 3 0 -30 0
-30 245 0 245 0 0 30 0 30 199 0 200 0 3 -27 3 -28 480 0 480 0 -3 28 -3 27
121 0 120 0 0 -30 0 -30 481 0 481 0 -4 30 -4 29 3255 -2 c1791 -1 3272 0
3291 1 68 7 226 54 300 90 120 58 262 176 341 285 30 39 57 74 61 77 4 3 27
46 51 96 50 99 78 184 107 318 19 86 20 155 21 2515 l1 2426 -21 90 c-37 152
-61 226 -108 319 -24 50 -48 93 -52 96 -4 3 -29 36 -56 73 -42 60 -85 102
-216 211 -46 38 -197 110 -289 138 l-75 22 -3474 3 c-3441 3 -3473 3 -3468 23
10 37 -18 45 -132 40 -163 -8 -1135 -6 -1231 2 -62 6 -92 4 -110 -5z m8477
-119 c82 -24 209 -80 223 -97 3 -3 25 -19 50 -35 69 -45 155 -123 198 -180
137 -182 188 -292 229 -495 17 -81 18 -239 18 -2511 0 -2264 -1 -2431 -17
-2510 -43 -208 -110 -351 -238 -505 -52 -64 -186 -181 -219 -193 -9 -3 -34
-18 -56 -33 -54 -38 -202 -86 -305 -98 -58 -8 -1712 -11 -5350 -11 -5718 0
-5360 -3 -5526 54 -72 24 -115 43 -124 55 -3 4 -30 22 -60 40 -232 140 -405
416 -455 723 -13 81 -15 405 -15 2470 0 1610 3 2402 11 2455 24 179 75 317
173 468 154 236 404 397 658 424 47 5 2407 8 5398 7 l5315 -1 92 -27z"/>
<path d="M1065 6919 c-71 -10 -251 -66 -269 -84 -7 -7 -39 -28 -72 -46 -79
-44 -248 -214 -294 -297 -19 -35 -45 -78 -56 -96 -55 -86 -101 -261 -115 -439
-6 -86 -9 -928 -7 -2442 3 -2159 5 -2316 21 -2398 19 -96 71 -253 92 -277 7
-8 25 -40 40 -70 69 -136 210 -280 350 -356 39 -21 72 -41 75 -45 10 -14 171
-58 251 -69 60 -8 1614 -10 5394 -8 l5310 3 88 28 c141 44 275 126 382 232 50
50 102 108 116 130 107 165 154 282 184 451 22 129 23 4815 0 4942 -28 161
-61 253 -137 383 -146 250 -393 421 -662 458 -94 13 -10597 13 -10691 0z
m10733 -275 c4 -6 25 -17 47 -24 84 -26 192 -92 252 -154 54 -55 143 -173 143
-190 0 -3 19 -46 43 -94 l42 -87 3 -2430 c3 -2737 8 -2524 -74 -2688 -24 -49
-54 -103 -65 -120 -33 -48 -128 -145 -174 -177 -53 -36 -177 -89 -240 -101
-66 -12 -10640 -12 -10715 0 -134 23 -224 72 -336 185 -74 74 -98 106 -128
171 -21 44 -45 94 -53 110 -17 37 -33 101 -41 175 -9 73 -9 4709 0 4780 9 70
26 146 38 168 5 9 28 57 51 106 35 76 55 103 133 181 73 74 106 99 168 128 43
20 82 37 87 37 5 0 22 5 38 12 15 6 42 13 58 15 17 3 32 7 34 9 3 2 2407 3
5343 2 3884 -2 5341 -6 5346 -14z"/>
<path d="M1085 4421 c-69 -17 -134 -70 -171 -141 -18 -33 -19 -74 -22 -729 -3
-786 -5 -758 73 -837 90 -89 216 -95 308 -14 25 23 54 62 68 92 l24 53 0 690
0 690 -28 57 c-34 69 -84 113 -151 133 -54 16 -57 16 -101 6z"/>
</g>
</svg>
