<?xml version="1.0" standalone="no"?>
<!DOCTYPE svg PUBLIC "-//W3C//DTD SVG 20010904//EN"
 "http://www.w3.org/TR/2001/REC-SVG-20010904/DTD/svg10.dtd">
<svg version="1.0" xmlns="http://www.w3.org/2000/svg"
 width="512.000000pt" height="512.000000pt" viewBox="0 0 512.000000 512.000000"
 preserveAspectRatio="xMidYMid meet">

<g transform="translate(0.000000,512.000000) scale(0.100000,-0.100000)"
fill="#000000" stroke="none">
<path d="M1060 5104 c-171 -36 -325 -155 -400 -308 -74 -150 -70 -8 -70 -2117
0 -1224 4 -1915 10 -1950 45 -242 411 -558 805 -696 l80 -28 1347 -3 c1169 -2
1357 0 1420 13 219 45 395 214 455 435 17 61 18 179 18 1915 0 1736 -1 1854
-18 1914 -46 167 -159 306 -308 380 -80 40 -112 48 -259 67 -44 6 -46 7 -80
77 -74 151 -237 272 -407 302 -116 21 -2497 20 -2593 -1z m3184 -805 c18 -12
44 -38 57 -57 l24 -36 3 -1830 2 -1831 -22 -45 c-25 -49 -70 -84 -127 -100
-53 -15 -2593 -14 -2646 1 -55 15 -164 70 -263 132 l-82 52 1232 5 c1372 6
1263 0 1403 73 86 45 202 164 243 250 66 137 62 18 62 1800 l0 1620 41 -6 c22
-3 55 -15 73 -28z m-1684 -654 l0 -295 295 0 295 0 0 -200 0 -200 -295 0 -295
0 0 -590 0 -590 -195 0 -195 0 0 590 0 590 -297 2 -298 3 0 195 0 195 298 3
297 2 0 295 0 295 195 0 195 0 0 -295z"/>
</g>
</svg>
