<?xml version="1.0" standalone="no"?>
<!DOCTYPE svg PUBLIC "-//W3C//DTD SVG 20010904//EN"
 "http://www.w3.org/TR/2001/REC-SVG-20010904/DTD/svg10.dtd">
<svg version="1.0" xmlns="http://www.w3.org/2000/svg"
 width="680.000000pt" height="600.000000pt" viewBox="0 0 680.000000 600.000000"
 preserveAspectRatio="xMidYMid meet">

<g transform="translate(0.000000,600.000000) scale(0.100000,-0.100000)"
fill="#000000" stroke="none">
<path d="M2449 5777 c-82 -34 -123 -62 -170 -115 -188 -211 -119 -543 138
-665 64 -30 75 -32 178 -32 104 0 114 2 177 33 127 62 214 176 239 316 33 179
-68 369 -238 449 -60 28 -80 32 -168 35 -87 2 -107 0 -156 -21z"/>
<path d="M3446 5365 c-32 -11 -322 -296 -1443 -1417 -1032 -1032 -1408 -1414
-1423 -1446 -20 -41 -21 -59 -18 -452 l3 -408 30 -44 c87 -123 263 -123 350 0
l30 44 3 342 3 342 64 64 65 64 0 -669 0 -670 -355 -355 c-238 -239 -359 -367
-370 -392 -19 -46 -20 -128 -2 -171 18 -42 85 -101 132 -117 48 -16 126 -7
168 19 18 11 212 201 433 423 340 342 402 409 412 444 8 28 12 155 12 393 l0
351 425 0 425 0 0 -448 0 -449 23 -44 c35 -66 93 -102 171 -107 49 -3 71 0
103 16 51 27 99 81 112 129 16 57 15 1133 -1 1187 -16 53 -81 118 -134 134
-29 8 -139 12 -373 12 l-331 0 0 583 0 582 723 723 722 722 258 0 c141 0 257
-3 257 -8 0 -4 -165 -171 -366 -372 -241 -240 -372 -379 -385 -405 -41 -88 -8
-209 72 -262 l43 -28 488 -3 c468 -2 489 -2 526 17 157 80 158 296 1 375 -52
25 -58 26 -238 26 l-186 0 312 312 313 313 512 -511 c418 -417 520 -514 553
-524 136 -44 272 40 283 174 9 107 38 72 -697 810 -461 462 -689 684 -716 697
-37 17 -71 19 -495 18 -365 0 -463 -3 -494 -14z"/>
<path d="M996 4311 c-81 -27 -162 -85 -212 -154 -60 -82 -79 -142 -79 -257 0
-86 3 -101 32 -163 130 -273 473 -338 684 -128 209 210 145 555 -127 683 -87
41 -208 48 -298 19z"/>
<path d="M3150 1675 l0 -1605 1600 0 1600 0 0 1605 0 1605 -1600 0 -1600 0 0
-1605z"/>
</g>
</svg>
