<!-- icon666.com - MILLIONS vector ICONS FREE --><svg id="Layer_1" enable-background="new 0 0 512 512" viewBox="0 0 512 512" xmlns="http://www.w3.org/2000/svg"><path d="m511.7274 66.3924c-.7392-2.7607-2.8954-4.9169-5.6552-5.6572l-34.297-9.1962 7.6654-7.6654c3.124-3.124 3.124-8.1894 0-11.3133-3.124-3.1235-8.1884-3.1245-11.3143 0l-7.6591 7.659-9.1727-34.2866c-.7393-2.7617-2.8955-4.9194-5.6562-5.6596-2.7617-.7392-5.707.0479-7.7294 2.0703l-66.0461 66.0461c-2.0205 2.021-2.8105 4.9677-2.0703 7.7284l11.5819 43.1943-167.91 167.9096c-3.124 3.124-3.124 8.1894 0 11.3134 1.5625 1.562 3.6093 2.3432 5.6572 2.3432 2.0469 0 4.0947-.7813 5.6572-2.3432l15.3338-15.3339c1.3818 2.9962 2.1338 6.2741 2.1338 9.6772 0 12.7503-10.3739 23.1237-23.1247 23.1237-12.7352 0-23.0954-10.3734-23.0954-23.1237 0-11.9886 8.9872-21.8845 20.905-23.0188 4.3984-.4185 7.6249-4.3232 7.206-8.7216-.418-4.3989-4.3291-7.6215-8.7216-7.206-20.1755 1.9194-35.3892 18.6629-35.3892 38.9463 0 21.573 17.5379 39.1236 39.0952 39.1236 21.573 0 39.1245-17.5506 39.1245-39.1236 0-7.7356-2.2309-15.1222-6.3783-21.4322l31.4244-31.4244c12.2777 14.8657 18.9622 33.3532 18.9622 52.8566 0 45.8242-37.2935 83.1045-83.1328 83.1045-45.8237 0-83.1045-37.2803-83.1045-83.1045 0-45.8398 37.2808-83.1328 83.1045-83.1328 14.4803 0 28.7409 3.7807 41.2388 10.9335 3.834 2.1943 8.7216.8643 10.9169-2.9697 2.1943-3.8344.8652-8.7221-2.9697-10.9169-14.9139-8.535-31.9215-13.0467-49.1859-13.0467-54.6458 0-99.1043 44.4707-99.1043 99.1326 0 54.6463 44.4585 99.1043 99.1043 99.1043 54.6615 0 99.1326-44.458 99.1326-99.1043 0-23.7801-8.331-46.2934-23.6037-64.2148l31.1764-31.1763c23.551 26.2767 36.4366 59.8455 36.4366 95.3911 0 78.9126-64.2131 143.1131-143.1419 143.1131-78.9131 0-143.1135-64.2004-143.1135-143.1131 0-78.9131 64.2004-143.1136 143.1135-143.1136 30.3405 0 59.3411 9.3749 83.8652 27.112 3.581 2.5883 8.581 1.7861 11.1708-1.7944 2.5888-3.58 1.7861-8.5809-1.7939-11.1703-27.2702-19.7224-59.513-30.1471-93.2421-30.1471-87.7353 0-159.1134 71.3781-159.1134 159.1134s71.3781 159.1129 159.1134 159.1129c87.7509 0 159.1417-71.3776 159.1417-159.1129 0-39.8213-14.5374-77.415-41.1021-106.7256l31.1403-31.1403c34.858 37.646 53.971 86.2869 53.971 137.8659 0 112.0016-91.1327 203.1216-203.1509 203.1216-112.0016 0-203.1216-91.12-203.1216-203.1216 0-112.0021 91.12-203.1221 203.1216-203.1221 46.4164 0 90.1161 15.2479 126.3755 44.0957 3.454 2.7495 8.4882 2.1772 11.2411-1.2793 2.75-3.4575 2.1777-8.4906-1.2802-11.2411-39.1197-31.1241-86.2646-47.5751-136.3363-47.5751-58.5266 0-113.5514 22.7903-154.9376 64.1726-41.3896 41.3858-64.1842 96.4149-64.1842 154.9494 0 120.8238 98.2977 219.1214 219.1214 219.1214 120.8404 0 219.1508-98.2977 219.1508-219.1214 0-55.8535-20.7761-108.5128-58.6502-149.1865l13.0497-13.0497 43.209 11.5925c.6855.1841 1.3818.2734 2.0732.2734 2.0937 0 4.1367-.8232 5.6572-2.3432l66.0461-66.0461c2.0203-2.0205 2.8094-4.9663 2.0701-7.7265zm-125.2836 10.0438 52.9769-52.9774 7.9799 29.8274-52.9632 52.9631zm49.1205 49.1483-29.8312-8.0036 52.9794-52.9792 29.8346 7.9995z"></path></svg>