<svg xmlns="http://www.w3.org/2000/svg" xmlns:xlink="http://www.w3.org/1999/xlink" viewBox="0 0 1920 1080"><defs><clipPath id="n"><path d="M972.5 446.95c.44.27 1.07.26 1.54.07.74-.29 1.18-1.01 1.37-1.74.03-.1.05-.21.07-.32.03-.15.09-.19.2-.3.18-.19.37-.37.55-.56.32-.34.64-.69.95-1.05-.05.06-.07.08.05-.05.08-.1.1-.11.08-.09.57-.66 1.13-1.33 1.6-2.06-1.39.86-2.65 1.98-3.83 3.1-.13.12-.47.34-.49.53-.03.31-.09.62-.2.91-.19.5-.5.84-1.02 1.01h.03c-.22.03-.42.06-.64-.01-.6-.19-.52-1.08-.21-1.48-.81.38-.75 1.61-.04 2.05z" fill="#fff"/></clipPath><clipPath id="a"><path d="M-345.29 24.96c0-.77-.15-1.72-.72-2.63l-11.97-3.71c-1.81-.56-3.74.45-4.3 2.27l-5.16 16.67c.29-.68.86-1.7 1.72-1.9v.04c.16-.49.44-.82.84-1.13.24-.18.52-.33.79-.45.18-.09.37-.16.57-.23.06-.02.39-.07.43-.13.03-.04 0-.26.01-.3.02-.24.06-.48.12-.72.14-.53.35-1.04.57-1.54.39-.87.84-1.72 1.34-2.54 1.06-1.71 2.43-3.12 4.2-4.08.66-.35 1.34-.62 2.07-.8 1.18-.29 2.46-.34 3.65-.05 2.16.52 4.45 1.65 5.24 3.9v-.01c.1-.22.58-1.32.59-2.66z" fill="#fff"/></clipPath><clipPath id="c"><path d="M-356.96 41.09s-.07.1-.1.14c-.1.1-.18-.02-.3-.09-.82-.51-1.88-1.19-2.88-1.15.9.43 1.65 1.18 2.42 1.81.14.12.28.23.41.34.04.03.13.14.18.13.15-.04.3-.08.44-.14.72-.4 1.02-1.26 1.2-2.02l.04-.15c.03-.13.09-.31.07-.44-.14-.75-.74-1.32-1.34-1.75-.71-.51-1.53-.93-2.37-1.17.28.25.57.5.85.75.39.36.79.7 1.15 1.09.22.23.83.8.75 1.15-.08.36-.18.71-.31 1.05-.06.15-.13.29-.21.43z" fill="#fff"/></clipPath><clipPath id="d"><path d="M-353.05 33.92c.44.27 1.07.26 1.54.07.74-.29 1.18-1.01 1.37-1.74.03-.1.05-.21.07-.32.03-.15.09-.19.2-.3.18-.19.37-.37.55-.56.32-.34.64-.69.95-1.05-.05.06-.07.08.05-.05.08-.1.1-.11.08-.09.57-.66 1.13-1.33 1.6-2.06-1.39.86-2.65 1.98-3.83 3.1-.13.12-.47.34-.49.53-.03.31-.09.62-.2.91-.19.5-.5.84-1.02 1.01h.03c-.22.03-.42.06-.64-.01-.6-.19-.52-1.08-.21-1.48-.81.38-.75 1.61-.04 2.05z" fill="#fff"/></clipPath><clipPath id="e"><path d="M-353.74 41.48c0-.06-.01-.12-.03-.18-.02-.06-.03-.13-.06-.2s-.05-.14-.09-.21c-.03-.07-.07-.14-.11-.2a2.43 2.43 0 0 0-.6-.63c-.1-.07-.19-.12-.25-.16-.03-.02-.06-.03-.08-.04-.02 0-.03-.01-.03-.01l-.18.54h.02c.01 0 .03 0 .06.01.05.01.13.04.22.07.18.07.42.2.62.39.05.05.1.1.14.15.05.05.08.11.12.16.04.05.06.11.09.16s.05.11.07.16c.02.05.04.1.05.14.01.04.02.08.03.11.02.06.02.1.02.1v-.22c0-.05-.01-.1-.02-.15z" fill="#fff"/></clipPath><clipPath id="f"><path d="M279.13 218.37c0-.77-.15-1.72-.72-2.63l-11.97-3.71c-1.81-.56-3.74.45-4.3 2.27l-5.16 16.67c.29-.68.86-1.7 1.72-1.9v.04c.16-.49.44-.82.84-1.13.24-.18.52-.33.79-.45.18-.09.37-.16.57-.23.06-.02.39-.07.43-.13.03-.04 0-.26.01-.3.02-.24.06-.48.12-.72.14-.53.35-1.04.57-1.54.39-.87.84-1.72 1.34-2.54 1.06-1.71 2.43-3.12 4.2-4.08.66-.35 1.34-.62 2.07-.8 1.18-.29 2.46-.34 3.65-.05 2.16.52 4.45 1.65 5.24 3.9v-.01c.1-.22.58-1.32.59-2.66z" fill="#fff"/></clipPath><clipPath id="g"><path d="m282.54 216.97-1.66-.51c.04 1.22-.23 3.64-2.18 5.04.22.72.31 1.52.3 2.27 0 .41-.08.85-.06 1.26.01.3.14.59.17.89.07.59-.31 1.24-.71 1.65a.12.12 0 0 0-.05.05s.1.17.14.2c.07.12.09.18.13.33.1.46.19.91.28 1.37.11.54.27 1.1.32 1.66 0-.01 0-.01 0 0 0 .1 0 .04 0 0 .05.79-.47 1.24-1.23 1-.2-.06-.41-.13-.61-.2-.15-.05-.39-.21-.48-.09-.11.29 0 .56-.24.82-.11.12-.07.35-.15.51-.08.18-.23.34-.4.44-.22.15-.7.16-.69.49 0 .26.12.68.08.98-.03.31-.2.48-.41.67-.57.54-1.15.22-1.71-.06-.47-.22-.95-.41-1.47-.47-.42-.05-1.19-.07-1.22.51-.03.66-.14 1.31-.27 1.95-.15.79-.38 1.6-.32 2.42.05.67.29 1.26.53 1.88-.91-.16-1.81-.32-2.68-.67-.62-.25-1.24-.59-1.69-1.1-.21-.25-.51-.68-.41-1.01.14-.5.45-1.02.66-1.49.19-.44.43-.89.59-1.36-.74 1.12-2.97 4.2-5.91 5.1l12.52 3.88c1.81.56 3.78-.47 4.34-2.28l6.75-21.79c.56-1.81-.47-3.8-2.28-4.36z" fill="#fff"/></clipPath><clipPath id="h"><path d="M267.46 234.5s-.07.1-.1.14c-.1.1-.18-.02-.3-.09-.82-.51-1.88-1.19-2.88-1.15.9.43 1.65 1.18 2.42 1.81.14.12.28.23.41.34.04.03.13.14.18.13.15-.04.3-.08.44-.14.72-.4 1.02-1.26 1.2-2.02l.04-.15c.03-.13.09-.31.07-.44-.14-.75-.74-1.32-1.34-1.75-.71-.51-1.53-.93-2.37-1.17.28.25.57.5.85.75.39.36.79.7 1.15 1.09.22.23.83.8.75 1.15-.08.36-.18.71-.31 1.05-.06.15-.13.29-.21.43z" fill="#fff"/></clipPath><clipPath id="i"><path d="M271.37 227.33c.44.27 1.07.26 1.54.07.74-.29 1.18-1.01 1.37-1.74.03-.1.05-.21.07-.32.03-.15.09-.19.2-.3.18-.19.37-.37.55-.56.32-.34.64-.69.95-1.05-.05.06-.07.08.05-.05.08-.1.1-.11.08-.09.57-.66 1.13-1.33 1.6-2.06-1.39.86-2.65 1.98-3.83 3.1-.13.12-.47.34-.49.53-.03.31-.09.62-.2.91-.19.5-.5.84-1.02 1.01h.03c-.22.03-.42.06-.64-.01-.6-.19-.52-1.08-.21-1.48-.81.38-.75 1.61-.04 2.05z" fill="#fff"/></clipPath><clipPath id="j"><path d="M270.68 234.89c0-.06-.01-.12-.03-.18-.02-.06-.03-.13-.06-.2s-.05-.14-.09-.21c-.03-.07-.07-.14-.11-.2a2.43 2.43 0 0 0-.6-.63c-.1-.07-.19-.12-.25-.16-.03-.02-.06-.03-.08-.04-.02 0-.03-.01-.03-.01l-.18.54h.02c.01 0 .03 0 .06.01.05.01.13.04.22.07.18.07.42.2.62.39.05.05.1.1.14.15.05.05.08.11.12.16.04.05.06.11.09.16s.05.11.07.16c.02.05.04.1.05.14.01.04.02.08.03.11.02.06.02.1.02.1v-.22c0-.05-.01-.1-.02-.15z" fill="#fff"/></clipPath><clipPath id="k"><path d="M980.27 437.99c0-.77-.15-1.72-.72-2.63l-11.97-3.71c-1.81-.56-3.74.45-4.3 2.27l-5.16 16.67c.29-.68.86-1.7 1.72-1.9v.04c.16-.49.44-.82.84-1.13.24-.18.52-.33.79-.45.18-.09.37-.16.57-.23.06-.02.39-.07.43-.13.03-.04 0-.26.01-.3.02-.24.06-.48.12-.72.14-.53.35-1.04.57-1.54.39-.87.84-1.72 1.34-2.54 1.06-1.71 2.43-3.12 4.2-4.08.66-.35 1.34-.62 2.07-.8 1.18-.29 2.46-.34 3.65-.05 2.16.52 4.45 1.65 5.24 3.9v-.01c.1-.22.58-1.32.59-2.66z" fill="#fff"/></clipPath><clipPath id="l"><path d="m983.68 436.58-1.66-.51c.04 1.22-.23 3.64-2.18 5.04.22.72.31 1.52.3 2.27 0 .41-.08.85-.06 1.26.01.3.14.59.17.89.07.59-.31 1.24-.71 1.65a.12.12 0 0 0-.05.05s.1.17.14.2c.07.12.09.18.13.33.1.46.19.91.28 1.37.11.54.27 1.1.32 1.66 0-.01 0-.01 0 0 0 .1 0 .04 0 0 .05.79-.47 1.24-1.23 1-.2-.06-.41-.13-.61-.2-.15-.05-.39-.21-.48-.09-.11.29 0 .56-.24.82-.11.12-.07.35-.15.51-.08.18-.23.34-.4.44-.22.15-.7.16-.69.49 0 .26.12.68.08.98-.03.31-.2.48-.41.67-.57.54-1.15.22-1.71-.06-.47-.22-.95-.41-1.47-.47-.42-.05-1.19-.07-1.22.51-.03.66-.14 1.31-.27 1.95-.15.79-.38 1.6-.32 2.42.05.67.29 1.26.53 1.88-.91-.16-1.81-.32-2.68-.67-.62-.25-1.24-.59-1.69-1.1-.21-.25-.51-.68-.41-1.01.14-.5.45-1.02.66-1.49.19-.44.43-.89.59-1.36-.74 1.12-2.97 4.2-5.91 5.1l12.52 3.88c1.81.56 3.78-.47 4.34-2.28l6.75-21.79c.56-1.81-.47-3.8-2.28-4.36z" fill="#fff"/></clipPath><clipPath id="m"><path d="M968.6 454.12s-.07.1-.1.14c-.1.1-.18-.02-.3-.09-.82-.51-1.88-1.19-2.88-1.15.9.43 1.65 1.18 2.42 1.81.14.12.28.23.41.34.04.03.13.14.18.13.15-.04.3-.08.44-.14.72-.4 1.02-1.26 1.2-2.02l.04-.15c.03-.13.09-.31.07-.44-.14-.75-.74-1.32-1.34-1.75-.71-.51-1.53-.93-2.37-1.17.28.25.57.5.85.75.39.36.79.7 1.15 1.09.22.23.83.8.75 1.15-.08.36-.18.71-.31 1.05-.06.15-.13.29-.21.43z" fill="#fff"/></clipPath><clipPath id="b"><path d="m-341.88 23.55-1.66-.51c.04 1.22-.23 3.64-2.18 5.04.22.72.31 1.52.3 2.27 0 .41-.08.85-.06 1.26.01.3.14.59.17.89.07.59-.31 1.24-.71 1.65a.12.12 0 0 0-.05.05s.1.17.14.2c.07.12.09.18.13.33.1.46.19.91.28 1.37.11.54.27 1.1.32 1.66 0-.01 0-.01 0 0 0 .1 0 .04 0 0 .05.79-.47 1.24-1.23 1-.2-.06-.41-.13-.61-.2-.15-.05-.39-.21-.48-.09-.11.29 0 .56-.24.82-.11.12-.07.35-.15.51-.08.18-.23.34-.4.44-.22.15-.7.16-.69.49 0 .26.12.68.08.98-.03.31-.2.48-.41.67-.57.54-1.15.22-1.71-.06-.47-.22-.95-.41-1.47-.47-.42-.05-1.19-.07-1.22.51-.03.66-.14 1.31-.27 1.95-.15.79-.38 1.6-.32 2.42.05.67.29 1.26.53 1.88-.91-.16-1.81-.32-2.68-.67-.62-.25-1.24-.59-1.69-1.1-.21-.25-.51-.68-.41-1.01.14-.5.45-1.02.66-1.49.19-.44.43-.89.59-1.36-.74 1.12-2.97 4.2-5.91 5.1l12.52 3.88c1.81.56 3.78-.47 4.34-2.28l6.75-21.79c.56-1.81-.47-3.8-2.28-4.36z" fill="#fff"/></clipPath><clipPath id="o"><path d="M971.82 454.51c0-.06-.01-.12-.03-.18-.02-.06-.03-.13-.06-.2s-.05-.14-.09-.21c-.03-.07-.07-.14-.11-.2a2.43 2.43 0 0 0-.6-.63c-.1-.07-.19-.12-.25-.16-.03-.02-.06-.03-.08-.04-.02 0-.03-.01-.03-.01l-.18.54h.02c.01 0 .03 0 .06.01.05.01.13.04.22.07.18.07.42.2.62.39.05.05.1.1.14.15.05.05.08.11.12.16.04.05.06.11.09.16s.05.11.07.16c.02.05.04.1.05.14.01.04.02.08.03.11.02.06.02.1.02.1v-.22c0-.05-.01-.1-.02-.15z" fill="#fff"/></clipPath><clipPath id="p"><path d="M1604.69 631.4c0-.77-.15-1.72-.72-2.63l-11.97-3.71c-1.81-.56-3.74.45-4.3 2.27l-5.16 16.67c.29-.68.86-1.7 1.72-1.9v.04c.16-.49.44-.82.84-1.13.24-.18.52-.33.79-.45.18-.09.37-.16.57-.23.06-.02.39-.07.43-.13.03-.04 0-.26.01-.3.02-.24.06-.48.12-.72.14-.53.35-1.04.57-1.54.39-.87.84-1.72 1.34-2.54 1.06-1.71 2.43-3.12 4.2-4.08.66-.35 1.34-.62 2.07-.8 1.18-.29 2.46-.34 3.65-.05 2.16.52 4.45 1.65 5.24 3.9v-.01c.1-.22.58-1.32.59-2.66z" fill="#fff"/></clipPath><clipPath id="q"><path d="m1608.1 629.99-1.66-.51c.04 1.22-.23 3.64-2.18 5.04.22.72.31 1.52.3 2.27 0 .41-.08.85-.06 1.26.01.3.14.59.17.89.07.59-.31 1.24-.71 1.65a.12.12 0 0 0-.05.05s.1.17.14.2c.07.12.09.18.13.33.1.46.19.91.28 1.37.11.54.27 1.1.32 1.66 0-.01 0-.01 0 0 0 .1 0 .04 0 0 .05.79-.47 1.24-1.23 1-.2-.06-.41-.13-.61-.2-.15-.05-.39-.21-.48-.09-.11.29 0 .56-.24.82-.11.12-.07.35-.15.51-.08.18-.23.34-.4.44-.22.15-.7.16-.69.49 0 .26.12.68.08.98-.03.31-.2.48-.41.67-.57.54-1.15.22-1.71-.06-.47-.22-.95-.41-1.47-.47-.42-.05-1.19-.07-1.22.51-.03.66-.14 1.31-.27 1.95-.15.79-.38 1.6-.32 2.42.05.67.29 1.26.53 1.88-.91-.16-1.81-.32-2.68-.67-.62-.25-1.24-.59-1.69-1.1-.21-.25-.51-.68-.41-1.01.14-.5.45-1.02.66-1.49.19-.44.43-.89.59-1.36-.74 1.12-2.97 4.2-5.91 5.1l12.52 3.88c1.81.56 3.78-.47 4.34-2.28l6.75-21.79c.56-1.81-.47-3.8-2.28-4.36z" fill="#fff"/></clipPath><clipPath id="r"><path d="M1593.02 647.53s-.07.1-.1.14c-.1.1-.18-.02-.3-.09-.82-.51-1.88-1.19-2.88-1.15.9.43 1.65 1.18 2.42 1.81.14.12.28.23.41.34.04.03.13.14.18.13.15-.04.3-.08.44-.14.72-.4 1.02-1.26 1.2-2.02l.04-.15c.03-.13.09-.31.07-.44-.14-.75-.74-1.32-1.34-1.75-.71-.51-1.53-.93-2.37-1.17.28.25.57.5.85.75.39.36.79.7 1.15 1.09.22.23.83.8.75 1.15-.08.36-.18.71-.31 1.05-.06.15-.13.29-.21.43z" fill="#fff"/></clipPath><clipPath id="s"><path d="M1596.92 640.36c.44.27 1.07.26 1.54.07.74-.29 1.18-1.01 1.37-1.74.03-.1.05-.21.07-.32.03-.15.09-.19.2-.3.18-.19.37-.37.55-.56.32-.34.64-.69.95-1.05-.05.06-.07.08.05-.05.08-.1.1-.11.08-.09.57-.66 1.13-1.33 1.6-2.06-1.39.86-2.65 1.98-3.83 3.1-.13.12-.47.34-.49.53-.03.31-.09.62-.2.91-.19.5-.5.84-1.02 1.01h.03c-.22.03-.42.06-.64-.01-.6-.19-.52-1.08-.21-1.48-.81.38-.75 1.61-.04 2.05z" fill="#fff"/></clipPath><clipPath id="t"><path d="M1596.24 647.92c0-.06-.01-.12-.03-.18-.02-.06-.03-.13-.06-.2s-.05-.14-.09-.21c-.03-.07-.07-.14-.11-.2a2.43 2.43 0 0 0-.6-.63c-.1-.07-.19-.12-.25-.16-.03-.02-.06-.03-.08-.04-.02 0-.03-.01-.03-.01l-.18.54h.02c.01 0 .03 0 .06.01.05.01.13.04.22.07.18.07.42.2.62.39.05.05.1.1.14.15.05.05.08.11.12.16.04.05.06.11.09.16s.05.11.07.16c.02.05.04.1.05.14.01.04.02.08.03.11.02.06.02.1.02.1v-.22c0-.05-.01-.1-.02-.15z" fill="#fff"/></clipPath><clipPath id="u"><path d="M2227.86 823.66c0-.77-.15-1.72-.72-2.63l-11.97-3.71c-1.81-.56-3.74.45-4.3 2.27l-5.16 16.67c.29-.68.86-1.7 1.72-1.9v.04c.16-.49.44-.82.84-1.13.24-.18.52-.33.79-.45.18-.09.37-.16.57-.23.06-.02.39-.07.43-.13.03-.04 0-.26.01-.3.02-.24.06-.48.12-.72.14-.53.35-1.04.57-1.54.39-.87.84-1.72 1.34-2.54 1.06-1.71 2.43-3.12 4.2-4.08.66-.35 1.34-.62 2.07-.8 1.18-.29 2.46-.34 3.65-.05 2.16.52 4.45 1.65 5.24 3.9v-.01c.1-.22.58-1.32.59-2.66z" fill="#fff"/></clipPath><clipPath id="v"><path d="m2231.27 822.26-1.66-.51c.04 1.22-.23 3.64-2.18 5.04.22.72.31 1.52.3 2.27 0 .41-.08.85-.06 1.26.01.3.14.59.17.89.07.59-.31 1.24-.71 1.65a.12.12 0 0 0-.05.05s.1.17.14.2c.07.12.09.18.13.33.1.46.19.91.28 1.37.11.54.27 1.1.32 1.66 0-.01 0-.01 0 0 0 .1 0 .04 0 0 .05.79-.47 1.24-1.23 1-.2-.06-.41-.13-.61-.2-.15-.05-.39-.21-.48-.09-.11.29 0 .56-.24.82-.11.12-.07.35-.15.51-.08.18-.23.34-.4.44-.22.15-.7.16-.69.49 0 .26.12.68.08.98-.03.31-.2.48-.41.67-.57.54-1.15.22-1.71-.06-.47-.22-.95-.41-1.47-.47-.42-.05-1.19-.07-1.22.51-.03.66-.14 1.31-.27 1.95-.15.79-.38 1.6-.32 2.42.05.67.29 1.26.53 1.88-.91-.16-1.81-.32-2.68-.67-.62-.25-1.24-.59-1.69-1.1-.21-.25-.51-.68-.41-1.01.14-.5.45-1.02.66-1.49.19-.44.43-.89.59-1.36-.74 1.12-2.97 4.2-5.91 5.1l12.52 3.88c1.81.56 3.78-.47 4.34-2.28l6.75-21.79c.56-1.81-.47-3.8-2.28-4.36z" fill="#fff"/></clipPath><clipPath id="w"><path d="M2216.19 839.8s-.07.1-.1.14c-.1.1-.18-.02-.3-.09-.82-.51-1.88-1.19-2.88-1.15.9.43 1.65 1.18 2.42 1.81.14.12.28.23.41.34.04.03.13.14.18.13.15-.04.3-.08.44-.14.72-.4 1.02-1.26 1.2-2.02l.04-.15c.03-.13.09-.31.07-.44-.14-.75-.74-1.32-1.34-1.75-.71-.51-1.53-.93-2.37-1.17.28.25.57.5.85.75.39.36.79.7 1.15 1.09.22.23.83.8.75 1.15-.08.36-.18.71-.31 1.05-.06.15-.13.29-.21.43z" fill="#fff"/></clipPath><clipPath id="x"><path d="M2220.09 832.62c.44.27 1.07.26 1.54.07.74-.29 1.18-1.01 1.37-1.74.03-.1.05-.21.07-.32.03-.15.09-.19.2-.3.18-.19.37-.37.55-.56.32-.34.64-.69.95-1.05-.05.06-.07.08.05-.05.08-.1.1-.11.08-.09.57-.66 1.13-1.33 1.6-2.06-1.39.86-2.65 1.98-3.83 3.1-.13.12-.47.34-.49.53-.03.31-.09.62-.2.91-.19.5-.5.84-1.02 1.01h.03c-.22.03-.42.06-.64-.01-.6-.19-.52-1.08-.21-1.48-.81.38-.75 1.61-.04 2.05z" fill="#fff"/></clipPath><clipPath id="y"><path d="M2219.41 840.18c0-.06-.01-.12-.03-.18-.02-.06-.03-.13-.06-.2s-.05-.14-.09-.21c-.03-.07-.07-.14-.11-.2a2.43 2.43 0 0 0-.6-.63c-.1-.07-.19-.12-.25-.16-.03-.02-.06-.03-.08-.04-.02 0-.03-.01-.03-.01l-.18.54h.02c.01 0 .03 0 .06.01.05.01.13.04.22.07.18.07.42.2.62.39.05.05.1.1.14.15.05.05.08.11.12.16.04.05.06.11.09.16s.05.11.07.16c.02.05.04.1.05.14.01.04.02.08.03.11.02.06.02.1.02.1v-.22c0-.05-.01-.1-.02-.15z" fill="#fff"/></clipPath><filter id="z" x="294.86" y="48.86" width="1155.12" height="106.8" filterUnits="userSpaceOnUse"><feOffset dx="7" dy="7.09"/><feGaussianBlur result="blur" stdDeviation="2.83"/><feFlood flood-color="#000" flood-opacity=".75"/><feComposite in2="blur" operator="in"/><feComposite in="SourceGraphic"/></filter></defs><path fill="#f3cc5e" d="M279.88 63.86h1175.79v83.12H279.88zM536.29 1272.92h772.1v61.26h-772.1z"/><path d="M678.44 1330.38c-3.97 0-7.59-.65-10.87-1.94-3.28-1.29-6.1-3.1-8.47-5.43-2.37-2.33-4.2-5.11-5.49-8.32-1.29-3.22-1.94-6.73-1.94-10.55s.64-7.37 1.94-10.55c1.29-3.18 3.14-5.93 5.55-8.27 2.41-2.33 5.27-4.13 8.58-5.4 3.31-1.27 6.95-1.91 10.92-1.91s7.52.62 10.78 1.85 6.08 2.98 8.47 5.23c2.39 2.25 4.23 4.94 5.52 8.06 1.29 3.12 1.94 6.57 1.94 10.35 0 3.24-.38 6.02-1.13 8.35-.75 2.33-1.84 4.12-3.27 5.38-1.43 1.25-3.14 1.88-5.14 1.88s-3.55-.6-4.74-1.79c-1.19-1.19-1.79-2.87-1.79-5.03v-4.57l.46-3.7-.58-5.78v-8.73h3.76v21.91c0 1.62.35 2.76 1.04 3.41.69.66 1.54.98 2.54.98 1.19 0 2.23-.48 3.12-1.44.89-.96 1.57-2.36 2.05-4.19.48-1.83.72-4.04.72-6.62 0-3.39-.58-6.47-1.73-9.25s-2.79-5.16-4.91-7.17c-2.12-2-4.62-3.53-7.51-4.6-2.89-1.06-6.09-1.59-9.59-1.59s-6.72.56-9.65 1.68c-2.93 1.12-5.44 2.71-7.54 4.77-2.1 2.06-3.73 4.51-4.88 7.34s-1.73 5.96-1.73 9.39.57 6.57 1.71 9.42c1.14 2.85 2.75 5.31 4.83 7.37 2.08 2.06 4.57 3.66 7.46 4.8 2.89 1.14 6.09 1.71 9.59 1.71 1.73 0 3.59-.21 5.58-.64 1.98-.42 3.82-1.06 5.52-1.91l.98 2.83c-1.73.89-3.7 1.55-5.9 1.99-2.2.44-4.26.66-6.18.66zm-.7-11.27c-2.74 0-5.18-.64-7.34-1.94-2.16-1.29-3.86-3.06-5.12-5.32-1.25-2.25-1.88-4.83-1.88-7.72s.63-5.45 1.88-7.69c1.25-2.23 2.96-3.99 5.12-5.26 2.16-1.27 4.6-1.91 7.34-1.91s5.02.6 7.08 1.79c2.06 1.19 3.68 2.9 4.86 5.12 1.17 2.22 1.76 4.87 1.76 7.95s-.59 5.74-1.76 7.98c-1.18 2.24-2.78 3.96-4.83 5.17-2.04 1.21-4.41 1.82-7.11 1.82zm.52-3.36c2.08 0 3.96-.48 5.64-1.44 1.68-.96 2.99-2.32 3.93-4.07.94-1.75 1.42-3.79 1.42-6.1s-.47-4.38-1.42-6.1c-.94-1.71-2.25-3.04-3.93-3.99-1.68-.94-3.55-1.42-5.64-1.42s-4.07.47-5.72 1.42c-1.66.94-2.96 2.28-3.9 4.02-.94 1.73-1.42 3.76-1.42 6.07s.47 4.33 1.42 6.07c.94 1.73 2.24 3.09 3.9 4.07 1.66.98 3.56 1.47 5.72 1.47zM722.25 1319.11c-2.51 0-4.87-.36-7.11-1.07-2.24-.71-3.99-1.61-5.26-2.69l1.85-3.24c1.23.92 2.81 1.73 4.74 2.4 1.93.67 3.95 1.01 6.07 1.01 2.89 0 4.97-.45 6.24-1.36 1.27-.9 1.91-2.11 1.91-3.61 0-1.12-.36-1.99-1.07-2.63-.71-.64-1.65-1.12-2.8-1.44-1.16-.33-2.45-.61-3.87-.84-1.43-.23-2.84-.5-4.25-.81-1.41-.31-2.69-.76-3.84-1.36a7.496 7.496 0 0 1-2.8-2.46c-.71-1.04-1.07-2.43-1.07-4.16s.46-3.14 1.39-4.45c.92-1.31 2.28-2.34 4.07-3.09s3.98-1.13 6.56-1.13c1.97 0 3.93.26 5.9.78s3.58 1.2 4.86 2.05l-1.79 3.29a13.82 13.82 0 0 0-4.33-1.99c-1.54-.4-3.08-.61-4.62-.61-2.74 0-4.75.47-6.04 1.42-1.29.94-1.94 2.15-1.94 3.61 0 1.16.36 2.06 1.07 2.72.71.66 1.66 1.17 2.83 1.53 1.17.37 2.47.66 3.87.9 1.41.23 2.81.51 4.22.84 1.41.33 2.7.77 3.87 1.33s2.12 1.35 2.83 2.37 1.07 2.36 1.07 4.02c0 1.77-.49 3.3-1.47 4.6-.98 1.29-2.41 2.29-4.28 3.01-1.87.71-4.13 1.07-6.79 1.07zM755.19 1319.11c-3.16 0-5.93-.66-8.32-1.99-2.39-1.33-4.26-3.16-5.61-5.49-1.35-2.33-2.02-5-2.02-8.01s.64-5.66 1.94-7.98c1.29-2.31 3.06-4.13 5.32-5.46s4.79-1.99 7.6-1.99 5.38.65 7.6 1.94c2.22 1.29 3.96 3.1 5.23 5.43 1.27 2.33 1.91 5.02 1.91 8.06 0 .19 0 .4-.03.61-.02.21-.03.43-.03.66h-26.41v-3.06h24.22l-1.62 1.21c0-2.2-.47-4.15-1.42-5.87-.94-1.71-2.23-3.05-3.84-4.02-1.62-.96-3.49-1.44-5.61-1.44s-3.95.48-5.61 1.44c-1.66.96-2.95 2.31-3.87 4.05s-1.39 3.72-1.39 5.95v.64c0 2.31.51 4.34 1.53 6.1 1.02 1.75 2.45 3.12 4.28 4.1 1.83.98 3.92 1.47 6.27 1.47 1.85 0 3.57-.33 5.17-.98 1.6-.65 2.98-1.66 4.13-3.01l2.31 2.66c-1.35 1.62-3.03 2.85-5.06 3.7-2.02.85-4.25 1.27-6.68 1.27zM815.13 1288.18c2.47 0 4.61.47 6.44 1.42 1.83.94 3.26 2.38 4.28 4.31 1.02 1.93 1.53 4.35 1.53 7.28v17.63h-4.1v-17.22c0-3.2-.76-5.62-2.28-7.25-1.52-1.64-3.67-2.46-6.44-2.46-2.08 0-3.88.43-5.4 1.3-1.52.87-2.7 2.12-3.53 3.76-.83 1.64-1.24 3.61-1.24 5.92v15.95h-4.1v-17.22c0-3.2-.77-5.62-2.31-7.25-1.54-1.64-3.7-2.46-6.47-2.46-2.04 0-3.83.43-5.38 1.3-1.54.87-2.73 2.12-3.55 3.76-.83 1.64-1.24 3.61-1.24 5.92v15.95h-4.1v-30.34h3.93v8.21l-.64-1.44c.92-2.2 2.42-3.92 4.48-5.17 2.06-1.25 4.5-1.88 7.31-1.88 2.97 0 5.49.74 7.57 2.23 2.08 1.48 3.43 3.71 4.05 6.68l-1.62-.64c.89-2.47 2.46-4.46 4.71-5.98 2.25-1.52 4.96-2.28 8.12-2.28zM840.62 1281.77c-.85 0-1.56-.29-2.14-.87s-.87-1.27-.87-2.08.29-1.49.87-2.05c.58-.56 1.29-.84 2.14-.84s1.56.27 2.14.81c.58.54.87 1.21.87 2.02s-.28 1.56-.84 2.14c-.56.58-1.28.87-2.17.87zm-2.08 37.05v-30.34h4.1v30.34h-4.1zM869.58 1288.18c2.47 0 4.63.47 6.5 1.42 1.87.94 3.33 2.38 4.39 4.31 1.06 1.93 1.59 4.35 1.59 7.28v17.63h-4.1v-17.22c0-3.2-.8-5.62-2.4-7.25-1.6-1.64-3.84-2.46-6.73-2.46-2.16 0-4.04.43-5.64 1.3-1.6.87-2.83 2.12-3.7 3.76-.87 1.64-1.3 3.61-1.3 5.92v15.95h-4.1v-30.34h3.93v8.32l-.64-1.56c.96-2.2 2.5-3.92 4.62-5.17s4.64-1.88 7.57-1.88zM901.71 1319.11c-2.27 0-4.25-.38-5.92-1.13s-2.96-1.79-3.84-3.12c-.89-1.33-1.33-2.86-1.33-4.6 0-1.58.38-3.01 1.13-4.31.75-1.29 1.98-2.33 3.7-3.12 1.71-.79 4.02-1.18 6.91-1.18h10.46v3.06h-10.35c-2.93 0-4.96.52-6.1 1.56-1.14 1.04-1.71 2.33-1.71 3.87 0 1.73.67 3.12 2.02 4.16s3.24 1.56 5.66 1.56 4.31-.53 5.98-1.59c1.68-1.06 2.9-2.59 3.67-4.6l.92 2.83c-.77 2-2.11 3.6-4.02 4.8-1.91 1.19-4.31 1.79-7.2 1.79zm10.46-.29v-6.7l-.17-1.1v-11.21c0-2.58-.72-4.57-2.17-5.95s-3.59-2.08-6.44-2.08c-1.97 0-3.83.33-5.61.98-1.77.66-3.28 1.52-4.51 2.6l-1.85-3.06c1.54-1.31 3.39-2.32 5.55-3.03 2.16-.71 4.43-1.07 6.82-1.07 3.93 0 6.96.97 9.1 2.92 2.14 1.95 3.21 4.9 3.21 8.87v18.84h-3.93zM927.26 1318.82v-30.34h3.93v8.27l-.4-1.44c.85-2.31 2.27-4.07 4.28-5.29 2-1.21 4.49-1.82 7.46-1.82v3.99c-.15 0-.31 0-.46-.03-.15-.02-.31-.03-.46-.03-3.2 0-5.7.97-7.51 2.92-1.81 1.95-2.72 4.71-2.72 8.29v15.49h-4.1zM952.05 1281.77c-.85 0-1.56-.29-2.14-.87s-.87-1.27-.87-2.08.29-1.49.87-2.05c.58-.56 1.29-.84 2.14-.84s1.56.27 2.14.81c.58.54.87 1.21.87 2.02s-.28 1.56-.84 2.14c-.56.58-1.28.87-2.17.87zm-2.08 37.05v-30.34h4.1v30.34h-4.1zM977.89 1319.11c-2.93 0-5.56-.66-7.89-1.99a14.692 14.692 0 0 1-5.52-5.49c-1.35-2.33-2.02-5-2.02-8.01s.67-5.72 2.02-8.03c1.35-2.31 3.18-4.12 5.49-5.43 2.31-1.31 4.95-1.97 7.92-1.97s5.67.66 8.01 1.97a14.32 14.32 0 0 1 5.49 5.43c1.33 2.31 1.99 4.99 1.99 8.03s-.66 5.67-1.99 8.01c-1.33 2.33-3.17 4.16-5.52 5.49-2.35 1.33-5.01 1.99-7.98 1.99zm0-3.64c2.2 0 4.14-.49 5.84-1.47 1.7-.98 3.03-2.37 4.02-4.16s1.47-3.86 1.47-6.21-.49-4.47-1.47-6.24c-.98-1.77-2.32-3.15-4.02-4.13-1.7-.98-3.62-1.47-5.78-1.47s-4.08.49-5.78 1.47c-1.7.98-3.04 2.36-4.05 4.13-1 1.77-1.5 3.85-1.5 6.24s.5 4.42 1.5 6.21 2.35 3.18 4.05 4.16c1.7.98 3.6 1.47 5.72 1.47zM1007.08 1318.82l-11.44-30.34h3.93l10.4 28.15h-1.79l10.69-28.15h3.53l10.58 28.15h-1.79l10.58-28.15h3.76l-11.5 30.34h-3.87l-10.17-26.47h1.21l-10.23 26.47h-3.87zM1063.72 1319.11c-3.16 0-5.93-.66-8.32-1.99-2.39-1.33-4.26-3.16-5.61-5.49-1.35-2.33-2.02-5-2.02-8.01s.64-5.66 1.94-7.98c1.29-2.31 3.06-4.13 5.32-5.46s4.79-1.99 7.6-1.99 5.38.65 7.6 1.94c2.22 1.29 3.96 3.1 5.23 5.43 1.27 2.33 1.91 5.02 1.91 8.06 0 .19 0 .4-.03.61-.02.21-.03.43-.03.66h-26.41v-3.06h24.22l-1.62 1.21c0-2.2-.47-4.15-1.42-5.87-.94-1.71-2.23-3.05-3.84-4.02-1.62-.96-3.49-1.44-5.61-1.44s-3.95.48-5.61 1.44c-1.66.96-2.95 2.31-3.87 4.05-.92 1.73-1.39 3.72-1.39 5.95v.64c0 2.31.51 4.34 1.53 6.1 1.02 1.75 2.45 3.12 4.28 4.1 1.83.98 3.92 1.47 6.27 1.47 1.85 0 3.57-.33 5.17-.98 1.6-.65 2.98-1.66 4.13-3.01l2.31 2.66c-1.35 1.62-3.03 2.85-5.06 3.7-2.02.85-4.25 1.27-6.68 1.27zM1093.89 1319.11c-2.51 0-4.87-.36-7.11-1.07-2.24-.71-3.99-1.61-5.26-2.69l1.85-3.24c1.23.92 2.81 1.73 4.74 2.4 1.93.67 3.95 1.01 6.07 1.01 2.89 0 4.97-.45 6.24-1.36 1.27-.9 1.91-2.11 1.91-3.61 0-1.12-.36-1.99-1.07-2.63-.71-.64-1.65-1.12-2.8-1.44-1.16-.33-2.45-.61-3.87-.84-1.43-.23-2.84-.5-4.25-.81-1.41-.31-2.69-.76-3.84-1.36a7.496 7.496 0 0 1-2.8-2.46c-.71-1.04-1.07-2.43-1.07-4.16s.46-3.14 1.39-4.45c.92-1.31 2.28-2.34 4.07-3.09 1.79-.75 3.98-1.13 6.56-1.13 1.97 0 3.93.26 5.9.78s3.58 1.2 4.86 2.05l-1.79 3.29a13.82 13.82 0 0 0-4.33-1.99c-1.54-.4-3.08-.61-4.62-.61-2.74 0-4.75.47-6.04 1.42-1.29.94-1.94 2.15-1.94 3.61 0 1.16.36 2.06 1.07 2.72.71.66 1.66 1.17 2.83 1.53 1.18.37 2.47.66 3.87.9 1.41.23 2.81.51 4.22.84 1.41.33 2.7.77 3.87 1.33 1.18.56 2.12 1.35 2.83 2.37s1.07 2.36 1.07 4.02c0 1.77-.49 3.3-1.47 4.6-.98 1.29-2.41 2.29-4.28 3.01-1.87.71-4.13 1.07-6.79 1.07zM1113.95 1318.82v-42.89h4.1v42.89h-4.1zM1142.39 1319.11c-3.16 0-5.93-.66-8.32-1.99-2.39-1.33-4.26-3.16-5.61-5.49-1.35-2.33-2.02-5-2.02-8.01s.64-5.66 1.94-7.98c1.29-2.31 3.06-4.13 5.32-5.46s4.79-1.99 7.6-1.99 5.38.65 7.6 1.94c2.22 1.29 3.96 3.1 5.23 5.43 1.27 2.33 1.91 5.02 1.91 8.06 0 .19 0 .4-.03.61-.02.21-.03.43-.03.66h-26.41v-3.06h24.22l-1.62 1.21c0-2.2-.47-4.15-1.42-5.87-.94-1.71-2.23-3.05-3.84-4.02-1.62-.96-3.49-1.44-5.61-1.44s-3.95.48-5.61 1.44c-1.66.96-2.95 2.31-3.87 4.05-.92 1.73-1.39 3.72-1.39 5.95v.64c0 2.31.51 4.34 1.53 6.1 1.02 1.75 2.45 3.12 4.28 4.1 1.83.98 3.92 1.47 6.27 1.47 1.85 0 3.57-.33 5.17-.98 1.6-.65 2.98-1.66 4.13-3.01l2.31 2.66c-1.35 1.62-3.03 2.85-5.06 3.7-2.02.85-4.25 1.27-6.68 1.27zM1164.06 1330.32c-1.43 0-2.78-.23-4.07-.69a8.835 8.835 0 0 1-3.32-2.08l1.91-3.06c.77.73 1.61 1.3 2.51 1.71.9.4 1.92.61 3.03.61 1.35 0 2.51-.38 3.5-1.13s1.92-2.07 2.8-3.96l1.97-4.45.46-.64 12.48-28.15h4.05l-15.2 33.99c-.85 1.97-1.78 3.53-2.8 4.68-1.02 1.16-2.13 1.97-3.32 2.46-1.19.48-2.52.72-3.99.72zm8.09-10.64-13.99-31.21h4.28l12.37 27.86-2.66 3.35zM1202.79 1319.11c-2.27 0-4.25-.38-5.92-1.13s-2.96-1.79-3.84-3.12c-.89-1.33-1.33-2.86-1.33-4.6 0-1.58.38-3.01 1.13-4.31.75-1.29 1.98-2.33 3.7-3.12 1.71-.79 4.02-1.18 6.91-1.18h10.46v3.06h-10.35c-2.93 0-4.96.52-6.1 1.56-1.14 1.04-1.71 2.33-1.71 3.87 0 1.73.67 3.12 2.02 4.16s3.24 1.56 5.66 1.56 4.31-.53 5.98-1.59c1.68-1.06 2.9-2.59 3.67-4.6l.92 2.83c-.77 2-2.11 3.6-4.02 4.8-1.91 1.19-4.31 1.79-7.2 1.79zm10.46-.29v-6.7l-.17-1.1v-11.21c0-2.58-.72-4.57-2.17-5.95-1.44-1.39-3.59-2.08-6.44-2.08-1.97 0-3.83.33-5.61.98-1.77.66-3.28 1.52-4.51 2.6l-1.85-3.06c1.54-1.31 3.39-2.32 5.55-3.03 2.16-.71 4.43-1.07 6.82-1.07 3.93 0 6.96.97 9.1 2.92 2.14 1.95 3.21 4.9 3.21 8.87v18.84h-3.93zM1243.82 1288.18c2.47 0 4.63.47 6.5 1.42 1.87.94 3.33 2.38 4.39 4.31 1.06 1.93 1.59 4.35 1.59 7.28v17.63h-4.1v-17.22c0-3.2-.8-5.62-2.4-7.25-1.6-1.64-3.84-2.46-6.73-2.46-2.16 0-4.04.43-5.64 1.3-1.6.87-2.83 2.12-3.7 3.76-.87 1.64-1.3 3.61-1.3 5.92v15.95h-4.1v-30.34h3.93v8.32l-.64-1.56c.96-2.2 2.5-3.92 4.62-5.17s4.64-1.88 7.57-1.88zM1279.77 1319.11c-2.93 0-5.56-.66-7.89-1.99a14.692 14.692 0 0 1-5.52-5.49c-1.35-2.33-2.02-5-2.02-8.01s.67-5.72 2.02-8.03c1.35-2.31 3.18-4.12 5.49-5.43 2.31-1.31 4.95-1.97 7.92-1.97s5.67.66 8.01 1.97c2.33 1.31 4.16 3.12 5.49 5.43s1.99 4.99 1.99 8.03-.66 5.67-1.99 8.01c-1.33 2.33-3.17 4.16-5.52 5.49-2.35 1.33-5.01 1.99-7.98 1.99zm0-3.64c2.2 0 4.14-.49 5.84-1.47 1.7-.98 3.03-2.37 4.02-4.16s1.47-3.86 1.47-6.21-.49-4.47-1.47-6.24c-.98-1.77-2.32-3.15-4.02-4.13-1.7-.98-3.62-1.47-5.78-1.47s-4.08.49-5.78 1.47c-1.7.98-3.04 2.36-4.05 4.13-1 1.77-1.5 3.85-1.5 6.24s.5 4.42 1.5 6.21 2.35 3.18 4.05 4.16c1.7.98 3.6 1.47 5.72 1.47z"/><path d="M552.04 1305.11v24.4c0 .35.28.64.64.64h9.06c.35 0 .64-.28.64-.64v-24.79h6.57c.33 0 .61-.25.63-.58l.63-7.47a.636.636 0 0 0-.63-.69h-7.2v-5.3c0-1.24 1.01-2.25 2.25-2.25h5.06c.35 0 .64-.28.64-.64v-7.47c0-.35-.28-.64-.64-.64h-8.55a9.09 9.09 0 0 0-9.09 9.09v7.2h-4.53c-.35 0-.64.28-.64.64v7.47c0 .35.28.64.64.64h4.53v.4z" fill-rule="evenodd"/><path d="M631.53 1289.87c0 1.65-1.34 2.99-2.99 2.99-1.65 0-2.99-1.34-2.99-2.99 0-1.65 1.34-2.99 2.99-2.99 1.65 0 2.99 1.34 2.99 2.99zm-3.72 13.39c0 6.92-5.63 12.55-12.55 12.55-6.92 0-12.55-5.63-12.55-12.55 0-6.92 5.63-12.55 12.55-12.55 6.92 0 12.55 5.63 12.55 12.55zm-4.51 0c0-4.43-3.61-8.04-8.04-8.04s-8.04 3.61-8.04 8.04 3.61 8.04 8.04 8.04 8.04-3.61 8.04-8.04zm17.36-10.08c0-8.45-6.85-15.31-15.31-15.31h-20.89c-8.45 0-15.31 6.85-15.31 15.31v20.89c0 8.45 6.85 15.31 15.31 15.31h20.89c8.45 0 15.31-6.85 15.31-15.31v-20.89zm-5.03 20.66c0 5.81-4.71 10.51-10.51 10.51H604.7c-5.81 0-10.51-4.71-10.51-10.51v-20.43c0-5.81 4.71-10.51 10.51-10.51h20.42c5.81 0 10.51 4.71 10.51 10.51v20.43z"/><path d="M159.19 160.36h49.7v374.1h-49.7v-374.1zM461.14 160.36h65.2c35.27 0 44.36 11.22 44.36 49.7v135.21c0 38.48-9.09 49.7-44.36 49.7h-15.5v139.49h-49.7v-374.1zm55.05 187.59c3.74 0 4.81-2.14 4.81-8.02V215.41c0-5.88-1.07-8.02-4.81-8.02h-5.34v140.56h5.34zM580.32 160.36h49.7v374.1h-49.7v-374.1zM750.27 498.66c0 13.36 1.07 25.65 5.88 35.81h-51.31c-3.74-6.41-4.28-19.24-4.28-31.53V379.49c0-6.41-2.14-9.62-6.41-9.62h-3.74v164.6h-49.7V160.36h65.2c35.27 0 44.36 11.22 44.36 49.7v88.72c0 29.39-5.34 42.75-23.52 47.56 18.17 4.81 23.52 18.17 23.52 48.1v104.21zm-49.7-283.25c0-5.88-1.07-8.02-4.81-8.02h-5.34v115.44h5.34c3.74 0 4.81-2.14 4.81-8.02v-99.4zM875.33 475.67h49.17v58.79l-43.29 59.32-2.67-1.6 26.72-57.72h-29.93v-58.79zM1148.41 487.43h-18.17l-1.6 47.03h-44.89l24.05-374.1h68.41l24.05 374.1h-49.7l-2.14-47.03zm-16.04-43.82h14.43c-3.21-68.41-5.88-127.73-7.48-202.01-2.14 74.29-4.28 133.61-6.95 202.01zM1335.99 487.43h-18.17l-1.6 47.03h-44.89l24.05-374.1h68.41l24.05 374.1h-49.7l-2.14-47.03zm-16.03-43.82h14.43c-3.21-68.41-5.88-127.73-7.48-202.01-2.14 74.29-4.28 133.61-6.95 202.01zM1393.71 160.36h49.7v327.07h28.32v47.03h-78.03v-374.1zM1477.08 160.36h49.7v374.1h-49.7v-374.1zM1536.4 160.36h89.78v42.22l-43.29 285.39h43.29v46.5h-92.46v-42.22l43.82-285.39h-41.15v-46.5zM1692.99 487.43h-18.17l-1.6 47.03h-44.89l24.05-374.1h68.41l24.05 374.1h-49.7l-2.14-47.03zm-16.04-43.82h14.43c-3.21-68.41-5.88-127.73-7.48-202.01-2.14 74.29-4.28 133.61-6.95 202.01zM307.49 627.99c2.14 29.93 4.28 63.6 5.88 96.2 1.6-32.6 3.74-66.27 5.88-96.2l4.81-59.32h44.89l-33.67 265.08v109.02h-49.7v-113.3l-32.6-260.8h50.24l4.28 59.32zM430.4 942.77v-327.6h-21.38v-46.5h92.46v46.5H480.1v327.6h-49.7zM616.38 906.96c0 13.36 1.07 25.65 5.88 35.81h-51.31c-3.74-6.41-4.28-19.24-4.28-31.53V787.79c0-6.41-2.14-9.62-6.41-9.62h-3.74v164.6h-49.7v-374.1h65.2c35.27 0 44.36 11.22 44.36 49.7v88.72c0 29.39-5.34 42.75-23.52 47.56 18.17 4.81 23.52 18.17 23.52 48.1v104.21zm-49.7-283.25c0-5.88-1.07-8.02-4.81-8.02h-5.34v115.44h5.34c3.74 0 4.81-2.14 4.81-8.02v-99.4z" fill="#142dc0"/><path d="M685.86 895.74h-18.17l-1.6 47.03H621.2l24.05-374.1h68.41l24.05 374.1h-49.7l-2.14-47.03zm-16.04-43.83h14.43c-3.21-68.41-5.88-127.73-7.48-202.01-2.14 74.29-4.28 133.61-6.95 202.01zM793.28 805.95c-3.21-31.53-5.88-62.53-8.55-91.39.53 29.39.53 61.46.53 91.39v136.81h-41.69v-374.1h58.25l6.95 72.15c3.21 32.07 6.41 62.53 9.09 92.46-.54-30.46-.54-61.99-.54-92.46v-72.15h42.22v374.1H806.1l-12.83-136.81zM925.82 820.92c0-19.77-2.14-31.53-20.31-57.18-27.79-40.08-36.34-57.18-36.34-102.08V615.7c0-38.48 9.08-49.7 44.36-49.7h17.64c35.27 0 44.36 11.22 44.36 49.7v81.77h-46.5v-76.42c0-5.88-1.07-8.02-4.81-8.02h-.54c-3.74 0-4.81 2.14-4.81 8.02v47.03c0 20.31 1.6 31.53 19.77 57.72 27.79 39.55 36.88 56.65 36.88 101.54v68.41c0 38.48-9.09 49.7-44.36 49.7h-17.64c-35.27 0-44.36-11.22-44.36-49.7V792.61h46.5v97.8c0 5.88 1.07 8.02 4.81 8.02h.53c3.74 0 4.81-2.14 4.81-8.02v-69.48zM1034.84 730.6h24.05v47.03h-24.05v165.14h-49.7v-374.1h81.77v47.03h-32.07v114.9zM1071.72 615.69c0-38.48 9.09-49.7 44.36-49.7h20.84c1.86-.39 20.4-4.2 34.08 9.03 7.71 7.46 10.28 20.21 10.28 40.68v280.04c0 38.48-9.08 49.7-44.36 49.7h-20.84c-35.27 0-44.36-11.22-44.36-49.7V615.7zm59.85 5.35c0-5.88-1.07-8.02-4.81-8.02h-.54c-.75-.02-1.98.02-2.99.83-1.36 1.09-1.82 3.34-1.82 7.18v269.35c0 5.88 1.07 8.02 4.81 8.02h.53c.75.02 1.98-.02 2.99-.83 1.36-1.09 1.82-3.34 1.82-7.18V621.04zM1300.99 906.96c0 13.36 1.07 25.65 5.88 35.81h-51.31c-3.74-6.41-4.28-19.24-4.28-31.53V787.79c0-6.41-2.14-9.62-6.41-9.62h-3.74v164.6h-49.7v-374.1h65.2c35.27 0 44.36 11.22 44.36 49.7v88.72c0 29.39-5.34 42.75-23.52 47.56 18.17 4.81 23.52 18.17 23.52 48.1v104.21zm-49.7-283.25c0-5.88-1.07-8.02-4.81-8.02h-5.34v115.44h5.34c3.74 0 4.81-2.14 4.81-8.02v-99.4zM401.82 412.61c0-19.77-2.14-31.53-20.31-57.18-27.79-40.08-36.34-57.18-36.34-102.08v-45.96c0-38.48 9.08-49.7 44.36-49.7h17.64c35.27 0 44.36 11.22 44.36 49.7v81.77h-46.5v-76.42c0-5.88-1.07-8.02-4.81-8.02h-.54c-3.74 0-4.81 2.14-4.81 8.02v47.03c0 20.31 1.6 31.53 19.77 57.72 27.79 39.55 36.88 56.65 36.88 101.54v68.41c0 38.48-9.09 49.7-44.36 49.7h-17.64c-35.27 0-44.36-11.22-44.36-49.7V384.29h46.5v97.8c0 5.88 1.07 8.02 4.81 8.02h.53c3.74 0 4.81-2.14 4.81-8.02v-69.48zM1210.94 534.46v-327.6h-21.38v-46.5h92.46v46.5h-21.38v327.6h-49.7zM1538.28 895.74h-18.17l-1.6 47.03h-44.89l24.05-374.1h68.41l24.05 374.1h-49.7l-2.14-47.03zm-16.03-43.83h14.43c-3.21-68.41-5.88-127.73-7.48-202.01-2.14 74.29-4.28 133.61-6.95 202.01zM819.75 487.43h-18.17l-1.6 47.03h-44.89l24.05-374.1h68.41l24.05 374.1h-49.7l-2.14-47.03zm-16.04-43.82h14.43c-3.21-68.41-5.88-127.73-7.48-202.01-2.14 74.29-4.28 133.61-6.95 202.01z" fill="#142dc0"/><path fill="#f3cc5e" d="m-374.487 1.437 2816.19 872.295-15.495 50.025-2816.19-872.295z"/><g><path d="M-345.29 24.96c0-.77-.15-1.72-.72-2.63l-11.97-3.71c-1.81-.56-3.74.45-4.3 2.27l-5.16 16.67c.29-.68.86-1.7 1.72-1.9v.04c.16-.49.44-.82.84-1.13.24-.18.52-.33.79-.45.18-.09.37-.16.57-.23.06-.02.39-.07.43-.13.03-.04 0-.26.01-.3.02-.24.06-.48.12-.72.14-.53.35-1.04.57-1.54.39-.87.84-1.72 1.34-2.54 1.06-1.71 2.43-3.12 4.2-4.08.66-.35 1.34-.62 2.07-.8 1.18-.29 2.46-.34 3.65-.05 2.16.52 4.45 1.65 5.24 3.9v-.01c.1-.22.58-1.32.59-2.66z" fill="#fff"/><g clip-path="url(#a)"><path d="M-345.29 24.96c0-.77-.15-1.72-.72-2.63l-11.97-3.71c-1.81-.56-3.74.45-4.3 2.27l-5.16 16.67c.29-.68.86-1.7 1.72-1.9v.04c.16-.49.44-.82.84-1.13.24-.18.52-.33.79-.45.18-.09.37-.16.57-.23.06-.02.39-.07.43-.13.03-.04 0-.26.01-.3.02-.24.06-.48.12-.72.14-.53.35-1.04.57-1.54.39-.87.84-1.72 1.34-2.54 1.06-1.71 2.43-3.12 4.2-4.08.66-.35 1.34-.62 2.07-.8 1.18-.29 2.46-.34 3.65-.05 2.16.52 4.45 1.65 5.24 3.9v-.01c.1-.22.58-1.32.59-2.66z" fill="#fff"/><image width="395" height="382" transform="matrix(.24 0 0 .24 -403.68 -18)" xlink:href="Eslogan-1.png" opacity=".4"/><path d="M-369.83 28.72s6.25-7.11 18.35-6.66c12.1.45 22.5-1.48 26.77-2.79 4.28-1.32-.21-5.95-.21-5.95l-47.42 1.6 2.51 13.8z" fill="#fff" opacity=".2"/></g><path d="m-341.88 23.55-1.66-.51c.04 1.22-.23 3.64-2.18 5.04.22.72.31 1.52.3 2.27 0 .41-.08.85-.06 1.26.01.3.14.59.17.89.07.59-.31 1.24-.71 1.65a.12.12 0 0 0-.05.05s.1.17.14.2c.07.12.09.18.13.33.1.46.19.91.28 1.37.11.54.27 1.1.32 1.66 0-.01 0-.01 0 0 0 .1 0 .04 0 0 .05.79-.47 1.24-1.23 1-.2-.06-.41-.13-.61-.2-.15-.05-.39-.21-.48-.09-.11.29 0 .56-.24.82-.11.12-.07.35-.15.51-.08.18-.23.34-.4.44-.22.15-.7.16-.69.49 0 .26.12.68.08.98-.03.31-.2.48-.41.67-.57.54-1.15.22-1.71-.06-.47-.22-.95-.41-1.47-.47-.42-.05-1.19-.07-1.22.51-.03.66-.14 1.31-.27 1.95-.15.79-.38 1.6-.32 2.42.05.67.29 1.26.53 1.88-.91-.16-1.81-.32-2.68-.67-.62-.25-1.24-.59-1.69-1.1-.21-.25-.51-.68-.41-1.01.14-.5.45-1.02.66-1.49.19-.44.43-.89.59-1.36-.74 1.12-2.97 4.2-5.91 5.1l12.52 3.88c1.81.56 3.78-.47 4.34-2.28l6.75-21.79c.56-1.81-.47-3.8-2.28-4.36z" fill="#fff"/><g clip-path="url(#b)"><path fill="#fff" d="m-373.075 47.165 10.003-32.296 27.186 8.42-10.003 32.297z"/><image width="405" height="424" transform="matrix(.24 0 0 .24 -400.32 -13.2)" xlink:href="Eslogan-2.png" opacity=".4"/><path d="M-341.6 37.48s-3.45 8.82-14.98 12.52c-11.53 3.7-20.64 9.06-24.21 11.76-3.57 2.7 2.22 5.52 2.22 5.52l44.03-17.68-7.06-12.12z" fill="#fff" opacity=".2"/><path d="M-340.25 34.87s-3.68 8.72-15.3 12.12c-11.62 3.4-20.88 8.51-24.52 11.11-3.64 2.6 2.08 5.58 2.08 5.58l44.49-16.51-6.74-12.3z" fill="#fff" opacity=".2"/></g><path d="M-356.96 41.09s-.07.1-.1.14c-.1.1-.18-.02-.3-.09-.82-.51-1.88-1.19-2.88-1.15.9.43 1.65 1.18 2.42 1.81.14.12.28.23.41.34.04.03.13.14.18.13.15-.04.3-.08.44-.14.72-.4 1.02-1.26 1.2-2.02l.04-.15c.03-.13.09-.31.07-.44-.14-.75-.74-1.32-1.34-1.75-.71-.51-1.53-.93-2.37-1.17.28.25.57.5.85.75.39.36.79.7 1.15 1.09.22.23.83.8.75 1.15-.08.36-.18.71-.31 1.05-.06.15-.13.29-.21.43z" fill="#fff"/><g clip-path="url(#c)"><path fill="#fff" d="m-373.075 47.165 10.003-32.296 27.186 8.42-10.003 32.297z"/></g><g><path d="M-353.05 33.92c.44.27 1.07.26 1.54.07.74-.29 1.18-1.01 1.37-1.74.03-.1.05-.21.07-.32.03-.15.09-.19.2-.3.18-.19.37-.37.55-.56.32-.34.64-.69.95-1.05-.05.06-.07.08.05-.05.08-.1.1-.11.08-.09.57-.66 1.13-1.33 1.6-2.06-1.39.86-2.65 1.98-3.83 3.1-.13.12-.47.34-.49.53-.03.31-.09.62-.2.91-.19.5-.5.84-1.02 1.01h.03c-.22.03-.42.06-.64-.01-.6-.19-.52-1.08-.21-1.48-.81.38-.75 1.61-.04 2.05z" fill="#fff"/><g clip-path="url(#d)"><path fill="#fff" d="m-373.075 47.165 10.003-32.296 27.186 8.42-10.003 32.297z"/></g></g><g><path d="M-353.74 41.48c0-.06-.01-.12-.03-.18-.02-.06-.03-.13-.06-.2s-.05-.14-.09-.21c-.03-.07-.07-.14-.11-.2a2.43 2.43 0 0 0-.6-.63c-.1-.07-.19-.12-.25-.16-.03-.02-.06-.03-.08-.04-.02 0-.03-.01-.03-.01l-.18.54h.02c.01 0 .03 0 .06.01.05.01.13.04.22.07.18.07.42.2.62.39.05.05.1.1.14.15.05.05.08.11.12.16.04.05.06.11.09.16s.05.11.07.16c.02.05.04.1.05.14.01.04.02.08.03.11.02.06.02.1.02.1v-.22c0-.05-.01-.1-.02-.15z" fill="#fff"/><g clip-path="url(#e)"><path fill="#fff" d="m-373.075 47.165 10.003-32.296 27.186 8.42-10.003 32.297z"/></g></g><g fill="#fff"><path d="m-317.43 57.51 4.97-16.15-12.12 11.19-.67-.21-3.69-16.03-4.98 16.09-1.35-.42 5.84-18.86 1.16.36 3.92 17.19 12.95-11.96 1.13.35-5.82 18.87-1.35-.42zM-296.11 62.76l-.38 1.24-13.01-4.03 5.84-18.86 12.61 3.91-.38 1.24-11.24-3.48-2.3 7.44 10.05 3.11-.38 1.21-10.05-3.11-2.4 7.73 11.64 3.61zM-270.29 51.44l-5.84 18.86-1.13-.35-7.78-20.36-5.07 16.38-1.37-.43 5.84-18.86 1.16.36 7.75 20.36 5.07-16.38 1.37.43zM-260.49 55.84l-6.79-2.1.38-1.24 14.95 4.63-.38 1.24-6.79-2.1-5.46 17.62-1.37-.43 5.46-17.62zM-241 79.83l-.38 1.24-13.01-4.03 5.84-18.86 12.61 3.91-.38 1.24-11.24-3.48-2.3 7.44 10.05 3.11-.38 1.21-10.05-3.11-2.4 7.73 11.64 3.61zM-211.22 76.71c-1.23 3.96-4.82 5.45-9.56 3.98l-5.39-1.67-1.91 6.17-1.37-.43 5.84-18.86 6.76 2.09c4.74 1.47 6.86 4.72 5.63 8.71zm-1.4-.43c1.01-3.26-.57-5.79-4.61-7.04l-5.39-1.67-3.16 10.21 5.39 1.67c4.04 1.25 6.77.06 7.78-3.17zM-197.36 94.7l-2.55-7.7c-.62-.1-1.23-.23-1.87-.43l-5.39-1.67-1.91 6.17-1.37-.43 5.84-18.86 6.76 2.09c4.74 1.47 6.86 4.72 5.63 8.71-.93 2.99-3.19 4.56-6.25 4.53l2.67 8.06-1.56-.48zm-4.05-9.34c4.04 1.25 6.78.03 7.78-3.2s-.57-5.79-4.61-7.04l-5.39-1.67-3.17 10.24 5.39 1.67zM-177.67 99.45l-.38 1.24-13.01-4.03 5.84-18.86 12.61 3.91-.38 1.24-11.24-3.48-2.3 7.44 10.05 3.11-.38 1.21-10.05-3.11-2.4 7.73 11.64 3.61zM-154.81 94.18c-1.23 3.96-4.82 5.45-9.56 3.98l-5.39-1.67-1.91 6.17-1.37-.43 5.84-18.86 6.76 2.09c4.74 1.47 6.86 4.72 5.63 8.71zm-1.4-.43c1.01-3.26-.57-5.79-4.61-7.04l-5.39-1.67-3.16 10.21 5.39 1.67c4.04 1.25 6.77.06 7.78-3.17zM-141.68 106.13l-10.94-3.39-4.04 4.57-1.48-.46 14.52-16.17 1.37.43 2.83 21.55-1.48-.46-.78-6.06zm-.16-1.31-1.59-12.42-8.3 9.36 9.89 3.06zM-122.91 117.77l-2.55-7.7c-.62-.1-1.23-.23-1.87-.43l-5.39-1.67-1.91 6.17-1.37-.43 5.84-18.86 6.76 2.09c4.74 1.47 6.86 4.72 5.63 8.71-.93 2.99-3.19 4.56-6.25 4.53l2.67 8.06-1.56-.48zm-4.04-9.35c4.04 1.25 6.78.03 7.78-3.2 1.01-3.26-.57-5.79-4.61-7.04l-5.39-1.67-3.17 10.24 5.39 1.67zM-103.29 118.02l-10.94-3.39-4.04 4.57-1.48-.46 14.52-16.17 1.37.43 2.83 21.55-1.48-.46-.78-6.06zm-.16-1.31-1.59-12.42-8.3 9.36 9.89 3.06zM-91.77 106.74l7.46 2.31c5.98 1.85 8.81 7.04 7.1 12.54-1.7 5.5-6.96 8.18-12.94 6.33l-7.46-2.31 5.84-18.86zm1.9 19.9c5.33 1.65 9.81-.68 11.29-5.48s-.89-9.25-6.22-10.9l-5.98-1.85-5.07 16.38 5.98 1.85zM-62.32 130.71l-10.94-3.39-4.04 4.57-1.48-.46 14.52-16.17 1.37.43 2.83 21.55-1.48-.46-.78-6.06zm-.15-1.31-1.59-12.42-8.3 9.36 9.89 3.06zM-54.86 137.69c-.13.4-.29.65-.63 1.16l-2.19 3.34-.97-.3 2.07-3.52c-.5-.3-.72-.82-.55-1.38.2-.65.84-.98 1.48-.78s.96.89.78 1.48zM-42.3 132.4c1.7-5.5 7.14-8.27 12.74-6.54 2.67.83 4.8 2.43 5.9 4.69l-1.14.62c-1.12-2.09-2.89-3.35-5.1-4.03-4.82-1.49-9.56.94-11.03 5.68s1.07 9.42 5.89 10.92c2.21.68 4.38.62 6.49-.47l.59 1.16c-2.19 1.24-4.86 1.39-7.53.56-5.6-1.74-8.52-7.1-6.82-12.59zM-23.42 138.25c1.69-5.47 7.14-8.27 12.77-6.53 5.6 1.74 8.55 7.11 6.85 12.6s-7.17 8.26-12.77 6.53c-5.63-1.74-8.54-7.13-6.85-12.6zm18.22 5.64c1.48-4.77-1.04-9.42-5.84-10.9s-9.53.92-11.01 5.69 1.04 9.42 5.86 10.91c4.8 1.49 9.5-.93 10.98-5.69zM11.14 159.29l-2.55-7.7c-.62-.1-1.23-.23-1.87-.43l-5.39-1.67-1.91 6.17-1.37-.43 5.84-18.86 6.76 2.09c4.74 1.47 6.86 4.72 5.63 8.71-.93 2.99-3.19 4.56-6.25 4.53l2.67 8.06-1.56-.48zm-4.05-9.35c4.04 1.25 6.78.03 7.78-3.2s-.57-5.79-4.61-7.04l-5.39-1.67-3.17 10.24 5.39 1.67zM30.75 159.54l-10.94-3.39-4.04 4.57-1.48-.46 14.52-16.17 1.37.43 2.83 21.55-1.48-.46-.78-6.06zm-.15-1.31-1.59-12.42-8.3 9.36 9.89 3.06zM49.99 169.96l-.38 1.24-15.2-4.71.3-.97 18.17-12.62-12.85-3.98.38-1.24 14.74 4.57-.3.97-18.15 12.63 13.28 4.11zM54.71 162.45c1.69-5.47 7.14-8.27 12.77-6.53 5.6 1.74 8.55 7.11 6.85 12.6-1.7 5.5-7.17 8.26-12.77 6.53s-8.54-7.13-6.85-12.6zm18.21 5.64c1.48-4.77-1.04-9.42-5.84-10.9-4.82-1.49-9.53.92-11 5.69-1.48 4.77 1.04 9.42 5.86 10.91 4.8 1.49 9.5-.93 10.98-5.69zm-1.81-16.07 1.94.6-5.22 1.87-1.46-.45 4.73-2.02zM97.37 165.32l-5.84 18.86-1.13-.35-7.78-20.36-5.07 16.38-1.37-.43 5.84-18.86 1.16.36 7.75 20.36L96 164.9l1.37.43zM118.33 186.67l-10.94-3.39-4.04 4.57-1.48-.46 14.52-16.17 1.37.43 2.83 21.55-1.48-.46-.78-6.06zm-.15-1.32-1.59-12.42-8.3 9.36 9.89 3.06zM137.1 198.3l-2.55-7.7c-.62-.1-1.23-.23-1.87-.43l-5.39-1.67-1.91 6.17-1.37-.43 5.84-18.86 6.76 2.09c4.74 1.47 6.86 4.72 5.63 8.71-.93 2.99-3.19 4.56-6.25 4.53l2.67 8.06-1.56-.48zm-4.04-9.34c4.04 1.25 6.78.03 7.78-3.2s-.57-5.79-4.61-7.04l-5.39-1.67-3.17 10.24 5.39 1.67zM149.25 181.39l7.46 2.31c5.98 1.85 8.81 7.04 7.1 12.54s-6.96 8.18-12.94 6.33l-7.46-2.31 5.84-18.86zm1.89 19.9c5.33 1.65 9.81-.68 11.29-5.48 1.49-4.8-.89-9.25-6.22-10.9l-5.98-1.85-5.07 16.38 5.98 1.85zM171.5 188.29l1.37.43-5.84 18.86-1.37-.43 5.84-18.86zM187 212.4l-.38 1.24-13.01-4.03 5.84-18.86 12.61 3.91-.38 1.24-11.24-3.48-2.3 7.44 10.05 3.11-.38 1.21-10.05-3.11-2.4 7.73 11.64 3.61zM212.83 201.09l-5.84 18.86-1.13-.35-7.78-20.36-5.07 16.38-1.37-.43 5.84-18.86 1.16.36 7.75 20.36 5.07-16.38 1.37.43zM222.62 205.48l-6.79-2.1.38-1.24 14.95 4.63-.38 1.24-6.79-2.1-5.46 17.62-1.37-.43 5.46-17.62zM242.12 229.47l-.38 1.24-13.01-4.03 5.84-18.86 12.61 3.91-.38 1.24-11.24-3.48-2.3 7.44 10.05 3.11-.38 1.21-10.05-3.11-2.4 7.73 11.64 3.61z"/></g><g><path d="M279.13 218.37c0-.77-.15-1.72-.72-2.63l-11.97-3.71c-1.81-.56-3.74.45-4.3 2.27l-5.16 16.67c.29-.68.86-1.7 1.72-1.9v.04c.16-.49.44-.82.84-1.13.24-.18.52-.33.79-.45.18-.09.37-.16.57-.23.06-.02.39-.07.43-.13.03-.04 0-.26.01-.3.02-.24.06-.48.12-.72.14-.53.35-1.04.57-1.54.39-.87.84-1.72 1.34-2.54 1.06-1.71 2.43-3.12 4.2-4.08.66-.35 1.34-.62 2.07-.8 1.18-.29 2.46-.34 3.65-.05 2.16.52 4.45 1.65 5.24 3.9v-.01c.1-.22.58-1.32.59-2.66z" fill="#fff"/><g clip-path="url(#f)"><path d="M279.13 218.37c0-.77-.15-1.72-.72-2.63l-11.97-3.71c-1.81-.56-3.74.45-4.3 2.27l-5.16 16.67c.29-.68.86-1.7 1.72-1.9v.04c.16-.49.44-.82.84-1.13.24-.18.52-.33.79-.45.18-.09.37-.16.57-.23.06-.02.39-.07.43-.13.03-.04 0-.26.01-.3.02-.24.06-.48.12-.72.14-.53.35-1.04.57-1.54.39-.87.84-1.72 1.34-2.54 1.06-1.71 2.43-3.12 4.2-4.08.66-.35 1.34-.62 2.07-.8 1.18-.29 2.46-.34 3.65-.05 2.16.52 4.45 1.65 5.24 3.9v-.01c.1-.22.58-1.32.59-2.66z" fill="#fff"/><image width="396" height="382" transform="matrix(.24 0 0 .24 220.56 175.44)" xlink:href="Eslogan-3.png" opacity=".4"/><path d="M254.59 222.14s6.25-7.11 18.35-6.66c12.1.45 22.5-1.48 26.77-2.79 4.28-1.32-.21-5.95-.21-5.95l-47.42 1.6 2.51 13.8z" fill="#fff" opacity=".2"/></g><path d="m282.54 216.97-1.66-.51c.04 1.22-.23 3.64-2.18 5.04.22.72.31 1.52.3 2.27 0 .41-.08.85-.06 1.26.01.3.14.59.17.89.07.59-.31 1.24-.71 1.65a.12.12 0 0 0-.05.05s.1.17.14.2c.07.12.09.18.13.33.1.46.19.91.28 1.37.11.54.27 1.1.32 1.66 0-.01 0-.01 0 0 0 .1 0 .04 0 0 .05.79-.47 1.24-1.23 1-.2-.06-.41-.13-.61-.2-.15-.05-.39-.21-.48-.09-.11.29 0 .56-.24.82-.11.12-.07.35-.15.51-.08.18-.23.34-.4.44-.22.15-.7.16-.69.49 0 .26.12.68.08.98-.03.31-.2.48-.41.67-.57.54-1.15.22-1.71-.06-.47-.22-.95-.41-1.47-.47-.42-.05-1.19-.07-1.22.51-.03.66-.14 1.31-.27 1.95-.15.79-.38 1.6-.32 2.42.05.67.29 1.26.53 1.88-.91-.16-1.81-.32-2.68-.67-.62-.25-1.24-.59-1.69-1.1-.21-.25-.51-.68-.41-1.01.14-.5.45-1.02.66-1.49.19-.44.43-.89.59-1.36-.74 1.12-2.97 4.2-5.91 5.1l12.52 3.88c1.81.56 3.78-.47 4.34-2.28l6.75-21.79c.56-1.81-.47-3.8-2.28-4.36z" fill="#fff"/><g clip-path="url(#g)"><path fill="#fff" d="m251.335 240.577 10.004-32.296 27.186 8.42-10.004 32.297z"/><image width="404" height="424" transform="matrix(.24 0 0 .24 224.16 180.24)" xlink:href="Eslogan-4.png" opacity=".4"/><path d="M282.82 230.9s-3.45 8.82-14.98 12.52c-11.53 3.7-20.64 9.06-24.21 11.76-3.57 2.7 2.22 5.52 2.22 5.52l44.03-17.68-7.06-12.12z" fill="#fff" opacity=".2"/><path d="M284.17 228.28s-3.68 8.72-15.3 12.12c-11.62 3.4-20.88 8.51-24.52 11.11-3.64 2.6 2.08 5.58 2.08 5.58l44.49-16.51-6.74-12.3z" fill="#fff" opacity=".2"/></g><path d="M267.46 234.5s-.07.1-.1.14c-.1.1-.18-.02-.3-.09-.82-.51-1.88-1.19-2.88-1.15.9.43 1.65 1.18 2.42 1.81.14.12.28.23.41.34.04.03.13.14.18.13.15-.04.3-.08.44-.14.72-.4 1.02-1.26 1.2-2.02l.04-.15c.03-.13.09-.31.07-.44-.14-.75-.74-1.32-1.34-1.75-.71-.51-1.53-.93-2.37-1.17.28.25.57.5.85.75.39.36.79.7 1.15 1.09.22.23.83.8.75 1.15-.08.36-.18.71-.31 1.05-.06.15-.13.29-.21.43z" fill="#fff"/><g clip-path="url(#h)"><path fill="#fff" d="m251.335 240.577 10.004-32.296 27.186 8.42-10.004 32.297z"/></g><g><path d="M271.37 227.33c.44.27 1.07.26 1.54.07.74-.29 1.18-1.01 1.37-1.74.03-.1.05-.21.07-.32.03-.15.09-.19.2-.3.18-.19.37-.37.55-.56.32-.34.64-.69.95-1.05-.05.06-.07.08.05-.05.08-.1.1-.11.08-.09.57-.66 1.13-1.33 1.6-2.06-1.39.86-2.65 1.98-3.83 3.1-.13.12-.47.34-.49.53-.03.31-.09.62-.2.91-.19.5-.5.84-1.02 1.01h.03c-.22.03-.42.06-.64-.01-.6-.19-.52-1.08-.21-1.48-.81.38-.75 1.61-.04 2.05z" fill="#fff"/><g clip-path="url(#i)"><path fill="#fff" d="m251.335 240.577 10.004-32.296 27.186 8.42-10.004 32.297z"/></g></g><g><path d="M270.68 234.89c0-.06-.01-.12-.03-.18-.02-.06-.03-.13-.06-.2s-.05-.14-.09-.21c-.03-.07-.07-.14-.11-.2a2.43 2.43 0 0 0-.6-.63c-.1-.07-.19-.12-.25-.16-.03-.02-.06-.03-.08-.04-.02 0-.03-.01-.03-.01l-.18.54h.02c.01 0 .03 0 .06.01.05.01.13.04.22.07.18.07.42.2.62.39.05.05.1.1.14.15.05.05.08.11.12.16.04.05.06.11.09.16s.05.11.07.16c.02.05.04.1.05.14.01.04.02.08.03.11.02.06.02.1.02.1v-.22c0-.05-.01-.1-.02-.15z" fill="#fff"/><g clip-path="url(#j)"><path fill="#fff" d="m251.335 240.577 10.004-32.296 27.186 8.42-10.004 32.297z"/></g></g></g><g fill="#fff"><path d="m306.99 250.93 4.97-16.15-12.12 11.19-.67-.21-3.69-16.03-4.98 16.09-1.35-.42 5.84-18.86 1.16.36 3.92 17.19 12.95-11.96 1.13.35-5.82 18.87-1.35-.42zM328.3 256.17l-.38 1.24-13.01-4.03 5.84-18.86 12.61 3.91-.38 1.24-11.24-3.48-2.3 7.44 10.05 3.11-.38 1.21-10.05-3.11-2.4 7.73 11.64 3.61zM354.13 244.86l-5.84 18.86-1.13-.35-7.78-20.36-5.07 16.38-1.37-.43 5.84-18.86 1.16.36 7.75 20.36 5.07-16.38 1.37.43zM363.92 249.25l-6.79-2.1.38-1.24 14.95 4.63-.38 1.24-6.79-2.1-5.46 17.62-1.37-.43 5.46-17.62zM383.42 273.24l-.38 1.24-13.01-4.03 5.84-18.86 12.61 3.91-.38 1.24-11.24-3.48-2.3 7.44 10.05 3.11-.38 1.21-10.05-3.11-2.4 7.73 11.64 3.61zM413.2 270.12c-1.23 3.96-4.82 5.45-9.56 3.98l-5.39-1.67-1.91 6.17-1.37-.43 5.84-18.86 6.76 2.09c4.74 1.47 6.86 4.72 5.63 8.71zm-1.4-.43c1.01-3.26-.57-5.79-4.61-7.04l-5.39-1.67-3.16 10.21 5.39 1.67c4.04 1.25 6.77.06 7.78-3.17zM427.05 288.12l-2.55-7.7c-.62-.1-1.23-.23-1.87-.43l-5.39-1.67-1.91 6.17-1.37-.43 5.84-18.86 6.76 2.09c4.74 1.47 6.86 4.72 5.63 8.71-.93 2.99-3.19 4.56-6.25 4.53l2.67 8.06-1.56-.48zm-4.04-9.35c4.04 1.25 6.78.03 7.78-3.2s-.57-5.79-4.61-7.04l-5.39-1.67-3.17 10.24 5.39 1.67zM446.75 292.86l-.38 1.24-13.01-4.03 5.84-18.86 12.61 3.91-.38 1.24-11.24-3.48-2.3 7.44 10.05 3.11-.38 1.21-10.05-3.11-2.4 7.73 11.64 3.61zM469.61 287.59c-1.23 3.96-4.82 5.45-9.56 3.98l-5.39-1.67-1.91 6.17-1.37-.43 5.84-18.86 6.76 2.09c4.74 1.47 6.86 4.72 5.63 8.71zm-1.4-.43c1.01-3.26-.57-5.79-4.61-7.04l-5.39-1.67-3.16 10.21 5.39 1.67c4.04 1.25 6.77.06 7.78-3.17zM482.74 299.55l-10.94-3.39-4.04 4.57-1.48-.46 14.52-16.17 1.37.43 2.83 21.55-1.48-.46-.78-6.06zm-.16-1.32-1.59-12.42-8.3 9.36 9.89 3.06zM501.51 311.18l-2.55-7.7c-.62-.1-1.23-.23-1.87-.43l-5.39-1.67-1.91 6.17-1.37-.43 5.84-18.86 6.76 2.09c4.74 1.47 6.86 4.72 5.63 8.71-.93 2.99-3.19 4.56-6.25 4.53l2.67 8.06-1.56-.48zm-4.04-9.35c4.04 1.25 6.78.03 7.78-3.2s-.57-5.79-4.61-7.04l-5.39-1.67-3.17 10.24 5.39 1.67zM521.12 311.44l-10.94-3.39-4.04 4.57-1.48-.46 14.52-16.17 1.37.43 2.83 21.55-1.48-.46-.78-6.06zm-.15-1.32-1.59-12.42-8.3 9.36 9.89 3.06zM532.65 300.15l7.46 2.31c5.98 1.85 8.81 7.04 7.1 12.54s-6.96 8.18-12.94 6.33l-7.46-2.31 5.84-18.86zm1.89 19.9c5.33 1.65 9.81-.68 11.29-5.48 1.49-4.8-.89-9.25-6.22-10.9l-5.98-1.85-5.07 16.38 5.98 1.85zM562.1 324.13l-10.94-3.39-4.04 4.57-1.48-.46 14.52-16.17 1.37.43 2.83 21.55-1.48-.46-.78-6.06zm-.16-1.32-1.59-12.42-8.3 9.36 9.89 3.06zM569.56 331.1c-.13.4-.29.65-.63 1.16l-2.19 3.34-.97-.3 2.07-3.52c-.5-.3-.72-.82-.55-1.38.2-.65.84-.98 1.48-.78s.96.89.78 1.48zM582.12 325.81c1.7-5.5 7.14-8.27 12.74-6.54 2.67.83 4.8 2.43 5.9 4.69l-1.14.62c-1.12-2.09-2.89-3.35-5.1-4.03-4.82-1.49-9.56.94-11.03 5.68-1.47 4.74 1.07 9.42 5.89 10.92 2.21.68 4.38.62 6.49-.47l.59 1.16c-2.19 1.24-4.86 1.39-7.53.56-5.6-1.74-8.52-7.1-6.82-12.59zM601 331.66c1.69-5.47 7.14-8.27 12.77-6.53 5.6 1.74 8.55 7.11 6.85 12.6-1.7 5.5-7.17 8.26-12.77 6.53-5.63-1.74-8.54-7.13-6.85-12.6zm18.22 5.64c1.48-4.77-1.04-9.42-5.84-10.9-4.82-1.49-9.53.92-11.01 5.69s1.04 9.42 5.86 10.91 9.5-.93 10.98-5.69zM635.56 352.7l-2.55-7.7c-.62-.1-1.23-.23-1.87-.43l-5.39-1.67-1.91 6.17-1.37-.43 5.84-18.86 6.76 2.09c4.74 1.47 6.86 4.72 5.63 8.71-.93 2.99-3.19 4.56-6.25 4.53l2.67 8.06-1.56-.48zm-4.05-9.35c4.04 1.25 6.78.03 7.78-3.2 1.01-3.26-.57-5.79-4.61-7.04l-5.39-1.67-3.17 10.24 5.39 1.67zM655.17 352.96l-10.94-3.39-4.04 4.57-1.48-.46 14.52-16.17 1.37.43 2.83 21.55-1.48-.46-.78-6.06zm-.15-1.32-1.59-12.42-8.3 9.36 9.89 3.06zM674.41 363.38l-.38 1.24-15.2-4.71.3-.97 18.17-12.62-12.85-3.98.38-1.24 14.74 4.57-.3.97-18.15 12.63 13.28 4.11zM679.13 355.86c1.69-5.47 7.14-8.27 12.77-6.53 5.6 1.74 8.55 7.11 6.85 12.6-1.7 5.5-7.17 8.26-12.77 6.53s-8.54-7.13-6.85-12.6zm18.21 5.64c1.48-4.77-1.04-9.42-5.84-10.9s-9.53.92-11 5.69c-1.48 4.77 1.04 9.42 5.86 10.91 4.8 1.49 9.5-.93 10.98-5.69zm-1.81-16.07 1.94.6-5.22 1.87-1.46-.45 4.73-2.02zM721.79 358.74l-5.84 18.86-1.13-.35-7.78-20.36-5.07 16.38-1.37-.43 5.84-18.86 1.16.36 7.75 20.36 5.07-16.38 1.37.43zM742.75 380.08l-10.94-3.39-4.04 4.57-1.48-.46 14.52-16.17 1.37.43 2.83 21.55-1.48-.46-.78-6.06zm-.16-1.31L741 366.35l-8.3 9.36 9.89 3.06zM761.52 391.72l-2.55-7.7c-.62-.1-1.23-.23-1.87-.43l-5.39-1.67-1.91 6.17-1.37-.43 5.84-18.86 6.76 2.09c4.74 1.47 6.86 4.72 5.63 8.71-.93 2.99-3.19 4.56-6.25 4.53l2.67 8.06-1.56-.48zm-4.04-9.35c4.04 1.25 6.78.03 7.78-3.2s-.57-5.79-4.61-7.04l-5.39-1.67-3.17 10.24 5.39 1.67zM773.67 374.81l7.46 2.31c5.98 1.85 8.81 7.04 7.1 12.54-1.7 5.5-6.96 8.18-12.94 6.33l-7.46-2.31 5.84-18.86zm1.89 19.9c5.33 1.65 9.81-.68 11.29-5.48 1.49-4.8-.89-9.25-6.22-10.9l-5.98-1.85-5.07 16.38 5.98 1.85zM795.92 381.7l1.37.43-5.84 18.86-1.37-.43 5.84-18.86zM811.42 405.81l-.38 1.24-13.01-4.03 5.84-18.86 12.61 3.91-.38 1.24-11.24-3.48-2.3 7.44 10.05 3.11-.38 1.21-10.05-3.11-2.4 7.73 11.64 3.61zM837.24 394.5l-5.84 18.86-1.13-.35-7.78-20.36-5.07 16.38-1.37-.43 5.84-18.86 1.16.36 7.75 20.36 5.07-16.38 1.37.43zM847.04 398.89l-6.79-2.1.38-1.24 14.95 4.63-.38 1.24-6.79-2.1-5.46 17.62-1.37-.43 5.46-17.62zM866.54 422.89l-.38 1.24-13.01-4.03 5.84-18.86 12.61 3.91-.38 1.24-11.24-3.48-2.3 7.44 10.05 3.11-.38 1.21-10.05-3.11-2.4 7.73 11.64 3.61z"/></g></g><g><path d="M980.27 437.99c0-.77-.15-1.72-.72-2.63l-11.97-3.71c-1.81-.56-3.74.45-4.3 2.27l-5.16 16.67c.29-.68.86-1.7 1.72-1.9v.04c.16-.49.44-.82.84-1.13.24-.18.52-.33.79-.45.18-.09.37-.16.57-.23.06-.02.39-.07.43-.13.03-.04 0-.26.01-.3.02-.24.06-.48.12-.72.14-.53.35-1.04.57-1.54.39-.87.84-1.72 1.34-2.54 1.06-1.71 2.43-3.12 4.2-4.08.66-.35 1.34-.62 2.07-.8 1.18-.29 2.46-.34 3.65-.05 2.16.52 4.45 1.65 5.24 3.9v-.01c.1-.22.58-1.32.59-2.66z" fill="#fff"/><g clip-path="url(#k)"><path d="M980.27 437.99c0-.77-.15-1.72-.72-2.63l-11.97-3.71c-1.81-.56-3.74.45-4.3 2.27l-5.16 16.67c.29-.68.86-1.7 1.72-1.9v.04c.16-.49.44-.82.84-1.13.24-.18.52-.33.79-.45.18-.09.37-.16.57-.23.06-.02.39-.07.43-.13.03-.04 0-.26.01-.3.02-.24.06-.48.12-.72.14-.53.35-1.04.57-1.54.39-.87.84-1.72 1.34-2.54 1.06-1.71 2.43-3.12 4.2-4.08.66-.35 1.34-.62 2.07-.8 1.18-.29 2.46-.34 3.65-.05 2.16.52 4.45 1.65 5.24 3.9v-.01c.1-.22.58-1.32.59-2.66z" fill="#fff"/><image width="395" height="382" transform="matrix(.24 0 0 .24 921.84 395.04)" xlink:href="Eslogan-5.png" opacity=".4"/><path d="M955.73 441.75s6.25-7.11 18.35-6.66c12.1.45 22.5-1.48 26.77-2.79 4.28-1.32-.21-5.95-.21-5.95l-47.42 1.6 2.51 13.8z" fill="#fff" opacity=".2"/></g><path d="m983.68 436.58-1.66-.51c.04 1.22-.23 3.64-2.18 5.04.22.72.31 1.52.3 2.27 0 .41-.08.85-.06 1.26.01.3.14.59.17.89.07.59-.31 1.24-.71 1.65a.12.12 0 0 0-.05.05s.1.17.14.2c.07.12.09.18.13.33.1.46.19.91.28 1.37.11.54.27 1.1.32 1.66 0-.01 0-.01 0 0 0 .1 0 .04 0 0 .05.79-.47 1.24-1.23 1-.2-.06-.41-.13-.61-.2-.15-.05-.39-.21-.48-.09-.11.29 0 .56-.24.82-.11.12-.07.35-.15.51-.08.18-.23.34-.4.44-.22.15-.7.16-.69.49 0 .26.12.68.08.98-.03.31-.2.48-.41.67-.57.54-1.15.22-1.71-.06-.47-.22-.95-.41-1.47-.47-.42-.05-1.19-.07-1.22.51-.03.66-.14 1.31-.27 1.95-.15.79-.38 1.6-.32 2.42.05.67.29 1.26.53 1.88-.91-.16-1.81-.32-2.68-.67-.62-.25-1.24-.59-1.69-1.1-.21-.25-.51-.68-.41-1.01.14-.5.45-1.02.66-1.49.19-.44.43-.89.59-1.36-.74 1.12-2.97 4.2-5.91 5.1l12.52 3.88c1.81.56 3.78-.47 4.34-2.28l6.75-21.79c.56-1.81-.47-3.8-2.28-4.36z" fill="#fff"/><g clip-path="url(#l)"><path fill="#fff" d="m952.472 460.187 10.004-32.296 27.186 8.42-10.004 32.296z"/><image width="404" height="424" transform="matrix(.24 0 0 .24 925.44 399.84)" xlink:href="Eslogan-6.png" opacity=".4"/><path d="M983.96 450.51s-3.45 8.82-14.98 12.52c-11.53 3.7-20.64 9.06-24.21 11.76-3.57 2.7 2.22 5.52 2.22 5.52l44.03-17.68-7.06-12.12z" fill="#fff" opacity=".2"/><path d="M985.31 447.9s-3.68 8.72-15.3 12.12c-11.62 3.4-20.88 8.51-24.52 11.11-3.64 2.6 2.08 5.58 2.08 5.58l44.49-16.51-6.74-12.3z" fill="#fff" opacity=".2"/></g><path d="M968.6 454.12s-.07.1-.1.14c-.1.1-.18-.02-.3-.09-.82-.51-1.88-1.19-2.88-1.15.9.43 1.65 1.18 2.42 1.81.14.12.28.23.41.34.04.03.13.14.18.13.15-.04.3-.08.44-.14.72-.4 1.02-1.26 1.2-2.02l.04-.15c.03-.13.09-.31.07-.44-.14-.75-.74-1.32-1.34-1.75-.71-.51-1.53-.93-2.37-1.17.28.25.57.5.85.75.39.36.79.7 1.15 1.09.22.23.83.8.75 1.15-.08.36-.18.71-.31 1.05-.06.15-.13.29-.21.43z" fill="#fff"/><g clip-path="url(#m)"><path fill="#fff" d="m952.472 460.187 10.004-32.296 27.186 8.42-10.004 32.296z"/></g><g><path d="M972.5 446.95c.44.27 1.07.26 1.54.07.74-.29 1.18-1.01 1.37-1.74.03-.1.05-.21.07-.32.03-.15.09-.19.2-.3.18-.19.37-.37.55-.56.32-.34.64-.69.95-1.05-.05.06-.07.08.05-.05.08-.1.1-.11.08-.09.57-.66 1.13-1.33 1.6-2.06-1.39.86-2.65 1.98-3.83 3.1-.13.12-.47.34-.49.53-.03.31-.09.62-.2.91-.19.5-.5.84-1.02 1.01h.03c-.22.03-.42.06-.64-.01-.6-.19-.52-1.08-.21-1.48-.81.38-.75 1.61-.04 2.05z" fill="#fff"/><g clip-path="url(#n)"><path fill="#fff" d="m952.472 460.187 10.004-32.296 27.186 8.42-10.004 32.296z"/></g></g><g><path d="M971.82 454.51c0-.06-.01-.12-.03-.18-.02-.06-.03-.13-.06-.2s-.05-.14-.09-.21c-.03-.07-.07-.14-.11-.2a2.43 2.43 0 0 0-.6-.63c-.1-.07-.19-.12-.25-.16-.03-.02-.06-.03-.08-.04-.02 0-.03-.01-.03-.01l-.18.54h.02c.01 0 .03 0 .06.01.05.01.13.04.22.07.18.07.42.2.62.39.05.05.1.1.14.15.05.05.08.11.12.16.04.05.06.11.09.16s.05.11.07.16c.02.05.04.1.05.14.01.04.02.08.03.11.02.06.02.1.02.1v-.22c0-.05-.01-.1-.02-.15z" fill="#fff"/><g clip-path="url(#o)"><path fill="#fff" d="m952.472 460.187 10.004-32.296 27.186 8.42-10.004 32.296z"/></g></g><g fill="#fff"><path d="m1008.13 470.54 4.97-16.15-12.12 11.19-.67-.21-3.69-16.03-4.98 16.09-1.35-.42 5.84-18.86 1.16.36 3.92 17.19 12.95-11.96 1.13.35-5.82 18.87-1.35-.42zM1029.44 475.79l-.38 1.24-13.01-4.03 5.84-18.86 12.61 3.91-.38 1.24-11.24-3.48-2.3 7.44 10.05 3.11-.38 1.21-10.05-3.11-2.4 7.73 11.64 3.61zM1055.27 464.47l-5.84 18.86-1.13-.35-7.78-20.36-5.07 16.38-1.37-.43 5.84-18.86 1.16.36 7.75 20.36 5.07-16.38 1.37.43zM1065.06 468.86l-6.79-2.1.38-1.24 14.95 4.63-.38 1.24-6.79-2.1-5.46 17.62-1.37-.43 5.46-17.62zM1084.56 492.86l-.38 1.24-13.01-4.03 5.84-18.86 12.61 3.91-.38 1.24-11.24-3.48-2.3 7.44 10.05 3.11-.38 1.21-10.05-3.11-2.4 7.73 11.64 3.61zM1114.34 489.74c-1.23 3.96-4.82 5.45-9.56 3.98l-5.39-1.67-1.91 6.17-1.37-.43 5.84-18.86 6.76 2.09c4.74 1.47 6.86 4.72 5.63 8.71zm-1.4-.44c1.01-3.26-.57-5.79-4.61-7.04l-5.39-1.67-3.16 10.21 5.39 1.67c4.04 1.25 6.77.06 7.78-3.17zM1128.19 507.73l-2.55-7.7c-.62-.1-1.23-.23-1.87-.43l-5.39-1.67-1.91 6.17-1.37-.43 5.84-18.86 6.76 2.09c4.74 1.47 6.86 4.72 5.63 8.71-.93 2.99-3.19 4.56-6.25 4.53l2.67 8.06-1.56-.48zm-4.04-9.34c4.04 1.25 6.78.03 7.78-3.2 1.01-3.26-.57-5.79-4.61-7.04l-5.39-1.67-3.17 10.24 5.39 1.67zM1147.89 512.48l-.38 1.24-13.01-4.03 5.84-18.86 12.61 3.91-.38 1.24-11.24-3.48-2.3 7.44 10.05 3.11-.38 1.21-10.05-3.11-2.4 7.73 11.64 3.61zM1170.75 507.21c-1.23 3.96-4.82 5.45-9.56 3.98l-5.39-1.67-1.91 6.17-1.37-.43 5.84-18.86 6.76 2.09c4.74 1.47 6.86 4.72 5.63 8.71zm-1.4-.43c1.01-3.26-.57-5.79-4.61-7.04l-5.39-1.67-3.16 10.21 5.39 1.67c4.04 1.25 6.77.06 7.78-3.17zM1183.87 519.16l-10.94-3.39-4.04 4.57-1.48-.46 14.52-16.17 1.37.43 2.83 21.55-1.48-.46-.78-6.06zm-.15-1.32-1.59-12.42-8.3 9.36 9.89 3.06zM1202.65 530.79l-2.55-7.7c-.62-.1-1.23-.23-1.87-.43l-5.39-1.67-1.91 6.17-1.37-.43 5.84-18.86 6.76 2.09c4.74 1.47 6.86 4.72 5.63 8.71-.93 2.99-3.19 4.56-6.25 4.53l2.67 8.06-1.56-.48zm-4.04-9.34c4.04 1.25 6.78.03 7.78-3.2s-.57-5.79-4.61-7.04l-5.39-1.67-3.17 10.24 5.39 1.67zM1222.26 531.05l-10.94-3.39-4.04 4.57-1.48-.46 14.52-16.17 1.37.43 2.83 21.55-1.48-.46-.78-6.06zm-.15-1.32-1.59-12.42-8.3 9.36 9.89 3.06zM1233.78 519.77l7.46 2.31c5.98 1.85 8.81 7.04 7.1 12.54-1.7 5.5-6.96 8.18-12.94 6.33l-7.46-2.31 5.84-18.86zm1.9 19.9c5.33 1.65 9.81-.68 11.29-5.48 1.49-4.8-.89-9.25-6.22-10.9l-5.98-1.85-5.07 16.38 5.98 1.85zM1263.24 543.74l-10.94-3.39-4.04 4.57-1.48-.46 14.52-16.17 1.37.43 2.83 21.55-1.48-.46-.78-6.06zm-.16-1.31-1.59-12.42-8.3 9.36 9.89 3.06zM1270.7 550.72c-.13.4-.29.65-.63 1.16l-2.19 3.34-.97-.3 2.07-3.52c-.5-.3-.72-.82-.55-1.38.2-.65.84-.98 1.48-.78s.96.89.78 1.48zM1283.26 545.43c1.7-5.5 7.14-8.27 12.74-6.54 2.67.83 4.8 2.43 5.9 4.69l-1.14.62c-1.12-2.09-2.89-3.35-5.1-4.03-4.82-1.49-9.56.94-11.03 5.68-1.47 4.74 1.07 9.42 5.89 10.92 2.21.68 4.38.62 6.49-.47l.59 1.16c-2.19 1.24-4.86 1.39-7.53.56-5.6-1.74-8.52-7.1-6.82-12.59zM1302.14 551.28c1.69-5.47 7.14-8.27 12.77-6.53 5.6 1.74 8.55 7.11 6.85 12.6-1.7 5.5-7.17 8.26-12.77 6.53-5.63-1.74-8.54-7.13-6.85-12.6zm18.22 5.64c1.48-4.77-1.04-9.42-5.84-10.9s-9.53.92-11.01 5.69c-1.48 4.77 1.04 9.42 5.86 10.91 4.8 1.49 9.5-.93 10.98-5.69zM1336.7 572.32l-2.55-7.7c-.62-.1-1.23-.23-1.87-.43l-5.39-1.67-1.91 6.17-1.37-.43 5.84-18.86 6.76 2.09c4.74 1.47 6.86 4.72 5.63 8.71-.93 2.99-3.19 4.56-6.25 4.53l2.67 8.06-1.56-.48zm-4.05-9.35c4.04 1.25 6.78.03 7.78-3.2s-.57-5.79-4.61-7.04l-5.39-1.67-3.17 10.24 5.39 1.67zM1356.31 572.57l-10.94-3.39-4.04 4.57-1.48-.46 14.52-16.17 1.37.43 2.83 21.55-1.48-.46-.78-6.06zm-.16-1.31-1.59-12.42-8.3 9.36 9.89 3.06zM1375.55 582.99l-.38 1.24-15.2-4.71.3-.97 18.17-12.62-12.85-3.98.38-1.24 14.74 4.57-.3.97-18.15 12.63 13.28 4.11zM1380.26 575.47c1.69-5.47 7.14-8.27 12.77-6.53 5.6 1.74 8.55 7.11 6.85 12.6-1.7 5.5-7.17 8.26-12.77 6.53s-8.54-7.13-6.85-12.6zm18.22 5.65c1.48-4.77-1.04-9.42-5.84-10.9-4.82-1.49-9.53.92-11 5.69-1.48 4.77 1.04 9.42 5.86 10.91 4.8 1.49 9.5-.93 10.98-5.69zm-1.82-16.07 1.94.6-5.22 1.87-1.46-.45 4.73-2.02zM1422.92 578.35l-5.84 18.86-1.13-.35-7.78-20.36-5.07 16.38-1.37-.43 5.84-18.86 1.16.36 7.75 20.36 5.07-16.38 1.37.43zM1443.89 599.7l-10.94-3.39-4.04 4.57-1.48-.46 14.52-16.17 1.37.43 2.83 21.55-1.48-.46-.78-6.06zm-.16-1.32-1.59-12.42-8.3 9.36 9.89 3.06zM1462.66 611.33l-2.55-7.7c-.62-.1-1.23-.23-1.87-.43l-5.39-1.67-1.91 6.17-1.37-.43 5.84-18.86 6.76 2.09c4.74 1.47 6.86 4.72 5.63 8.71-.93 2.99-3.19 4.56-6.25 4.53l2.67 8.06-1.56-.48zm-4.04-9.34c4.04 1.25 6.78.03 7.78-3.2s-.57-5.79-4.61-7.04l-5.39-1.67-3.17 10.24 5.39 1.67zM1474.8 594.42l7.46 2.31c5.98 1.85 8.81 7.04 7.1 12.54-1.7 5.5-6.96 8.18-12.94 6.33l-7.46-2.31 5.84-18.86zm1.9 19.9c5.33 1.65 9.81-.68 11.29-5.48 1.49-4.8-.89-9.25-6.22-10.9l-5.98-1.85-5.07 16.38 5.98 1.85zM1497.05 601.31l1.37.43-5.84 18.86-1.37-.43 5.84-18.86zM1512.56 625.43l-.38 1.24-13.01-4.03 5.84-18.86 12.61 3.91-.38 1.24-11.24-3.48-2.3 7.44 10.05 3.11-.38 1.21-10.05-3.11-2.4 7.73 11.64 3.61zM1538.38 614.12l-5.84 18.86-1.13-.35-7.78-20.36-5.07 16.38-1.37-.43 5.84-18.86 1.16.36 7.75 20.36 5.07-16.38 1.37.43zM1548.18 618.51l-6.79-2.1.38-1.24 14.95 4.63-.38 1.24-6.79-2.1-5.46 17.62-1.37-.43 5.46-17.62zM1567.67 642.5l-.38 1.24-13.01-4.03 5.84-18.86 12.61 3.91-.38 1.24-11.24-3.48-2.3 7.44 10.05 3.11-.38 1.21-10.05-3.11-2.4 7.73 11.64 3.61z"/></g><g><path d="M1604.69 631.4c0-.77-.15-1.72-.72-2.63l-11.97-3.71c-1.81-.56-3.74.45-4.3 2.27l-5.16 16.67c.29-.68.86-1.7 1.72-1.9v.04c.16-.49.44-.82.84-1.13.24-.18.52-.33.79-.45.18-.09.37-.16.57-.23.06-.02.39-.07.43-.13.03-.04 0-.26.01-.3.02-.24.06-.48.12-.72.14-.53.35-1.04.57-1.54.39-.87.84-1.72 1.34-2.54 1.06-1.71 2.43-3.12 4.2-4.08.66-.35 1.34-.62 2.07-.8 1.18-.29 2.46-.34 3.65-.05 2.16.52 4.45 1.65 5.24 3.9v-.01c.1-.22.58-1.32.59-2.66z" fill="#fff"/><g clip-path="url(#p)"><path d="M1604.69 631.4c0-.77-.15-1.72-.72-2.63l-11.97-3.71c-1.81-.56-3.74.45-4.3 2.27l-5.16 16.67c.29-.68.86-1.7 1.72-1.9v.04c.16-.49.44-.82.84-1.13.24-.18.52-.33.79-.45.18-.09.37-.16.57-.23.06-.02.39-.07.43-.13.03-.04 0-.26.01-.3.02-.24.06-.48.12-.72.14-.53.35-1.04.57-1.54.39-.87.84-1.72 1.34-2.54 1.06-1.71 2.43-3.12 4.2-4.08.66-.35 1.34-.62 2.07-.8 1.18-.29 2.46-.34 3.65-.05 2.16.52 4.45 1.65 5.24 3.9v-.01c.1-.22.58-1.32.59-2.66z" fill="#fff"/><image width="396" height="382" transform="matrix(.24 0 0 .24 1546.08 588.48)" xlink:href="Eslogan-7.png" opacity=".4"/><path d="M1580.15 635.16s6.25-7.11 18.35-6.66c12.1.45 22.5-1.48 26.77-2.79 4.28-1.32-.21-5.95-.21-5.95l-47.42 1.6 2.51 13.8z" fill="#fff" opacity=".2"/></g><path d="m1608.1 629.99-1.66-.51c.04 1.22-.23 3.64-2.18 5.04.22.72.31 1.52.3 2.27 0 .41-.08.85-.06 1.26.01.3.14.59.17.89.07.59-.31 1.24-.71 1.65a.12.12 0 0 0-.05.05s.1.17.14.2c.07.12.09.18.13.33.1.46.19.91.28 1.37.11.54.27 1.1.32 1.66 0-.01 0-.01 0 0 0 .1 0 .04 0 0 .05.79-.47 1.24-1.23 1-.2-.06-.41-.13-.61-.2-.15-.05-.39-.21-.48-.09-.11.29 0 .56-.24.82-.11.12-.07.35-.15.51-.08.18-.23.34-.4.44-.22.15-.7.16-.69.49 0 .26.12.68.08.98-.03.31-.2.48-.41.67-.57.54-1.15.22-1.71-.06-.47-.22-.95-.41-1.47-.47-.42-.05-1.19-.07-1.22.51-.03.66-.14 1.31-.27 1.95-.15.79-.38 1.6-.32 2.42.05.67.29 1.26.53 1.88-.91-.16-1.81-.32-2.68-.67-.62-.25-1.24-.59-1.69-1.1-.21-.25-.51-.68-.41-1.01.14-.5.45-1.02.66-1.49.19-.44.43-.89.59-1.36-.74 1.12-2.97 4.2-5.91 5.1l12.52 3.88c1.81.56 3.78-.47 4.34-2.28l6.75-21.79c.56-1.81-.47-3.8-2.28-4.36z" fill="#fff"/><g clip-path="url(#q)"><path fill="#fff" d="m1576.892 653.592 10.004-32.296 27.186 8.42-10.004 32.297z"/><image width="404" height="424" transform="matrix(.24 0 0 .24 1549.68 593.28)" xlink:href="Eslogan-8.png" opacity=".4"/><path d="M1608.38 643.92s-3.45 8.82-14.98 12.52c-11.53 3.7-20.64 9.06-24.21 11.76-3.57 2.7 2.22 5.52 2.22 5.52l44.03-17.68-7.06-12.12z" fill="#fff" opacity=".2"/><path d="M1609.73 641.31s-3.68 8.72-15.3 12.12c-11.62 3.4-20.88 8.51-24.52 11.11-3.64 2.6 2.08 5.58 2.08 5.58l44.49-16.51-6.74-12.3z" fill="#fff" opacity=".2"/></g><path d="M1593.02 647.53s-.07.1-.1.14c-.1.1-.18-.02-.3-.09-.82-.51-1.88-1.19-2.88-1.15.9.43 1.65 1.18 2.42 1.81.14.12.28.23.41.34.04.03.13.14.18.13.15-.04.3-.08.44-.14.72-.4 1.02-1.26 1.2-2.02l.04-.15c.03-.13.09-.31.07-.44-.14-.75-.74-1.32-1.34-1.75-.71-.51-1.53-.93-2.37-1.17.28.25.57.5.85.75.39.36.79.7 1.15 1.09.22.23.83.8.75 1.15-.08.36-.18.71-.31 1.05-.06.15-.13.29-.21.43z" fill="#fff"/><g clip-path="url(#r)"><path fill="#fff" d="m1576.892 653.592 10.004-32.296 27.186 8.42-10.004 32.297z"/></g><g><path d="M1596.92 640.36c.44.27 1.07.26 1.54.07.74-.29 1.18-1.01 1.37-1.74.03-.1.05-.21.07-.32.03-.15.09-.19.2-.3.18-.19.37-.37.55-.56.32-.34.64-.69.95-1.05-.05.06-.07.08.05-.05.08-.1.1-.11.08-.09.57-.66 1.13-1.33 1.6-2.06-1.39.86-2.65 1.98-3.83 3.1-.13.12-.47.34-.49.53-.03.31-.09.62-.2.91-.19.5-.5.84-1.02 1.01h.03c-.22.03-.42.06-.64-.01-.6-.19-.52-1.08-.21-1.48-.81.38-.75 1.61-.04 2.05z" fill="#fff"/><g clip-path="url(#s)"><path fill="#fff" d="m1576.892 653.592 10.004-32.296 27.186 8.42-10.004 32.297z"/></g></g><g><path d="M1596.24 647.92c0-.06-.01-.12-.03-.18-.02-.06-.03-.13-.06-.2s-.05-.14-.09-.21c-.03-.07-.07-.14-.11-.2a2.43 2.43 0 0 0-.6-.63c-.1-.07-.19-.12-.25-.16-.03-.02-.06-.03-.08-.04-.02 0-.03-.01-.03-.01l-.18.54h.02c.01 0 .03 0 .06.01.05.01.13.04.22.07.18.07.42.2.62.39.05.05.1.1.14.15.05.05.08.11.12.16.04.05.06.11.09.16s.05.11.07.16c.02.05.04.1.05.14.01.04.02.08.03.11.02.06.02.1.02.1v-.22c0-.05-.01-.1-.02-.15z" fill="#fff"/><g clip-path="url(#t)"><path fill="#fff" d="m1576.892 653.592 10.004-32.296 27.186 8.42-10.004 32.297z"/></g></g></g><g fill="#fff"><path d="m1632.55 663.95 4.97-16.15-12.12 11.19-.67-.21-3.69-16.03-4.98 16.09-1.35-.42 5.84-18.86 1.16.36 3.92 17.19 12.95-11.96 1.13.35-5.82 18.87-1.35-.42zM1653.86 669.2l-.38 1.24-13.01-4.03 5.84-18.86 12.61 3.91-.38 1.24-11.24-3.48-2.3 7.44 10.05 3.11-.38 1.21-10.05-3.11-2.4 7.73 11.64 3.61zM1679.69 657.88l-5.84 18.86-1.13-.35-7.78-20.36-5.07 16.38-1.37-.43 5.84-18.86 1.16.36 7.75 20.36 5.07-16.38 1.37.43zM1689.48 662.28l-6.79-2.1.38-1.24 14.95 4.63-.38 1.24-6.79-2.1-5.46 17.62-1.37-.43 5.46-17.62zM1708.98 686.27l-.38 1.24-13.01-4.03 5.84-18.86 12.61 3.91-.38 1.24-11.24-3.48-2.3 7.44 10.05 3.11-.38 1.21-10.05-3.11-2.4 7.73 11.64 3.61zM1738.76 683.15c-1.23 3.96-4.82 5.45-9.56 3.98l-5.39-1.67-1.91 6.17-1.37-.43 5.84-18.86 6.76 2.09c4.74 1.47 6.86 4.72 5.63 8.71zm-1.4-.43c1.01-3.26-.57-5.79-4.61-7.04l-5.39-1.67-3.16 10.21 5.39 1.67c4.04 1.25 6.77.06 7.78-3.17zM1752.61 701.14l-2.55-7.7c-.62-.1-1.23-.23-1.87-.43l-5.39-1.67-1.91 6.17-1.37-.43 5.84-18.86 6.76 2.09c4.74 1.47 6.86 4.72 5.63 8.71-.93 2.99-3.19 4.56-6.25 4.53l2.67 8.06-1.56-.48zm-4.04-9.34c4.04 1.25 6.78.03 7.78-3.2 1.01-3.26-.57-5.79-4.61-7.04l-5.39-1.67-3.17 10.24 5.39 1.67zM1772.31 705.89l-.38 1.24-13.01-4.03 5.84-18.86 12.61 3.91-.38 1.24-11.24-3.48-2.3 7.44 10.05 3.11-.38 1.21-10.05-3.11-2.4 7.73 11.64 3.61zM1795.17 700.62c-1.23 3.96-4.82 5.45-9.56 3.98l-5.39-1.67-1.91 6.17-1.37-.43 5.84-18.86 6.76 2.09c4.74 1.47 6.86 4.72 5.63 8.71zm-1.4-.43c1.01-3.26-.57-5.79-4.61-7.04l-5.39-1.67-3.16 10.21 5.39 1.67c4.04 1.25 6.77.06 7.78-3.17zM1808.29 712.57l-10.94-3.39-4.04 4.57-1.48-.46 14.52-16.17 1.37.43 2.83 21.55-1.48-.46-.78-6.06zm-.15-1.31-1.59-12.42-8.3 9.36 9.89 3.06zM1827.07 724.21l-2.55-7.7c-.62-.1-1.23-.23-1.87-.43l-5.39-1.67-1.91 6.17-1.37-.43 5.84-18.86 6.76 2.09c4.74 1.47 6.86 4.72 5.63 8.71-.93 2.99-3.19 4.56-6.25 4.53l2.67 8.06-1.56-.48zm-4.05-9.35c4.04 1.25 6.78.03 7.78-3.2s-.57-5.79-4.61-7.04l-5.39-1.67-3.17 10.24 5.39 1.67zM1846.68 724.46l-10.94-3.39-4.04 4.57-1.48-.46 14.52-16.17 1.37.43 2.83 21.55-1.48-.46-.78-6.06zm-.15-1.31-1.59-12.42-8.3 9.36 9.89 3.06zM1858.2 713.18l7.46 2.31c5.98 1.85 8.81 7.04 7.1 12.54-1.7 5.5-6.96 8.18-12.94 6.33l-7.46-2.31 5.84-18.86zm1.9 19.9c5.33 1.65 9.81-.68 11.29-5.48s-.89-9.25-6.22-10.9l-5.98-1.85-5.07 16.38 5.98 1.85zM1887.65 737.16l-10.94-3.39-4.04 4.57-1.48-.46 14.52-16.17 1.37.43 2.83 21.55-1.48-.46-.78-6.06zm-.15-1.32-1.59-12.42-8.3 9.36 9.89 3.06zM1895.11 744.13c-.13.4-.29.65-.63 1.16l-2.19 3.34-.97-.3 2.07-3.52c-.5-.3-.72-.82-.55-1.38.2-.65.84-.98 1.48-.78s.96.89.78 1.48zM1907.68 738.84c1.7-5.5 7.14-8.27 12.74-6.54 2.67.83 4.8 2.43 5.9 4.69l-1.14.62c-1.12-2.09-2.89-3.35-5.1-4.03-4.82-1.49-9.56.94-11.03 5.68-1.47 4.74 1.07 9.42 5.89 10.92 2.21.68 4.38.62 6.49-.47l.59 1.16c-2.19 1.24-4.86 1.39-7.53.56-5.6-1.74-8.52-7.1-6.82-12.59zM1926.56 744.69c1.69-5.47 7.14-8.27 12.77-6.53s8.55 7.11 6.85 12.6c-1.7 5.5-7.17 8.26-12.77 6.53-5.63-1.74-8.54-7.13-6.85-12.6zm18.22 5.64c1.48-4.77-1.04-9.42-5.84-10.9s-9.53.92-11.01 5.69c-1.48 4.77 1.04 9.42 5.86 10.91s9.5-.93 10.98-5.69zM1961.12 765.73l-2.55-7.7c-.62-.1-1.23-.23-1.87-.43l-5.39-1.67-1.91 6.17-1.37-.43 5.84-18.86 6.76 2.09c4.74 1.47 6.86 4.72 5.63 8.71-.93 2.99-3.19 4.56-6.25 4.53l2.67 8.06-1.56-.48zm-4.05-9.35c4.04 1.25 6.78.03 7.78-3.2s-.57-5.79-4.61-7.04l-5.39-1.67-3.17 10.24 5.39 1.67zM1980.73 765.98l-10.94-3.39-4.04 4.57-1.48-.46 14.52-16.17 1.37.43 2.83 21.55-1.48-.46-.78-6.06zm-.16-1.31-1.59-12.42-8.3 9.36 9.89 3.06zM1999.97 776.4l-.38 1.24-15.2-4.71.3-.97 18.17-12.62-12.85-3.98.38-1.24 14.74 4.57-.3.97-18.15 12.63 13.28 4.11zM2004.68 768.89c1.69-5.47 7.14-8.27 12.77-6.53s8.55 7.11 6.85 12.6c-1.7 5.5-7.17 8.26-12.77 6.53-5.63-1.74-8.54-7.13-6.85-12.6zm18.22 5.64c1.48-4.77-1.04-9.42-5.84-10.9-4.82-1.49-9.53.92-11 5.69-1.48 4.77 1.04 9.42 5.86 10.91 4.8 1.49 9.5-.93 10.98-5.69zm-1.82-16.07 1.94.6-5.22 1.87-1.46-.45 4.73-2.02zM2047.34 771.77l-5.84 18.86-1.13-.35-7.78-20.36-5.07 16.38-1.37-.43 5.84-18.86 1.16.36 7.75 20.36 5.07-16.38 1.37.43zM2068.3 793.11l-10.94-3.39-4.04 4.57-1.48-.46 14.52-16.17 1.37.43 2.83 21.55-1.48-.46-.78-6.06zm-.15-1.32-1.59-12.42-8.3 9.36 9.89 3.06zM2087.08 804.74l-2.55-7.7c-.62-.1-1.23-.23-1.87-.43l-5.39-1.67-1.91 6.17-1.37-.43 5.84-18.86 6.76 2.09c4.74 1.47 6.86 4.72 5.63 8.71-.93 2.99-3.19 4.56-6.25 4.53l2.67 8.06-1.56-.48zm-4.05-9.34c4.04 1.25 6.78.03 7.78-3.2 1.01-3.26-.57-5.79-4.61-7.04l-5.39-1.67-3.17 10.24 5.39 1.67zM2099.22 787.83l7.46 2.31c5.98 1.85 8.81 7.04 7.1 12.54-1.7 5.5-6.96 8.18-12.94 6.33l-7.46-2.31 5.84-18.86zm1.9 19.91c5.33 1.65 9.81-.68 11.29-5.48 1.49-4.8-.89-9.25-6.22-10.9l-5.98-1.85-5.07 16.38 5.98 1.85zM2121.47 794.73l1.37.43-5.84 18.86-1.37-.43 5.84-18.86zM2136.98 818.84l-.38 1.24-13.01-4.03 5.84-18.86 12.61 3.91-.38 1.24-11.24-3.48-2.3 7.44 10.05 3.11-.38 1.21-10.05-3.11-2.4 7.73 11.64 3.61zM2162.8 807.53l-5.84 18.86-1.13-.35-7.78-20.36-5.07 16.38-1.37-.43 5.84-18.86 1.16.36 7.75 20.36 5.07-16.38 1.37.43zM2172.6 811.92l-6.79-2.1.38-1.24 14.95 4.63-.38 1.24-6.79-2.1-5.46 17.62-1.37-.43 5.46-17.62zM2192.09 835.91l-.38 1.24-13.01-4.03 5.84-18.86 12.61 3.91-.38 1.24-11.24-3.48-2.3 7.44 10.05 3.11-.38 1.21-10.05-3.11-2.4 7.73 11.64 3.61z"/></g><g><path d="M2227.86 823.66c0-.77-.15-1.72-.72-2.63l-11.97-3.71c-1.81-.56-3.74.45-4.3 2.27l-5.16 16.67c.29-.68.86-1.7 1.72-1.9v.04c.16-.49.44-.82.84-1.13.24-.18.52-.33.79-.45.18-.09.37-.16.57-.23.06-.02.39-.07.43-.13.03-.04 0-.26.01-.3.02-.24.06-.48.12-.72.14-.53.35-1.04.57-1.54.39-.87.84-1.72 1.34-2.54 1.06-1.71 2.43-3.12 4.2-4.08.66-.35 1.34-.62 2.07-.8 1.18-.29 2.46-.34 3.65-.05 2.16.52 4.45 1.65 5.24 3.9v-.01c.1-.22.58-1.32.59-2.66z" fill="#fff"/><g clip-path="url(#u)"><path d="M2227.86 823.66c0-.77-.15-1.72-.72-2.63l-11.97-3.71c-1.81-.56-3.74.45-4.3 2.27l-5.16 16.67c.29-.68.86-1.7 1.72-1.9v.04c.16-.49.44-.82.84-1.13.24-.18.52-.33.79-.45.18-.09.37-.16.57-.23.06-.02.39-.07.43-.13.03-.04 0-.26.01-.3.02-.24.06-.48.12-.72.14-.53.35-1.04.57-1.54.39-.87.84-1.72 1.34-2.54 1.06-1.71 2.43-3.12 4.2-4.08.66-.35 1.34-.62 2.07-.8 1.18-.29 2.46-.34 3.65-.05 2.16.52 4.45 1.65 5.24 3.9v-.01c.1-.22.58-1.32.59-2.66z" fill="#fff"/><image width="395" height="382" transform="matrix(.24 0 0 .24 2169.36 780.72)" xlink:href="Eslogan-9.png" opacity=".4"/><path d="M2203.32 827.43s6.25-7.11 18.35-6.66c12.1.45 22.5-1.48 26.77-2.79 4.28-1.32-.21-5.95-.21-5.95l-47.42 1.6 2.51 13.8z" fill="#fff" opacity=".2"/></g><path d="m2231.27 822.26-1.66-.51c.04 1.22-.23 3.64-2.18 5.04.22.72.31 1.52.3 2.27 0 .41-.08.85-.06 1.26.01.3.14.59.17.89.07.59-.31 1.24-.71 1.65a.12.12 0 0 0-.05.05s.1.17.14.2c.07.12.09.18.13.33.1.46.19.91.28 1.37.11.54.27 1.1.32 1.66 0-.01 0-.01 0 0 0 .1 0 .04 0 0 .05.79-.47 1.24-1.23 1-.2-.06-.41-.13-.61-.2-.15-.05-.39-.21-.48-.09-.11.29 0 .56-.24.82-.11.12-.07.35-.15.51-.08.18-.23.34-.4.44-.22.15-.7.16-.69.49 0 .26.12.68.08.98-.03.31-.2.48-.41.67-.57.54-1.15.22-1.71-.06-.47-.22-.95-.41-1.47-.47-.42-.05-1.19-.07-1.22.51-.03.66-.14 1.31-.27 1.95-.15.79-.38 1.6-.32 2.42.05.67.29 1.26.53 1.88-.91-.16-1.81-.32-2.68-.67-.62-.25-1.24-.59-1.69-1.1-.21-.25-.51-.68-.41-1.01.14-.5.45-1.02.66-1.49.19-.44.43-.89.59-1.36-.74 1.12-2.97 4.2-5.91 5.1l12.52 3.88c1.81.56 3.78-.47 4.34-2.28l6.75-21.79c.56-1.81-.47-3.8-2.28-4.36z" fill="#fff"/><g clip-path="url(#v)"><path fill="#fff" d="m2200.055 845.859 10.003-32.297 27.186 8.42-10.004 32.297z"/><image width="404" height="424" transform="matrix(.24 0 0 .24 2172.96 785.52)" xlink:href="Eslogan-10.png" opacity=".4"/><path d="M2231.55 836.19s-3.45 8.82-14.98 12.52c-11.53 3.7-20.64 9.06-24.21 11.76-3.57 2.7 2.22 5.52 2.22 5.52l44.03-17.68-7.06-12.12z" fill="#fff" opacity=".2"/><path d="M2232.9 833.57s-3.68 8.72-15.3 12.12c-11.62 3.4-20.88 8.51-24.52 11.11-3.64 2.6 2.08 5.58 2.08 5.58l44.49-16.51-6.74-12.3z" fill="#fff" opacity=".2"/></g><path d="M2216.19 839.8s-.07.1-.1.14c-.1.1-.18-.02-.3-.09-.82-.51-1.88-1.19-2.88-1.15.9.43 1.65 1.18 2.42 1.81.14.12.28.23.41.34.04.03.13.14.18.13.15-.04.3-.08.44-.14.72-.4 1.02-1.26 1.2-2.02l.04-.15c.03-.13.09-.31.07-.44-.14-.75-.74-1.32-1.34-1.75-.71-.51-1.53-.93-2.37-1.17.28.25.57.5.85.75.39.36.79.7 1.15 1.09.22.23.83.8.75 1.15-.08.36-.18.71-.31 1.05-.06.15-.13.29-.21.43z" fill="#fff"/><g clip-path="url(#w)"><path fill="#fff" d="m2200.055 845.859 10.003-32.297 27.186 8.42-10.004 32.297z"/></g><g><path d="M2220.09 832.62c.44.27 1.07.26 1.54.07.74-.29 1.18-1.01 1.37-1.74.03-.1.05-.21.07-.32.03-.15.09-.19.2-.3.18-.19.37-.37.55-.56.32-.34.64-.69.95-1.05-.05.06-.07.08.05-.05.08-.1.1-.11.08-.09.57-.66 1.13-1.33 1.6-2.06-1.39.86-2.65 1.98-3.83 3.1-.13.12-.47.34-.49.53-.03.31-.09.62-.2.91-.19.5-.5.84-1.02 1.01h.03c-.22.03-.42.06-.64-.01-.6-.19-.52-1.08-.21-1.48-.81.38-.75 1.61-.04 2.05z" fill="#fff"/><g clip-path="url(#x)"><path fill="#fff" d="m2200.055 845.859 10.003-32.297 27.186 8.42-10.004 32.297z"/></g></g><g><path d="M2219.41 840.18c0-.06-.01-.12-.03-.18-.02-.06-.03-.13-.06-.2s-.05-.14-.09-.21c-.03-.07-.07-.14-.11-.2a2.43 2.43 0 0 0-.6-.63c-.1-.07-.19-.12-.25-.16-.03-.02-.06-.03-.08-.04-.02 0-.03-.01-.03-.01l-.18.54h.02c.01 0 .03 0 .06.01.05.01.13.04.22.07.18.07.42.2.62.39.05.05.1.1.14.15.05.05.08.11.12.16.04.05.06.11.09.16s.05.11.07.16c.02.05.04.1.05.14.01.04.02.08.03.11.02.06.02.1.02.1v-.22c0-.05-.01-.1-.02-.15z" fill="#fff"/><g clip-path="url(#y)"><path fill="#fff" d="m2200.055 845.859 10.003-32.297 27.186 8.42-10.004 32.297z"/></g></g></g><g fill="#fff"><path d="m2255.72 856.22 4.97-16.15-12.12 11.19-.67-.21-3.69-16.03-4.98 16.09-1.35-.42 5.84-18.86 1.16.36 3.92 17.19 12.95-11.96 1.13.35-5.82 18.87-1.35-.42zM2277.03 861.46l-.38 1.24-13.01-4.03 5.84-18.86 12.61 3.91-.38 1.24-11.24-3.48-2.3 7.44 10.05 3.11-.38 1.21-10.05-3.11-2.4 7.73 11.64 3.61zM2302.86 850.15l-5.84 18.86-1.13-.35-7.78-20.36-5.07 16.38-1.37-.43 5.84-18.86 1.16.36 7.75 20.36 5.07-16.38 1.37.43zM2312.65 854.54l-6.79-2.1.38-1.24 14.95 4.63-.38 1.24-6.79-2.1-5.46 17.62-1.37-.43 5.46-17.62zM2332.15 878.53l-.38 1.24-13.01-4.03 5.84-18.86 12.61 3.91-.38 1.24-11.24-3.48-2.3 7.44 10.05 3.11-.38 1.21-10.05-3.11-2.4 7.73 11.64 3.61zM2361.93 875.41c-1.23 3.96-4.82 5.45-9.56 3.98l-5.39-1.67-1.91 6.17-1.37-.43 5.84-18.86 6.76 2.09c4.74 1.47 6.86 4.72 5.63 8.71zm-1.4-.43c1.01-3.26-.57-5.79-4.61-7.04l-5.39-1.67-3.16 10.21 5.39 1.67c4.04 1.25 6.77.06 7.78-3.17zM2375.78 893.41l-2.55-7.7c-.62-.1-1.23-.23-1.87-.43l-5.39-1.67-1.91 6.17-1.37-.43 5.84-18.86 6.76 2.09c4.74 1.47 6.86 4.72 5.63 8.71-.93 2.99-3.19 4.56-6.25 4.53l2.67 8.06-1.56-.48zm-4.04-9.35c4.04 1.25 6.78.03 7.78-3.2 1.01-3.26-.57-5.79-4.61-7.04l-5.39-1.67-3.17 10.24 5.39 1.67zM2395.48 898.15l-.38 1.24-13.01-4.03 5.84-18.86 12.61 3.91-.38 1.24-11.24-3.48-2.3 7.44 10.05 3.11-.38 1.21-10.05-3.11-2.4 7.73 11.64 3.61zM2418.34 892.89c-1.23 3.96-4.82 5.45-9.56 3.98l-5.39-1.67-1.91 6.17-1.37-.43 5.84-18.86 6.76 2.09c4.74 1.47 6.86 4.72 5.63 8.71zm-1.4-.44c1.01-3.26-.57-5.79-4.61-7.04l-5.39-1.67-3.16 10.21 5.39 1.67c4.04 1.25 6.77.06 7.78-3.17zM2431.46 904.84l-10.94-3.39-4.04 4.57-1.48-.46 14.52-16.17 1.37.43 2.83 21.55-1.48-.46-.78-6.06zm-.15-1.32-1.59-12.42-8.3 9.36 9.89 3.06z"/></g></g><path d="M1404.14 942.77h-34.2l-9.62-145.36c-2.14-29.93-4.81-66.8-6.95-103.15.54 37.41 1.07 71.61 1.07 103.15v145.36h-43.29v-374.1h68.41l6.95 112.76c1.07 20.31 2.14 42.75 3.21 63.06 1.07-20.31 1.6-42.75 3.21-63.06l7.48-112.76h67.87v374.1h-48.63V797.41c0-31.53.53-65.74 1.07-103.15-2.14 36.34-4.81 73.22-6.95 103.15l-9.62 145.36zM269.28 397.65c-3.21-31.53-5.88-62.53-8.55-91.39.53 29.39.53 61.46.53 91.39v136.81h-41.69v-374.1h58.25l6.95 72.15c3.21 32.07 6.41 62.53 9.09 92.45-.54-30.46-.54-61.99-.54-92.45v-72.15h42.22v374.1H282.1l-12.83-136.81zM1022.82 482.09c0 5.88 1.07 8.02 4.81 8.02h.53c3.74 0 4.81-2.14 4.81-8.02V370.93h46.5v116.51c0 38.48-9.08 49.7-43.82 49.7h-18.17c-35.27 0-44.36-11.22-44.36-49.7V207.39c0-38.48 9.09-49.7 44.36-49.7h18.17c34.74 0 43.82 11.22 43.82 49.7v100.47h-46.5v-95.13c0-5.88-1.07-8.02-4.81-8.02h-.53c-3.74 0-4.81 2.14-4.81 8.02v269.35z" fill="#142dc0"/><g filter="url(#z)" fill="#fff"><path d="M296.56 138.42V71.25h18.61l34.16 40.88h-8.64V71.25h22.07v67.17h-18.61l-34.16-40.88h8.64v40.88h-22.07zM405.85 139.95c-10.3 0-18.33-2.78-24.08-8.35-5.76-5.57-8.64-13.37-8.64-23.41V71.25h22.65v36.27c0 5.12.93 8.75 2.78 10.89 1.85 2.14 4.35 3.21 7.48 3.21s5.71-1.07 7.53-3.21c1.82-2.14 2.73-5.77 2.73-10.89V71.25h22.26v36.94c0 10.04-2.88 17.85-8.64 23.41-5.76 5.57-13.79 8.35-24.08 8.35zM471.2 121.34h33.58v17.08h-55.84V71.25h54.6v17.08H471.2v33.01zm-1.54-25.14h29.94v16.31h-29.94V96.2zM538.56 139.95c-5.63 0-11.07-.64-16.31-1.92-5.25-1.28-9.56-2.94-12.95-4.99l7.29-16.5c3.2 1.86 6.76 3.34 10.7 4.46 3.93 1.12 7.76 1.68 11.47 1.68 2.17 0 3.89-.14 5.13-.43s2.16-.7 2.73-1.25c.58-.54.86-1.2.86-1.97 0-1.21-.67-2.17-2.02-2.88-1.34-.7-3.12-1.3-5.33-1.78s-4.62-.99-7.24-1.54c-2.62-.54-5.26-1.26-7.92-2.16-2.66-.9-5.09-2.08-7.29-3.55-2.21-1.47-3.98-3.41-5.33-5.81-1.34-2.4-2.02-5.39-2.02-8.97 0-4.16 1.17-7.95 3.5-11.37 2.33-3.42 5.82-6.16 10.46-8.2 4.64-2.05 10.41-3.07 17.32-3.07 4.54 0 9.02.48 13.43 1.44s8.38 2.43 11.9 4.41l-6.81 16.41c-3.33-1.66-6.54-2.91-9.64-3.74-3.1-.83-6.13-1.25-9.07-1.25-2.18 0-3.9.19-5.18.58-1.28.38-2.19.9-2.73 1.54s-.82 1.34-.82 2.11c0 1.15.67 2.06 2.01 2.73s3.12 1.23 5.33 1.68c2.21.45 4.64.93 7.29 1.44 2.65.51 5.29 1.22 7.92 2.11 2.62.9 5.04 2.08 7.24 3.55 2.21 1.47 3.98 3.39 5.33 5.76 1.34 2.37 2.02 5.31 2.02 8.83 0 4.09-1.17 7.85-3.5 11.27-2.34 3.42-5.81 6.17-10.41 8.25s-10.4 3.12-17.37 3.12zM590.18 138.42V88.81h-19.67V71.25h61.99v17.56h-19.67v49.61h-22.65zM638.35 138.42V71.25h32.34c6.27 0 11.69 1.02 16.26 3.07 4.57 2.05 8.11 4.97 10.6 8.78 2.49 3.81 3.74 8.3 3.74 13.48s-1.25 9.64-3.74 13.39c-2.49 3.74-6.03 6.61-10.6 8.59-4.57 1.98-10 2.97-16.26 2.97h-19.77l10.08-9.31v26.2h-22.65zm22.64-23.7-10.08-10.27h18.33c3.13 0 5.45-.7 6.96-2.11 1.5-1.41 2.25-3.33 2.25-5.76s-.75-4.35-2.25-5.76c-1.5-1.41-3.82-2.11-6.96-2.11h-18.33l10.08-10.27v36.27zm17.56 23.7-16.5-24.47h23.99l16.7 24.47h-24.18z"/><path d="m702.54 138.42 29.36-67.17h22.26l29.36 67.17h-23.41L738.42 82h8.83l-21.69 56.42h-23.03zM720 126.71l5.76-16.31h30.9l5.76 16.31h-42.41zM838.22 121.34h33.58v17.08h-55.84V71.25h54.6v17.08h-32.34v33.01zm-1.54-25.14h29.94v16.31h-29.94V96.2zM880.53 138.42V71.25h33.1c7.48 0 14.07 1.36 19.77 4.08 5.69 2.72 10.14 6.57 13.34 11.56 3.2 4.99 4.8 10.94 4.8 17.85s-1.6 12.97-4.8 17.99c-3.2 5.02-7.64 8.89-13.34 11.61-5.69 2.72-12.28 4.08-19.77 4.08h-33.1zm22.65-17.66h9.5c3.2 0 6-.61 8.4-1.82 2.4-1.21 4.27-3.02 5.61-5.42 1.34-2.4 2.02-5.33 2.02-8.78s-.67-6.27-2.02-8.64c-1.34-2.37-3.21-4.16-5.61-5.37-2.4-1.21-5.2-1.82-8.4-1.82h-9.5v31.86zM991.93 139.95c-10.3 0-18.33-2.78-24.08-8.35-5.76-5.57-8.64-13.37-8.64-23.41V71.25h22.65v36.27c0 5.12.93 8.75 2.78 10.89 1.85 2.14 4.35 3.21 7.48 3.21s5.71-1.07 7.53-3.21c1.82-2.14 2.73-5.77 2.73-10.89V71.25h22.26v36.94c0 10.04-2.88 17.85-8.64 23.41-5.76 5.57-13.79 8.35-24.08 8.35zM1069.75 139.95c-5.37 0-10.35-.85-14.92-2.54s-8.54-4.11-11.9-7.24c-3.36-3.13-5.97-6.84-7.82-11.13-1.86-4.28-2.78-9.02-2.78-14.2s.93-9.91 2.78-14.2c1.85-4.28 4.46-8 7.82-11.13 3.36-3.13 7.32-5.55 11.9-7.24 4.57-1.69 9.55-2.54 14.92-2.54 6.59 0 12.43 1.15 17.51 3.45 5.09 2.3 9.29 5.63 12.62 9.98l-14.3 12.76c-1.98-2.49-4.17-4.43-6.57-5.81-2.4-1.37-5.1-2.06-8.11-2.06-2.37 0-4.51.38-6.43 1.15-1.92.77-3.57 1.89-4.94 3.36-1.38 1.47-2.45 3.25-3.21 5.33-.77 2.08-1.15 4.4-1.15 6.96s.38 4.88 1.15 6.96c.77 2.08 1.84 3.85 3.21 5.33 1.37 1.47 3.02 2.59 4.94 3.36s4.06 1.15 6.43 1.15c3.01 0 5.71-.69 8.11-2.06 2.4-1.37 4.59-3.31 6.57-5.81l14.3 12.76c-3.33 4.29-7.53 7.6-12.62 9.93-5.09 2.33-10.92 3.5-17.51 3.5zM1098.15 138.42l29.36-67.17h22.26l29.36 67.17h-23.41L1134.03 82h8.83l-21.69 56.42h-23.03zm17.46-11.71 5.76-16.31h30.9l5.76 16.31h-42.41zM1216.56 139.95c-5.37 0-10.35-.85-14.92-2.54s-8.54-4.11-11.9-7.24c-3.36-3.13-5.97-6.84-7.82-11.13-1.86-4.28-2.78-9.02-2.78-14.2s.93-9.91 2.78-14.2c1.85-4.28 4.46-8 7.82-11.13 3.36-3.13 7.32-5.55 11.9-7.24 4.57-1.69 9.55-2.54 14.92-2.54 6.59 0 12.43 1.15 17.51 3.45 5.09 2.3 9.29 5.63 12.62 9.98l-14.3 12.76c-1.98-2.49-4.17-4.43-6.57-5.81-2.4-1.37-5.1-2.06-8.11-2.06-2.37 0-4.51.38-6.43 1.15-1.92.77-3.57 1.89-4.94 3.36-1.38 1.47-2.45 3.25-3.21 5.33-.77 2.08-1.15 4.4-1.15 6.96s.38 4.88 1.15 6.96c.77 2.08 1.84 3.85 3.21 5.33 1.37 1.47 3.02 2.59 4.94 3.36s4.06 1.15 6.43 1.15c3.01 0 5.71-.69 8.11-2.06 2.4-1.37 4.59-3.31 6.57-5.81l14.3 12.76c-3.33 4.29-7.53 7.6-12.62 9.93-5.09 2.33-10.92 3.5-17.51 3.5zM1253.21 138.42V71.25h22.65v67.17h-22.65zM1322.1 139.95c-5.5 0-10.57-.86-15.21-2.59-4.64-1.73-8.65-4.17-12.04-7.34a33.787 33.787 0 0 1-7.92-11.18c-1.89-4.28-2.83-8.96-2.83-14.01s.94-9.8 2.83-14.06c1.89-4.25 4.52-7.96 7.92-11.13 3.39-3.17 7.4-5.61 12.04-7.34 4.64-1.73 9.67-2.59 15.11-2.59s10.55.86 15.16 2.59c4.61 1.73 8.6 4.17 11.99 7.34a34 34 0 0 1 7.92 11.13c1.89 4.25 2.83 8.94 2.83 14.06s-.94 9.72-2.83 14.01a33.787 33.787 0 0 1-7.92 11.18c-3.39 3.17-7.39 5.61-11.99 7.34-4.61 1.73-9.63 2.59-15.06 2.59zm-.09-18.32c2.11 0 4.08-.38 5.9-1.15 1.82-.77 3.42-1.87 4.8-3.31 1.37-1.44 2.45-3.2 3.21-5.28.77-2.08 1.15-4.43 1.15-7.05s-.38-4.97-1.15-7.05c-.77-2.08-1.84-3.84-3.21-5.28a14.193 14.193 0 0 0-4.8-3.31c-1.82-.77-3.79-1.15-5.9-1.15s-4.08.38-5.9 1.15c-1.82.77-3.42 1.87-4.8 3.31s-2.45 3.2-3.21 5.28c-.77 2.08-1.15 4.43-1.15 7.05s.38 4.97 1.15 7.05c.77 2.08 1.84 3.84 3.21 5.28 1.37 1.44 2.97 2.54 4.8 3.31 1.82.77 3.79 1.15 5.9 1.15zm-10.08-55.85 12.67-15.35h20.63l-18.9 15.35h-14.39zM1368.16 138.42V71.25h18.61l34.16 40.88h-8.64V71.25h22.07v67.17h-18.62l-34.16-40.88h8.64v40.88h-22.07z"/></g></svg>