<?xml version="1.0" encoding="UTF-8"?>
<svg xmlns="http://www.w3.org/2000/svg" version="1.1" viewBox="0 0 2484 929">
  <defs>
    <style>
      .cls-1 {
        fill: #3573b9;
      }

      .cls-2 {
        stroke: #fff;
        stroke-miterlimit: 10;
      }
    </style>
  </defs>
  <!-- Generator: Adobe Illustrator 28.7.1, SVG Export Plug-In . SVG Version: 1.2.0 Build 142)  -->
  <g>
    <g id="Capa_1">
      <g>
        <path d="M407,242.5v7.5h1666v-15H407v7.5Z"/>
        <path class="cls-1" d="M1600.1,270.1c-1.3,1-3.5,1.9-5,1.9-4.4,0-6.9,1.1-7.4,3.1-.4,1.3-1.4,1.9-3.5,1.9s-3.1.5-3.6,2.4c-.3,1.3-4.4,5.5-9.6,9.7-4.9,4.1-9,7.7-9,8.1s3.2,4.4,7,9c5,5.9,6.6,8.4,5.5,8.6-.8.2-1.5,1-1.5,1.8s-2.2,1.4-11.5,1.4-11.7.3-12.1,1.5c-.4.8-1.8,1.5-3.4,1.5s-3,.7-4,3c-1,2.4-1.9,3-4.2,3s-3.3.7-4.6,3c-1.2,2.1-2.5,3-4.3,3s-2.8.6-3.2,1.9c-.5,2-9.5,4.8-12.1,3.8-1.7-.7-6.7-10.7-6-11.8.3-.5,4.1-.9,8.5-.9,9.2,0,11.9-1.6,11.9-7.4v-3.4l-6.2-.7c-3.5-.4-11.5-2.4-17.8-4.4l-11.6-3.8-10.4,1.7c-5.8,1-14.3,2.3-19,2.9-8.5,1.2-8.5,1.3-11.5,5.7-1.6,2.4-3.6,4.4-4.2,4.4s-1.3,1.2-1.3,2.9-.8,3.5-4.5,5.8c-3.8,2.4-4.5,3.3-4.5,6s-.6,3.6-3,4.8c-2.3,1.2-3,2.2-3,4.4s-.7,3.2-3,4.3c-2.9,1.3-3,1.4-3,8.6v7.3l5.3-.7c2.8-.4,6-1.1,6.9-1.5,2.3-1.2,2.8-1.1,2.8.4s.7,2.8,1.6,4.5c1.5,3.1,1.7,3.2,8.4,3.2h6.8l1.6-4.7c2.2-6.5,2.1-11.6-.4-13.8s-2.6-4.5-.2-5.2c.9-.3,2.8-2.8,4.2-5.6,2.6-5.4,6.7-8.3,12.5-8.9s3-.2,3.3,4.4c.3,4.5.2,4.6-3.2,5.8-3.8,1.2-4.6,2.5-4.6,7.5s.2,3.4,4.8,4.4c3.8.8,4.9.7,5.8-.4.8-1,3-1.5,6.8-1.5h5.6v3.5c0,2.5-.4,3.5-1.6,3.5s-2.8.9-4.4,2c-1.5,1-4.5,2.2-6.8,2.6-6.1,1-10.1,3.9-12.3,8.9l-2,4.5h-26l-1.7-3c-1.2-2.2-2.4-3-4.4-3s-2.8.4-2.8,2.5.7,3.9,1.5,5.5,1.1,3,.5,3-3.8,2.8-7.3,6.3c-4.7,4.8-8.4,7.4-15.4,10.8l-9.2,4.4,3.1,6.8,3.1,6.7-3.4,3.5-3.5,3.4-8.2-1.3c-4.5-.7-8.2-1-8.2-.7,0,2.1,8.3,25.1,9.1,25.1s.9-.6.9-1.3,4.1-4.6,9-8.7c5-4.1,9-8.1,9-9.1s1.1-1.9,3.8-2.3c7.5-1.4,11.2-2.7,11.2-4s2.1-2.6,7.8-3.6c4.2-.7,4.3-.6,8.7,4.5,4,4.7,6.4,8.9,7.9,13.7.4,1.5,1,1.6,3.3.7,3.5-1.3,4.3-2.5,4.3-7s-.8-4.2-3.1-6.5c-3-2.9-6-7.7-7.3-12.2-.7-2-.4-2.2,2.7-2.2s3.6.3,4.9,4.2,2.9,5.4,7.1,8.6l5.7,4.3v6c0,4.6.3,5.9,1.5,5.9s1.5,1,1.5,3,.5,3,1.3,3,2.4,1.1,3.6,2.4c1.3,1.3,3.2,2.7,4.3,2.9,1.8.5,2,.2,1.4-2.6-1.8-8.9-1.9-11.7-.3-11.7s7.2,6.3,9.4,11.2c1.5,3.3,1.8,3.5,4.1,2.7,1.4-.5,4.2-2.3,6.2-3.9,5.6-4.4,6.1-4.1,5.8,4.2l-.3,7.3-3.5,1.1c-1.9.6-7.9,1.4-13.2,1.6-8.2.4-9.8.3-10-1-.2-1.1-2.4-2-6.8-2.8-9.6-1.9-10.9-1.8-12.2,1.1s-2.7,3-12.9,1.4c-4.2-.7-6.9-1.7-6.9-2.4s-.9-1.5-1.9-1.8c-1.6-.4-2-1.5-2.3-5.8l-.3-5.4-13.7-.3c-11-.2-13.8,0-13.8,1.1s-1.5,1.8-3.3,2.5c-4.7,1.7-17.7,12.9-17.7,15.2s-.8,2-3.2,2.2c-2.5.2-3.9,1.2-5.9,4.3-1.5,2.2-5.2,5.8-8.3,8l-5.6,4v39.2l8.5,6.9c4.6,3.8,8.7,7.7,9,8.6.6,1.6,2.4,1.8,19.2,1.8h18.6l4.8,4.5c2.7,2.5,6,5,7.4,5.7,3.2,1.4,3.2,4.2,0,7.4s-3,3.4-1.1,3.4,15.2,15.9,16.6,19.5c1.7,4.5,1.1,8.1-2.3,14.7-4.7,8.7-5.2,11.4-2.7,12.8,1.4.8,2,2.1,2,4.6s.7,4.2,1.5,5c.8.9,1.5,2.4,1.5,3.5s.6,1.9,1.4,1.9,1.7,1.2,2,2.7c3.2,14.3,8.1,29.5,9.7,30.4,1,.5,5.6,1.5,10.1,2.1,4.6.6,8.6,1.5,8.9,2,1.1,1.6,14-11.5,23.1-23.5,5-6.4,9.6-12.1,10.3-12.5,1-.5,1.5-3.2,1.7-8.2.3-7.3.4-7.5,3-7.8,2.8-.3,6-3.9,7.2-8,.3-1.2.9-3.1,1.2-4.2.4-1.4.1-2-1-2s-1.8-1.7-2.5-5.3c-2.4-12.3-2.4-12.5-.3-13.6,1.1-.6,2.2-2.1,2.6-3.4,1.1-4.4,5.5-11.1,15.2-23.2,8.5-10.7,16.6-23.7,15.3-24.9-.2-.2-3.3.2-6.9,1-10.9,2.3-11.8,2.1-18.7-4.6-3.5-3.3-7-6-7.8-6s-1.5-1.1-1.5-4.5-.3-4.6-3-6c-2.6-1.4-3-2.1-3-5.9s-.4-4.5-1.9-4.9c-2.6-.6-5.7-9.5-6.6-19l-.7-7.7h10.2l13.2,26.4c14.9,29.9,12.3,27.4,23.8,22.4,12.9-5.5,19.9-11,22.6-17.5,1.4-3.2,1.3-3.5-1.3-6.8-2.6-3.2-3.2-3.5-8.1-3.5-7.6,0-11.7-2.3-15.3-8.4-1.6-2.8-2.9-5.4-2.9-5.9,0-1.3,12-.8,12.5.5.4.9,2.5,1.2,7.1,1,5.9-.3,6.6-.2,7.1,1.7.3,1.2.6,2.1.7,2.2,0,0,5.1.4,11.1.8,8.4.6,12.2,1.3,16.2,3.2l5.3,2.4v14.1l4.4,3.1c4.9,3.5,6.5,7.1,8.7,20.1,1.1,6.1,1.2,6.3,3.8,5.8,1.4-.3,4.6-.8,7.1-1.1,8.4-1.2,8-.6,8-10.6v-8.9h3c2.3,0,3.5-.9,5.9-4.4,2.2-3.1,4.2-4.8,6.8-5.7,5.3-1.6,6.3-2.7,6.3-6.4s1.2-5,5.3-6l2.7-.7v6.7c0,5.4.4,7,1.9,8.3,1.1,1,3.6,6.9,5.7,13.6,2.8,8.6,4.3,12,5.6,12.4,1.2.3,1.8,1.4,1.8,3.3s.5,2.9,1.5,2.9,1.5,1,1.5,3,.5,3,1.5,3,1.5.5,1.5,1-.7,1.3-1.5,1.6c-.8.4-1.5,1.3-1.5,2.1,0,1.6-2.9,1.4-7.2-.2-1.4-.6-1.8-.2-1.8,1.8s1.3,3.5,4.8,6.1c7,5.1,18.7,17.7,22.2,23.9l3,5.4,11.7,2.2c6.5,1.2,12.8,2.5,14.1,2.8,2.1.5,2.3.2,2-2.2s-1.6-3.3-12.8-8.4l-12.5-5.7-.3-4.2c-.2-2.3-.8-4.2-1.3-4.2-1.8,0-8-5.4-9.5-8.2-2.3-4.3-1.8-4.8,4.6-4.8s6-.1,6-2.5-.8-2.8-4-4.1c-2.2-.9-5-2.9-6.1-4.5s-2.7-2.9-3.4-2.9-1.7-1-2-2.3c-1.9-8.3-2.5-12-2.1-12.4.2-.3,1.8-.2,3.4.2,2.8.6,9.2,7.1,9.2,9.4s4.7,1,7.4-1.8c1.6-1.6,4.1-3.5,5.7-4.1,1.6-.7,2.9-1.7,2.9-2.2s-1.6-3.5-3.4-6.6c-6.5-10.6-7.5-9.1,15.6-22.3,18.1-10.4,20.3-11.9,20.6-14.4.2-1.6-.2-4-1-5.3-1.6-3.2-1.6-20.9.1-27l1.2-4.2h4.9q5.4,0,6.5,8.1c.9,5.8,2,7.7,3.8,6.4.7-.6,3.5-2.6,6.1-4.5,5.1-3.8,4.9-2.9,2.9-13.3-.5-2.5-.3-2.7,2.7-2.7s3.8-.8,5.2-2.5c1-1.3,5-4.8,8.8-7.6,6.8-5,7-5.3,7-9.5v-4.4h11.5l-.3-11.1-.3-11.1-3.2.6c-1.8.4-4.9.9-7,1.3l-3.8.6.3-6.2.3-6.2,7.4-2.5c9.2-3.1,13.2-5.1,15.2-7.6s2.4-2.1,31.2-4.2c7.3-.5,7.7-.5,7.7,1.5,0,2.9-2.5,7.4-5.5,9.7l-2.5,2,1.5,11.3c.8,6.2,1.5,11.6,1.5,12.1s.5.8,1,.8,1-.6,1-1.4.4-1.6.9-1.8c.4-.2,3.5-3.9,6.8-8.3s7-8.9,8.2-9.9c1.8-1.6,2.1-3,2.1-9.2v-7.2l4.8-.6c2.6-.3,9.8-1.1,16-1.7l11.2-1.2v-45.7h-4.2c-2.4,0-10.8.5-18.7,1.2-11.3.9-14.6.9-14.9,0-.2-.7-1.5-1.2-2.9-1.2s-2.7-.7-3-1.9c-.5-2-2.7-2.3-31.5-3.7l-12.8-.7v-3.1c-.1-2.2-1.1-3.9-3.4-5.8l-3.4-2.8-5.5,4.3c-3.1,2.3-5.7,4.8-5.7,5.6s-1.8,1.3-10.2.8c-13.7-.8-55.8-3.6-68.3-4.5l-10-.7v-3.4q0-3.5,8.6-6.3c7.9-2.7,8.6-3.2,9.8-6.5.7-1.9.9-3.9.5-4.3-.5-.4-8.1-1.9-16.9-3.4-13.4-2.1-16.1-2.3-16.7-1.2-.5.8-12.5,5.3-26.9,10.1l-26.1,8.7-1.8,4.4c-1.3,2.9-2.6,4.4-3.7,4.4s-8.3-1.1-16.2-2.5-15.1-2.5-16-2.5c-2.7.1-11,10.7-12.2,15.6-1.1,4.4-1.3,4.5-4.3,3.9-8.2-1.7-23.6-12.7-23.6-16.8s3.2-3.9,7-6.8c4-3.1,7-6.1,7-7.1,0-1.5.9-1.8,4.4-1.8s4.5-.4,4.9-1.9c.3-1.3,1.8-2,5.3-2.6,2.7-.4,5.7-1.1,6.7-1.7,1.7-.9,1.7-1.1.3-2.7-.9-1-1.6-2.3-1.6-2.9,0-2-1.5-2-3.9-.1Z"/>
        <path class="cls-1" d="M926.6,287.5c-.4,1.2-2.7,1.5-12,1.5s-11.6.4-11.8,1.2c-.4,1.2-24.4,3.6-37,3.7-5.7.1-5.8.1-14.3,7.8-7.2,6.5-8.5,8.1-8.5,10.7s-.7,3.6-2.7,4.9c-5.9,3.5-5.8,3.2-2.7,7.1,3.4,4.2,9.1,6,10.6,3.2.6-1.1,2.3-1.6,5.3-1.6s4.6.3,7.5,4.5c1.7,2.5,3.7,4.5,4.5,4.5s1.5,1,1.5,3,.5,3,1.5,3,1.5,1.5,1.5,7.5.3,7.5,1.5,7.5,1.5,1.3,1.5,6,.3,6,1.5,6,1.5,1,1.5,2.7.9,3.4,3.5,5c2,1.3,4.5,4.4,6,7.3,2.6,5.1,4.7,6.8,10.2,8.1,3.3.7,3.3.6,6.9-6.2,6.2-11.8,15.6-17.8,30.2-19.6,5-.6,5.2-.7,6.3-4.5.5-2.1,1.7-4.2,2.5-4.5.7-.3,1.4-1.6,1.4-3s1-2.9,3-4.1c2.2-1.2,3-2.4,3-4.5s.8-3.2,3-4.5l3-1.7v-26.4l2.6-1.3c1.4-.7,4.2-3.4,6-6l3.5-4.6-4.6-3.2c-2.5-1.7-4.5-3.7-4.5-4.5s-1-1.5-2.8-1.5-3.2-.7-4-2.5c-1.1-2.5-1.4-2.5-12.6-2.5s-11.5.3-12,1.5Z"/>
        <path class="cls-1" d="M807.6,293.5c-.3,1-1.9,1.5-4.5,1.5s-4.1.5-4.5,1.5c-.3.8-1.6,1.5-3,1.5s-2.6.6-2.9,1.3c-.3.8-3.9,1.9-9.1,2.6-6.1.9-8.6,1.7-8.6,2.7s-1,1.4-2.5,1.4-2.5.6-2.5,1.4c0,1.7-2.2,2.6-6,2.6s-3.2.4-3.5,1c-.3.5-1.7,1-3.1,1s-2.4.6-2.4,1.5-1.2,1.5-4.4,1.5-8.4,1.8-20.8,7.4l-16.3,7.4-.3,6.1c-.2,3.4-.7,6.1-1.2,6.1s.3,1.8,1.8,4c1.7,2.6,4.2,4.5,7,5.6,3.9,1.6,4.3,2,4,4.8-.4,3.6,1,3.6-22.8.6-8.5-1.1-22.7-2.9-31.5-4s-20-2.5-25-3c-4.9-.6-10.5-1.3-12.2-1.6-2.5-.5-3.3-.3-3.3.9s-2.9,2.4-8.2,4.2c-4.6,1.5-8.6,2.9-8.9,3.1-.6.3,0,4.5,3.7,28.1l1.7,10.2,4.1,1.3q4.1,1.3,4.1,6.2c0,4.6-.2,5-2.9,5.7-1.5.4-3.5,1.7-4.3,2.8-.8,1.2-2.1,2.1-2.9,2.1s-1.4.4-1.4,1c0,2.1,5.4.9,8.5-1.9,1.8-1.5,6.5-4.1,10.4-5.6,4.2-1.6,7.1-3.3,7.1-4.1s1.1-1.4,2.9-1.4,3-.6,3.4-2c.3-1.2,1.4-2,2.7-2s2.8-.7,3.4-1.6c1.9-2.6,8.6-2.8,17.5-.5,8.4,2.1,19.4,7.8,20.5,10.7.3.9.6,4.7.6,8.4v6.9l6.2.3,6.2.3,1.2,4c.6,2.3,1.8,4.1,2.7,4.3,1.1.2,1.7,1.3,1.7,3.3s.5,2.9,1.6,2.9c1.9,0,1.5,3.8-1.1,11.2-2.1,5.9-1.4,9.3,2.5,11.3,2.3,1.2,3,2.2,3,4.5s.9,3.5,4.5,6c3.5,2.4,4.5,3.7,4.5,5.9s1,3.5,4.5,6c3.6,2.6,4.5,3.8,4.5,6.1s.7,3.3,3,4.5c1.7.9,3,2,3,2.5s2.4,1,5.4,1h5.5l6.1,7.5c5,6.1,6.7,7.5,8.9,7.5s6.1,2,10.3,4.5c7,4.3,15.6,7.5,20.5,7.5s2.4.9,3.3,4.2c.6,2.4,1.3,5.1,1.6,6,.5,1.5,1.8,1.8,8,1.8h7.5l-.3,7.7c-.3,6.9-.5,7.9-2.6,8.9-1.2.6-2.5,1.3-2.7,1.6-.5.4,2.9,10.1,9.9,28.8,1.1,2.6,3.1,4.5,8.7,8l7.4,4.6.3,5.3c.2,3.6-.7,8.7-2.8,16.4-3.3,11.5-3.9,17.3-5.6,53.2l-.7,14,3.1,2.2c1.7,1.3,4.3,4.4,5.8,7,1.5,2.7,2.9,5,3.1,5.3.5.5,7.3-3.1,7.3-3.9s-.9-2-2-3.6c-2.2-3.3-2.6-8.5-1-11.6.6-1,2.4-2.6,3.9-3.4l2.9-1.5-1.4-5.2c-2.3-8.6-2.1-9,5.9-15.1,3.9-3,10.6-9.7,14.7-14.7,4.1-5.1,8.7-9.8,10.3-10.6,1.9-1.1,2.7-2.2,2.7-4.2s2.1-4.6,11.9-13.1c13.2-11.6,11.5-8.6,18-32.1l2.9-10.5-5.2-2.7c-2.9-1.4-7.5-4.7-10.2-7.2-5-4.4-5.3-4.5-12.5-4.8l-7.4-.3-.3-7.3-.3-7.2h-16.9v-11.8l-4.7-.6c-2.7-.3-10.4-1-17.3-1.6-10.3-.8-12.6-.7-13.2.4-.7,1.3-7.1,2.7-17.6,3.9-3.9.4-4.2,0-5.6-7.7-1-5.6-1.3-6.1-3.9-6.4-3.1-.4-3.3-.7-4.2-7.2-.9-7.3-1.5-7.7-7.6-4.6-2.9,1.4-6.1,2.6-7.1,2.6s-3.1-1.9-4.8-4.7c-3.5-5.5-4-10.7-1.1-12.3,1.1-.5,2.2-2.3,2.6-3.9l.6-3,12.1-.3c11.5-.3,12.1-.2,12.9,1.8.7,2,9.5,7.2,10.4,6.2.2-.2-.3-3.3-1.1-6.8l-1.5-6.5,3.7-3c9.1-7.3,9.6-7.9,10.1-12.9.6-4.7.7-5,5.4-6.9,4.7-2,4.9-2.2,4.9-6.2s.6-4.7,3.3-7.3c2-1.9,4.3-3.2,5.9-3.2s3.1-.9,4.6-3.4c1.6-2.7,3.5-3.9,9.3-6.1,4.1-1.5,8.5-3.8,9.8-5.1l2.4-2.3-2.9-2.4c-1.7-1.4-5.6-6.2-8.9-10.6-3.3-4.5-6.5-8.1-7.2-8.1s-1.3-1.2-1.3-2.8v-2.8l-14.7-2.7c-8.2-1.5-15.3-2.7-15.9-2.7s-1.3,4-1.7,10.7c-.3,6-1.1,12.5-1.7,14.5-1,3.4-1.4,3.8-4.4,3.8s-3.6-.5-6.2-5.8c-2.6-5-3.3-5.7-5.9-5.7-2-.1-3.1-.6-3.3-1.8-.3-1.4-1.5-1.7-6.1-1.7s-6.1-.4-8.6-3c-2.7-2.8-2.8-3-1.5-7.6,1.2-4.3,1.8-4.9,6.9-7.2,3.9-1.8,7.9-2.7,13.4-3l7.8-.5-.6-3.9c-.4-2.2-.4-6.9,0-10.4l.7-6.4h5.7c3.2,0,6,.2,6.3.5s-.1,4.2-1,8.6c-.8,4.4-1.2,8.2-1,8.4.3.3,6.1,1.1,13.1,1.8l12.6,1.2,5.6-6.7c3-3.7,5.5-7,5.5-7.2,0-.3-9.2-7.8-20.5-16.6-17.7-14-20.5-16.6-20.5-18.9s4.5-8.1,22.3-26.4c4.3-4.4,7.5-8.2,7.2-8.6-.7-.6-25.1-2.9-32.6-3-3.3-.1-4.9.3-5.3,1.4Z"/>
        <path class="cls-2" d="M412,314.5v6.5h3c4.4,0,10.7,3.5,12.5,7,1.3,2.6,1.5,20.8,1.5,154.8s-.3,152.8-1.1,155.1c-1.3,3.7-4.5,5.6-11.1,6.5l-4.8.7v12.9h110v-12.9l-5.2-.7c-3.5-.5-6.1-1.6-8.2-3.5l-3.1-2.7-.3-153.1c-.2-131.1,0-153.6,1.2-156.6,1.6-3.9,7.7-7.5,12.6-7.5h3v-13h-110v6.5Z"/>
        <path class="cls-2" d="M1024,314.4v6.3l4.8.5c6.3.6,12,3.4,13.7,6.9,1.3,2.4,1.5,23.8,1.5,155.6s-.2,153.1-1.6,155.1c-2.2,3.2-6,4.9-12.7,5.7l-5.8.7.3,6.2.3,6.1,165.5.5c128.3.4,166,.8,167.6,1.7,2.2,1.3,4.4,6,4.4,9.4s.8,1.9,6.5,1.9h6.5v-92h-12.6l-1.2,4.4c-1.5,5.7-6.5,10.1-13.2,11.5-3.5.8-39.3,1.1-116.5,1.1h-111.5v-132.1c0-148.6-.6-137,7.6-140.8,2.4-1.2,6-2.1,7.9-2.1h3.5v-13h-115v6.4Z"/>
        <path class="cls-2" d="M1965.7,308.7c-.4.3-.7,3.3-.7,6.5v5.8h3.3c5.5.1,11.6,3.5,13.2,7.4,2.1,5.1,2.3,303.9.2,308.9-1.9,4.5-3.8,5.8-10.4,7.1l-5.8,1.1v12l55.3.3,55.2.2v-12.8l-4.7-.7c-6.4-.9-9.8-2.8-11.2-6.2-.8-2.1-1.1-42.1-.9-156.4.3-151.6.3-153.7,2.3-155.9,2.4-2.7,7.8-5,11.6-5s2.9,0,2.9-6.5v-6.5h-54.8c-30.2,0-55.2.3-55.5.7Z"/>
        <path class="cls-1" d="M565,370.5c0,13.6-.2,15.5-1.7,16.4-1.4.8-.1,1,5.1,1.1h6.8l-.6-3.8c-.4-2-.9-4.5-1.2-5.5-.5-1.6.7-1.7,15.5-1.7s16.1-.2,16.1-1.6c0-2.9-2-5.2-5-5.9-1.7-.4-9.8-3.8-18.1-7.6s-15.5-6.9-16-6.9-.9,7-.9,15.5Z"/>
        <path class="cls-1" d="M1393.5,367.2c-1.6.6-3.1,1.2-3.3,1.3-.8.7,5,8.5,6.3,8.5s1.5.9,1.5,2.5.7,2.8,1.5,3.3c1.3.7,1.4,1.4.5,3.6-1.9,5.2-1.5,5.6,5.5,5.6h6.5v-4.1c0-3.6-.5-4.6-4.2-7.9-2.4-2.1-5.6-6.1-7.3-8.9-1.6-2.8-3.2-5-3.5-5s-1.8.5-3.5,1.1Z"/>
        <path class="cls-1" d="M955.7,370.4c-.4.9-2.3,1.6-4.7,1.8l-4,.3,3,6.2c3,6.5,5.4,7.9,8,4.8.7-.8,1.9-1.5,2.7-1.5,3,0,7.1-3.1,8.2-6.1,1.6-4.5,1.5-4.7-2.6-5.8-5.4-1.5-10-1.4-10.6.3Z"/>
        <path class="cls-1" d="M1379.2,383.8q-1.6,7.9,1.9,9.1c2.8,1,3.3.8,6.5-2.5l3.5-3.5-2.5-3c-1.4-1.7-2.6-3.7-2.6-4.5s-1-1.4-2.8-1.4c-2.6,0-2.9.4-4,5.8Z"/>
        <path class="cls-1" d="M1841.2,406c-1.3,1.1-4.2,2.5-6.3,3.1-3.8,1.2-5.3,2.9-2.4,2.9s1.9.9,2.5,2c1.4,2.5,3.6,2.6,4.3.1.4-1.8,7.6-4.1,12.7-4.1s2-.7,2-1.6c0-4.3-8.6-5.9-12.8-2.4Z"/>
        <path class="cls-1" d="M1810.6,420.1c-.3.8-1,3.6-1.6,6.4-.6,2.7-1.9,7.5-2.9,10.5-1.5,4.7-2.2,5.6-4.7,6-1.6.3-5.4,2.1-8.4,4.1s-6.9,4.3-8.6,5.2c-3.3,1.7-6.3,4.7-4.7,4.7s1.5,1.1,2.1,2.5c.8,1.7,2,2.5,3.7,2.5s2.5-.5,2.5-1,.6-1,1.3-1,5.7-2.2,11.3-4.9c10.7-5.1,13.7-7.9,16.9-15.6.9-2.2,2.8-5.2,4.2-6.7,1.8-1.9,2.6-3.9,2.7-6.7v-4.1c.1,0-5.4-1.1-5.4-1.1-3-.6-6-1.4-6.7-1.6-.7-.3-1.5.1-1.7.8Z"/>
        <path class="cls-1" d="M1443,439.5c0,2,.5,2.5,2.5,2.5s2.5-.5,2.5-2.5-.5-2.5-2.5-2.5-2.5.5-2.5,2.5Z"/>
        <path class="cls-1" d="M1811,467.5c0,2.1,2.1,14.8,2.5,15.3.2.2,2.1-.2,4.4-.9,4.4-1.3,5.3-2.8,2.2-3.6-1.1-.3-2.3-2-2.9-4.2-1.4-4.5-6.2-9.6-6.2-6.6Z"/>
        <path class="cls-1" d="M579,479.9c0,.5.7,1.4,1.5,2.1s1.5,1.9,1.5,2.6c0,1.7,1.6,1.7,5.5,0l3-1.3-3.5-2.1c-3.5-2.2-8-2.9-8-1.3Z"/>
        <path class="cls-1" d="M825.4,489.9c2,2.2,2.6,2.5,2.6,1.3s-1-1.3-2.2-2.1q-2.3-1.4-.4.8Z"/>
        <path class="cls-1" d="M604,492.1c0,1.4,6.4,7.4,12.4,11.6,4.6,3.3,4.7,3.3,11.4,2.3,9.1-1.3,11.2-1.2,11.2.3s7.2,4.4,7.4,3.4c.1-.1.7-1.2,1.4-2.5,1.2-2.1,1-2.7-2-6.2s-3.8-4-4.3-4.3c-.6-.3-5,.2-9.8,1.1l-8.6,1.5-8.5-4.1c-8.9-4.4-10.6-4.9-10.6-3.1Z"/>
        <path class="cls-1" d="M809.5,499c-.3.6.5,1.4,1.9,2,1.4.5,2.6,1.4,2.6,2s2.4,1,5.5,1c5.1,0,5.5-.2,5.5-2.4s-.6-2.4-3.7-3c-5.7-.9-11.1-.7-11.8.4Z"/>
        <path class="cls-1" d="M833.9,506.4c1.3,1.6,14.3,6.9,19.6,8.1l3,.6-2.7-2.4c-2.9-2.7-10.9-6-17.2-7.1-3.5-.7-3.8-.6-2.7.8Z"/>
        <path class="cls-1" d="M1733.3,539.5c-6,7.6-8.3,12.9-8.3,19.2s1.6,5.3,6.5,5.4c2.2.1,5.1.4,6.5.8,2.1.6,3,.1,5.3-2.8,4.2-5.2,5.5-8.2,6.2-13.7.5-4.8.5-5-4.8-10.7l-5.3-5.9-6.1,7.7Z"/>
        <path class="cls-1" d="M1759.5,551.2c-.2.7-1.5,4.3-2.8,8l-2.5,6.8h4.4c3.4,0,4.4-.4,4.4-1.6s.9-3.1,1.9-4.8,2.2-4.6,2.6-6.4l.7-3.2h-4.2c-2.3,0-4.2.5-4.5,1.2Z"/>
        <path class="cls-1" d="M1784,562.8c0,8.7,1.1,9.8,11.1,11.2,4,.6,8.1,1.2,8.9,1.5,1.4.4,30.6,5.5,31.6,5.5s.1-1.9-1.6-2.3c-1.5-.4-2-1.4-2-3.9s-.8-4.2-2.5-5.8c-1.4-1.3-2.5-2.9-2.5-3.7s-.4-1.3-.8-1.3-9.7-1.8-20.5-4c-10.7-2.2-20-4-20.6-4s-1.1,2.6-1.1,6.8Z"/>
        <path class="cls-1" d="M1784,589.5c0,.8-1.2,1.7-2.7,2-1.6.3-6.1,2.2-10.1,4.1-5.4,2.5-7.8,4.3-9.3,6.9-1.6,2.7-2.7,3.5-5,3.5s-3.2.7-4.4,3-2.2,3-4.5,3-3.3.7-4.4,2.9c-1.1,2-2.9,3.3-5.8,4.2l-4.3,1.4-.3,10.2-.3,10.2,4,1.1c2.2.6,4.3,1.5,4.6,2,.4.6.1,4.4-.6,8.5s-1,7.7-.7,8c.3.4,8.1-.6,17.2-2.2l16.7-2.7,1.9-3.3c2.1-3.6,4-4.2,6-1.8.6.8,3.6,2.5,6.5,3.9,3,1.3,6,3.4,6.7,4.5.7,1.2,2.3,2.1,3.6,2.1s2.7,1,3.9,3.5c2.5,5.2,8.6,7.8,19.4,8.3l8.6.4.7-3.4c.3-1.8,3.3-8.1,6.6-13.8,5.4-9.5,10-20.8,10-24.7s-1.9-3.6-4.2-6.2c-2.4-2.6-6.8-9.2-9.8-14.7-5.7-10.2-14.6-20.6-18.7-21.6-2.2-.6-2.3-.3-2.3,5.3v5.9h-4.8c-4.3,0-5.4-.5-10.1-4.5-8.1-6.9-14.1-9.5-14.1-6Z"/>
        <path class="cls-1" d="M1540.9,598.1c-5.6,7.1-8.8,14.1-8.8,19.4-.1,2.6.7,3.4,6.4,6.7,3.5,2.1,6.6,3.8,6.8,3.8s.7-1.7,1-3.8c.4-2,2.3-8.6,4.2-14.6,4.4-13.2,4.3-15.5-.6-17.1l-3.5-1.3-5.5,6.9Z"/>
        <path class="cls-1" d="M683.5,595c-2.9,1.1-5.8,4.7-5.2,6.3s1.8,1.7,3.4,2c1.5.3,3.6.9,4.6,1.2,1.4.6,1.7.2,1.7-2.6-.1-4.9-2-7.8-4.5-6.9Z"/>
        <path class="cls-1" d="M695.2,611.6c.2,2,1.2,2.9,4.1,3.9,3,1,3.7,1,3.7-.1s.8-1.7,1.7-2.3c3-1.6-.2-4.1-5.4-4.1s-4.4.1-4.1,2.6Z"/>
        <path class="cls-1" d="M1899,649.3c0,.9-.4,1.7-1,1.7s-1,1.6-1,3.6c0,2.9.8,4.4,4,7.5,4.1,4,5,5.9,2.7,5.9s-1.9,1.6-2.6,3.5c-1.7,4.8-12.3,16.9-16.1,18.5-2.3,1-3,1.9-3,4s.7,3,1.5,3.4c1,.3,1.5,1.9,1.5,4.6q0,4,3.9,4c3.5,0,4.3-.5,7.5-4.8,2-2.6,5.2-6.7,7.1-9.2s4.2-6.7,5-9.4c1.7-5.7,2-11.6.5-11.6s-1-3.1-1-7.3v-7.3l-4.5-4.4c-3.2-3.1-4.5-3.9-4.5-2.7Z"/>
        <path d="M407,731.5v7.5h1666v-15H407v7.5Z"/>
        <path class="cls-2" d="M723.5,771.6c-5.3,2-11.1,7.8-13.2,13.3-2.5,6.3-2.4,20,0,26.3,2.2,5.6,9.2,12.3,14.7,13.9,2,.6,7.1,1,11.2.8,9.9-.5,15.7-4,20.2-11.9,2.9-5.2,3.1-6.1,3.1-16s-.4-11.1-2.4-14.9c-4.8-9.1-11.7-13.1-22.6-13-3.8,0-8.8.7-11,1.5ZM741.9,781.7c8.9,6.5,8.9,26.1,0,32.6-3.8,2.7-9.7,3.2-13.9,1-5.4-2.8-8-8.3-8-17.3s2.6-14.5,8-17.3c4.2-2.2,10.1-1.7,13.9,1Z"/>
        <path class="cls-2" d="M1511.5,771.4c-1.6.8-4.3,2.8-5.9,4.5-2.4,2.5-3.1,4.2-3.4,8.9-.8,10.8,2.3,13.7,18.3,17.7,5,1.2,10.1,2.8,11.3,3.4,2.6,1.4,3,6.2.7,8.5s-7.6,3-12.3,2.3c-3.8-.6-8.2-4.5-8.2-7.3s-1.4-1.4-5.5-1.4c-6.1,0-6.6.9-4.4,6.7,2.8,7.5,9.9,11.2,21.4,11.3,12.4,0,19.4-4.4,21.5-13.3,1-4.7-.2-10.3-3.1-13.3-2.5-2.7-6.8-4.4-19.2-7.5-7.5-1.9-9-2.6-9.8-4.7-2-5.3,4.4-9.3,12.5-7.8,3.4.6,5.8,2.7,6.9,5.8.5,1.4,1.8,1.8,6.2,1.8s5.5,0,4.9-2.8c-2.4-9.9-9-14.2-21.6-14.2-4,.1-8.6.7-10.3,1.4Z"/>
        <path class="cls-2" d="M1938.5,771.4c-1.6.8-4.3,2.8-5.9,4.5-2.4,2.5-3.1,4.2-3.4,8.9-.8,10.8,2.3,13.7,18.3,17.7,11.8,2.9,13.5,3.8,13.5,7.4s-3.1,6.3-8.7,6.8c-6.3.6-9.9-.9-12.4-5.2-1.9-3.2-2.5-3.5-7-3.5s-6,1-3.8,6.7c2.8,7.5,9.9,11.2,21.4,11.3,14.2,0,21.5-5.8,21.5-17.1s-3.2-12.2-22.4-17c-7-1.8-9-2.7-9.8-4.5-1.5-3.3,1.2-7.1,5.7-8,6.8-1.2,12.1,1,13.8,5.8.5,1.4,1.8,1.8,6.2,1.8s5.5,0,4.9-2.8c-1.5-6.2-4.2-9.6-10.1-12.6-4-2-17.5-2.1-21.8-.2Z"/>
        <path class="cls-2" d="M99,798v27h11v-54h-11v27Z"/>
        <path class="cls-2" d="M147,798v27h10v-18.5c0-10.2.3-18.5.8-18.5.4.1,5.4,8.4,11.1,18.5l10.4,18.5h11.7v-54h-11l-.2,18.2-.3,18.2-10.3-18.2-10.4-18.2h-11.8v27Z"/>
        <path class="cls-2" d="M221.2,775.7l.3,4.8,7.8.3,7.7.3v43.9h12v-44h16v-10h-44.1l.3,4.7Z"/>
        <path class="cls-2" d="M296,798v27h41v-10h-30.1l.3-6.8.3-6.7,12.8-.3,12.7-.3v-8.9h-26v-10.9l14.3-.3,14.2-.3v-9l-19.7-.3-19.8-.2v27Z"/>
        <path class="cls-2" d="M365,798v27h10.9l.3-10.3.3-10.2,8-.3c10.7-.4,11.8.4,12.2,9.4.6,11.8.4,11.4,7.9,11.4h6.5l-1.5-2.2c-1.1-1.6-1.6-4.6-1.6-9.9s-.3-8.1-2.6-10.9q-2.7-3.1-.7-4.5c1.2-.8,2.8-3.3,3.7-5.6,2.2-5.4,1.3-10.9-2.2-15.1-4.3-5.1-7.4-5.8-25.2-5.8h-16v27ZM392.9,781c4.1,1.1,5.1,2.4,5.1,6.7s-4.2,7.7-15.5,7.1l-6-.3-.3-5.9c-.2-3.2-.1-6.5.2-7.2.6-1.7,11.3-1.9,16.5-.4Z"/>
        <path class="cls-2" d="M438,798v27h11v-37.5l10.7,18.7,10.7,18.8h11.6v-54h-11l-.2,18.1-.3,18.1-10.1-17.8-10.2-17.9-6.1-.3-6.1-.3v27.1Z"/>
        <path class="cls-2" d="M533.5,772.2c-2.3,6.2-17.4,48.8-17.9,50.5-.7,2.2-.5,2.3,5.3,2.3h6l1.7-5.5,1.8-5.6,10,.3,9.9.3,1.7,5,1.7,5,6.2.3c5.7.3,6.2.1,5.7-1.5-.3-1-4.6-13.1-9.5-26.8l-8.8-25-6.7-.3c-4.7-.2-6.8.1-7.1,1ZM544.3,795.7l2.5,8.3h-6.4c-5.8,0-6.5-.2-6-1.8.3-.9,1.5-4.9,2.7-8.7,3.3-10.9,3.2-10.9,7.2,2.2Z"/>
        <path class="cls-2" d="M588,776v5h16v44h12v-44h16v-10h-44v5Z"/>
        <path class="cls-2" d="M663,798v27h12v-54h-12v27Z"/>
        <path class="cls-2" d="M794,798v27h11l.2-18.5.3-18.4,10.5,18.4,10.5,18.5h11.5v-54h-11l-.2,17.9-.3,18-10.1-17.7-10.1-17.7-6.2-.3-6.1-.3v27.1Z"/>
        <path class="cls-2" d="M888.2,773.7c-.5,1.6-4.6,12.9-9,25.3s-8.3,23.3-8.7,24.2c-.6,1.6,0,1.8,5.3,1.8h6.1l1.9-5.3,2-5.2,9.9-.3,9.9-.3,1.8,5.6,1.7,5.5h6c4.6,0,6-.3,5.7-1.3-.2-.8-4.3-12.9-9.3-27l-9-25.7h-6.6c-6.4,0-6.7.1-7.7,2.7ZM899,793.7c1.6,5.3,2.8,9.8,2.6,10s-3.1.3-6.4.1l-6-.3,3.1-9.8c1.7-5.3,3.2-9.7,3.3-9.7.2,0,1.7,4.4,3.4,9.7Z"/>
        <path class="cls-2" d="M954,798v27h38v-10h-27v-44h-11v27Z"/>
        <path class="cls-2" d="M1061,798v27h39v-10h-27v-44h-12v27Z"/>
        <path class="cls-2" d="M1128,798v27h41v-10h-30.1l.3-6.8.3-6.7,12.8-.3,12.7-.3v-8.9h-26v-10.9l14.3-.3,14.2-.3.3-4.8.3-4.7h-40.1v27Z"/>
        <path class="cls-2" d="M1213.6,771.8c-.7,1.2-18.6,51.5-18.6,52.4s2.6.8,5.8.8h5.8l1.8-5.5,1.7-5.6,10.1.3,10.1.3,1.5,5.2,1.5,5.3h12.6l-5.5-15.8c-3.1-8.6-6.9-19.3-8.4-23.7-5.7-16.2-4.3-14.5-11.5-14.5s-6.6.4-6.9.8ZM1223.7,794.2l2.9,9.3-5.9.3c-3.3.2-6.1.1-6.4-.1-.6-.6,5-18.7,5.8-18.7s2,4.2,3.6,9.2Z"/>
        <path class="cls-2" d="M1277.5,772.3c-.3.7-.4,12.7-.3,26.7l.3,25.5,13.5.3c15.3.3,19.8-.8,24.9-6,6.3-6.5,9.1-22.3,5.9-33-1.6-5.5-7.8-12.2-12.6-13.6-5.5-1.7-31.1-1.6-31.7.1ZM1304,781.3c5,1.7,7.4,7.1,7.4,16.2-.1,8.1-2,13.6-5.8,16.1-1.6,1-5.5,1.9-9.6,2.2l-7,.5v-36.3h5.8c3.1.1,7.3.6,9.2,1.3Z"/>
        <path class="cls-2" d="M1356,798v27h41v-10h-30.1l.3-6.8.3-6.7,13.3-.3,13.2-.3v-8.8l-13.2-.3-13.3-.3-.3-5.2-.3-5.2,14.3-.3,14.3-.3.3-4.8.3-4.7h-40.1v27Z"/>
        <path class="cls-2" d="M1431,798v27h11v-21h8c10.2,0,12,1.4,12,9.4s.3,6.8.6,8.5c.6,3.1.7,3.1,7,3.1s7.9-.9,5.4-2.5c-.5-.3-1-3-1-5.8-.1-8-1.6-13.9-3.9-15.8l-2.1-1.7,2.9-3c5.5-5.4,5.3-14.9-.3-20.6-4.2-4.2-6.5-4.6-24.7-4.6h-14.9v27ZM1459.4,781.4c3.8,1.6,5.2,5,3.6,9-1.3,3.5-4.6,4.6-13.6,4.6h-7.4v-15h7c3.9,0,8.6.6,10.4,1.4Z"/>
        <path class="cls-2" d="M1574,798v27h12v-24h20v24h12v-54h-12v20h-20v-20h-12v27Z"/>
        <path class="cls-2" d="M1652,798v27h12v-54h-12v27Z"/>
        <path class="cls-2" d="M1698,798v27h12v-18.8l8.8-.4c11.1-.5,15.7-2.7,18.9-8.8,4.7-8.8,1.8-20.1-6.1-23.9-3.7-1.8-6.1-2.1-18.9-2.1h-14.7v27ZM1725.9,781.9c4,2.2,3.5,10.7-.8,13-1.1.6-4.9,1.1-8.5,1.1h-6.6v-16.3l6.9.6c3.9.3,7.9,1,9,1.6Z"/>
        <path class="cls-2" d="M1806,798v27h12v-54h-12v27Z"/>
        <path class="cls-2" d="M1852,798v27h10v-18.6c0-10.4.4-18.3.9-18s5.5,8.7,11.1,18.6l10.2,18h11.8v-54h-11l-.2,18.2-.3,18.3-10.4-18.3-10.3-18.2h-11.8v27Z"/>
        <path class="cls-2" d="M1999,776v5h16v44.1l5.8-.3,5.7-.3.3-21.7.2-21.7,7.8-.3,7.7-.3.3-4.8.3-4.7h-44.1v5Z"/>
        <path class="cls-2" d="M2073,798v27h11v-54h-11v27Z"/>
        <path class="cls-2" d="M2114.2,775.7l.3,4.8,7.8.3,7.7.3v43.9h12v-44h16v-10h-44.1l.3,4.7Z"/>
        <path class="cls-2" d="M2189,792.1c0,24,.5,26.2,7.3,30.7,3.2,2.1,5.5,2.8,11.4,3,9.9.5,13.7-.3,18-4.1,5.9-5.2,6.3-7.2,6.3-30.2v-20.6l-5.6.3-5.6.3v16.8c.3,18.8-.2,22.6-2.9,25.6-2.5,2.7-8.1,3.7-12,2-5.2-2.1-5.9-5.4-5.9-26.4v-18.5h-11v21.1Z"/>
        <path class="cls-2" d="M2263,776v5h16v44h11v-43.9l8.3-.3,8.2-.3.3-4.8.3-4.7h-44.1v5Z"/>
        <path class="cls-2" d="M2337,798v27h41v-10h-29v-14h26v-9h-26v-11h28v-10h-40v27Z"/>
      </g>
    </g>
  </g>
</svg>