<?xml version="1.0" standalone="no"?>
<!DOCTYPE svg PUBLIC "-//W3C//DTD SVG 20010904//EN"
 "http://www.w3.org/TR/2001/REC-SVG-20010904/DTD/svg10.dtd">
<svg version="1.0" xmlns="http://www.w3.org/2000/svg"
 width="2484.000000pt" height="929.000000pt" viewBox="0 0 2484.000000 929.000000"
 preserveAspectRatio="xMidYMid meet">

<g transform="translate(0.000000,929.000000) scale(0.100000,-0.100000)"
fill="#000000" stroke="none">
<path d="M4070 6865 l0 -75 8330 0 8330 0 0 75 0 75 -8330 0 -8330 0 0 -75z"/>
<path fill='#3573b9' d="M16001 6589 c-13 -10 -35 -19 -50 -19 -44 0 -69 -11 -74 -31 -4 -13
-14 -19 -35 -19 -23 0 -31 -5 -36 -24 -3 -13 -44 -55 -96 -97 -49 -41 -90 -77
-90 -81 0 -4 32 -44 70 -90 50 -59 66 -84 55 -86 -8 -2 -15 -10 -15 -18 0 -11
-22 -14 -115 -14 -94 0 -117 -3 -121 -15 -4 -8 -18 -15 -34 -15 -21 0 -30 -7
-40 -30 -10 -24 -19 -30 -42 -30 -22 0 -33 -7 -46 -30 -12 -21 -25 -30 -43
-30 -18 0 -28 -6 -32 -19 -5 -20 -95 -48 -121 -38 -17 7 -67 107 -60 118 3 5
41 9 85 9 92 0 119 16 119 74 l0 34 -62 7 c-35 4 -115 24 -178 44 l-116 38
-104 -17 c-58 -10 -143 -23 -190 -29 -85 -12 -85 -13 -115 -57 -16 -24 -36
-44 -42 -44 -8 0 -13 -12 -13 -29 0 -24 -8 -35 -45 -58 -38 -24 -45 -33 -45
-60 0 -26 -6 -36 -30 -48 -23 -12 -30 -22 -30 -44 0 -23 -7 -32 -30 -43 -29
-13 -30 -14 -30 -86 l0 -73 53 7 c28 4 60 11 69 15 23 12 28 11 28 -4 0 -8 7
-28 16 -45 15 -31 17 -32 84 -32 l68 0 16 47 c22 65 21 116 -4 138 -25 22 -26
45 -2 52 9 3 28 28 42 56 26 54 67 83 125 89 29 3 30 2 33 -44 3 -45 2 -46
-32 -58 -38 -12 -46 -25 -46 -75 0 -32 2 -34 48 -44 38 -8 49 -7 58 4 8 10 30
15 68 15 l56 0 0 -35 c0 -25 -4 -35 -16 -35 -9 0 -28 -9 -44 -20 -15 -10 -45
-22 -68 -26 -61 -10 -101 -39 -123 -89 l-20 -45 -130 0 -130 0 -17 30 c-12 22
-24 30 -44 30 -23 0 -28 -4 -28 -25 0 -15 7 -39 15 -55 9 -18 11 -30 5 -30 -6
0 -38 -28 -73 -63 -47 -48 -84 -74 -154 -108 l-92 -44 31 -68 31 -67 -34 -35
-35 -34 -82 13 c-45 7 -82 10 -82 7 0 -21 83 -251 91 -251 5 0 9 6 9 13 0 7
41 46 90 87 50 41 90 81 90 91 0 12 11 19 38 23 75 14 112 27 112 40 0 17 21
26 78 36 42 7 43 6 87 -45 40 -47 64 -89 79 -137 4 -15 10 -16 33 -7 35 13 43
25 43 70 0 27 -8 42 -31 65 -30 29 -60 77 -73 122 -7 20 -4 22 27 22 33 0 36
-3 49 -42 11 -33 29 -54 71 -86 l57 -43 0 -60 c0 -46 3 -59 15 -59 10 0 15
-10 15 -30 0 -18 5 -30 13 -30 8 0 24 -11 36 -24 13 -13 32 -27 43 -29 18 -5
20 -2 14 26 -18 89 -19 117 -3 117 19 0 72 -63 94 -112 15 -33 18 -35 41 -27
14 5 42 23 62 39 56 44 61 41 58 -42 l-3 -73 -35 -11 c-19 -6 -79 -14 -132
-16 -82 -4 -98 -3 -100 10 -2 11 -24 20 -68 28 -96 19 -109 18 -122 -11 -13
-29 -27 -30 -129 -14 -42 7 -69 17 -69 24 0 7 -9 15 -19 18 -16 4 -20 15 -23
58 l-3 54 -137 3 c-110 2 -138 0 -138 -11 0 -7 -15 -18 -33 -25 -47 -17 -177
-129 -177 -152 0 -14 -8 -20 -32 -22 -25 -2 -39 -12 -59 -43 -15 -22 -52 -58
-83 -80 l-56 -40 0 -196 0 -196 85 -69 c46 -38 87 -77 90 -86 6 -16 24 -18
192 -18 l186 0 48 -45 c27 -25 60 -50 74 -57 32 -14 32 -42 0 -74 -29 -29 -30
-34 -11 -34 17 0 152 -159 166 -195 17 -45 11 -81 -23 -147 -47 -87 -52 -114
-27 -128 14 -8 20 -21 20 -46 0 -20 7 -42 15 -50 8 -9 15 -24 15 -35 0 -10 6
-19 14 -19 8 0 17 -12 20 -27 32 -143 81 -295 97 -304 10 -5 56 -15 101 -21
46 -6 86 -15 89 -20 11 -16 140 115 231 235 50 64 96 121 103 125 10 5 15 32
17 82 3 73 4 75 30 78 28 3 60 39 72 80 3 12 9 31 12 42 4 14 1 20 -10 20 -10
0 -18 17 -25 53 -24 123 -24 125 -3 136 11 6 22 21 26 34 11 44 55 111 152
232 85 107 166 237 153 249 -2 2 -33 -2 -69 -10 -109 -23 -118 -21 -187 46
-35 33 -70 60 -78 60 -11 0 -15 11 -15 45 0 39 -3 46 -30 60 -26 14 -30 21
-30 59 0 34 -4 45 -19 49 -26 6 -57 95 -66 190 l-7 77 51 0 51 0 132 -264
c149 -299 123 -274 238 -224 129 55 199 110 226 175 14 32 13 35 -13 68 -26
32 -32 35 -81 35 -76 0 -117 23 -153 84 -16 28 -29 54 -29 59 0 13 120 8 125
-5 4 -9 25 -12 71 -10 59 3 66 2 71 -17 3 -12 6 -21 7 -22 0 0 51 -4 111 -8
84 -6 122 -13 162 -32 l53 -24 0 -71 0 -70 44 -31 c49 -35 65 -71 87 -201 11
-61 12 -63 38 -58 14 3 46 8 71 11 84 12 80 6 80 106 l0 89 30 0 c23 0 35 9
59 44 22 31 42 48 68 57 53 16 63 27 63 64 0 36 12 50 53 60 l27 7 0 -67 c0
-54 4 -70 19 -83 11 -10 36 -69 57 -136 28 -86 43 -120 56 -124 12 -3 18 -14
18 -33 0 -19 5 -29 15 -29 10 0 15 -10 15 -30 0 -20 5 -30 15 -30 8 0 15 -5
15 -10 0 -6 -7 -13 -15 -16 -8 -4 -15 -13 -15 -21 0 -16 -29 -14 -72 2 -14 6
-18 2 -18 -18 0 -19 13 -35 48 -61 70 -51 187 -177 222 -239 l30 -54 117 -22
c65 -12 128 -25 141 -28 21 -5 23 -2 20 22 -3 24 -16 33 -128 84 l-125 57 -3
42 c-2 23 -8 42 -13 42 -18 0 -80 54 -95 82 -23 43 -18 48 46 48 57 0 60 1 60
25 0 20 -8 28 -40 41 -22 9 -50 29 -61 45 -11 16 -27 29 -34 29 -8 0 -17 10
-20 23 -19 83 -25 120 -21 124 2 3 18 2 34 -2 28 -6 92 -71 92 -94 0 -22 47
-10 74 18 16 16 41 35 57 41 16 7 29 17 29 22 0 6 -16 35 -34 66 -65 106 -75
91 156 223 181 104 203 119 206 144 2 16 -2 40 -10 53 -16 32 -16 209 1 270
l12 42 49 0 c54 0 54 0 65 -81 9 -58 20 -77 38 -64 7 6 35 26 61 45 51 38 49
29 29 133 -5 25 -3 27 27 27 22 0 38 8 52 25 10 13 50 48 88 76 68 50 70 53
70 95 l0 44 58 0 57 0 -3 111 -3 111 -32 -6 c-18 -4 -49 -9 -70 -13 l-38 -6 3
62 3 62 74 25 c92 31 132 51 152 76 16 20 24 21 312 42 73 5 77 5 77 -15 0
-29 -25 -74 -55 -97 l-25 -20 15 -113 c8 -62 15 -116 15 -121 0 -4 5 -8 10 -8
6 0 10 6 10 14 0 8 4 16 9 18 4 2 35 39 68 83 33 44 70 89 82 99 18 16 21 30
21 92 l0 72 48 6 c26 3 98 11 160 17 l112 12 0 228 0 229 -42 0 c-24 0 -108
-5 -187 -12 -113 -9 -146 -9 -149 0 -2 7 -15 12 -29 12 -16 0 -27 7 -30 19 -5
20 -27 23 -315 37 l-128 7 -1 31 c0 22 -10 39 -33 58 l-34 28 -55 -43 c-31
-23 -57 -48 -57 -56 0 -11 -18 -13 -102 -8 -137 8 -558 36 -683 45 l-100 7 0
34 c0 35 0 35 86 63 79 27 86 32 98 65 7 19 9 39 5 43 -5 4 -81 19 -169 34
-134 21 -161 23 -167 12 -5 -8 -125 -53 -269 -101 l-261 -87 -18 -44 c-13 -29
-26 -44 -37 -44 -10 0 -83 11 -162 25 -79 14 -151 25 -160 25 -27 -1 -110
-107 -122 -156 -11 -44 -13 -45 -43 -39 -82 17 -236 127 -236 168 0 8 32 39
70 68 40 31 70 61 70 71 0 15 9 18 44 18 34 0 45 4 49 19 3 13 18 20 53 26 27
4 57 11 67 17 17 9 17 11 3 27 -9 10 -16 23 -16 29 0 20 -15 20 -39 1z"/>
<path fill='#3573b9' d="M9266 6415 c-4 -12 -27 -15 -120 -15 -80 0 -116 -4 -118 -12 -4 -12
-244 -36 -370 -37 -57 -1 -58 -1 -143 -78 -72 -65 -85 -81 -85 -107 0 -24 -7
-36 -27 -49 -59 -35 -58 -32 -27 -71 34 -42 91 -60 106 -32 6 11 23 16 53 16
41 0 46 -3 75 -45 17 -25 37 -45 45 -45 10 0 15 -10 15 -30 0 -20 5 -30 15
-30 12 0 15 -15 15 -75 0 -60 3 -75 15 -75 12 0 15 -13 15 -60 0 -47 3 -60 15
-60 10 0 15 -10 15 -27 0 -21 9 -34 35 -50 20 -13 45 -44 60 -73 26 -51 47
-68 102 -81 33 -7 33 -6 69 62 62 118 156 178 302 196 50 6 52 7 63 45 5 21
17 42 25 45 7 3 14 16 14 30 0 16 10 29 30 41 22 12 30 24 30 45 0 21 8 32 30
45 l30 17 0 132 0 132 26 13 c14 7 42 34 60 60 l35 46 -46 32 c-25 17 -45 37
-45 45 0 10 -10 15 -28 15 -21 0 -32 7 -40 25 -11 25 -14 25 -126 25 -92 0
-115 -3 -120 -15z"/>
<path fill='#3573b9' d="M8076 6355 c-3 -10 -19 -15 -45 -15 -25 0 -41 -5 -45 -15 -3 -8 -16
-15 -30 -15 -13 0 -26 -6 -29 -13 -3 -8 -39 -19 -91 -26 -61 -9 -86 -17 -86
-27 0 -8 -10 -14 -25 -14 -15 0 -25 -6 -25 -14 0 -17 -22 -26 -60 -26 -16 0
-32 -4 -35 -10 -3 -5 -17 -10 -31 -10 -15 0 -24 -6 -24 -15 0 -11 -12 -15 -44
-15 -34 0 -84 -18 -208 -74 l-163 -74 -3 -61 c-2 -34 -7 -61 -12 -61 -6 0 3
-18 18 -40 17 -26 42 -45 70 -56 39 -16 43 -20 40 -48 -4 -36 10 -36 -228 -6
-85 11 -227 29 -315 40 -88 11 -200 25 -250 30 -49 6 -105 13 -122 16 -25 5
-33 3 -33 -9 0 -9 -29 -24 -82 -42 -46 -15 -86 -29 -89 -31 -6 -3 0 -45 37
-281 l17 -102 41 -13 c41 -13 41 -13 41 -62 0 -46 -2 -50 -29 -57 -15 -4 -35
-17 -43 -28 -8 -12 -21 -21 -29 -21 -8 0 -14 -4 -14 -10 0 -21 54 -9 85 19 18
15 65 41 104 56 42 16 71 33 71 41 0 9 11 14 29 14 20 0 30 6 34 20 3 12 14
20 27 20 13 0 28 7 34 16 19 26 86 28 175 5 84 -21 194 -78 205 -107 3 -9 6
-47 6 -84 l0 -69 62 -3 62 -3 12 -40 c6 -23 18 -41 27 -43 11 -2 17 -13 17
-33 0 -20 5 -29 16 -29 19 0 15 -38 -11 -112 -21 -59 -14 -93 25 -113 23 -12
30 -22 30 -45 0 -23 9 -35 45 -60 35 -24 45 -37 45 -59 0 -21 10 -35 45 -60
36 -26 45 -38 45 -61 0 -23 7 -33 30 -45 17 -9 30 -20 30 -25 0 -6 24 -10 54
-10 l55 0 61 -75 c50 -61 67 -75 89 -75 16 0 61 -20 103 -45 70 -43 156 -75
205 -75 18 0 24 -9 33 -42 6 -24 13 -51 16 -60 5 -15 18 -18 80 -18 l75 0 -3
-77 c-3 -69 -5 -79 -26 -89 -12 -6 -25 -13 -27 -16 -5 -4 29 -101 99 -288 11
-26 31 -45 87 -80 l74 -46 3 -53 c2 -36 -7 -87 -28 -164 -33 -115 -39 -173
-56 -532 l-7 -140 31 -22 c17 -13 43 -44 58 -70 15 -27 29 -50 31 -53 5 -5 73
31 73 39 0 3 -9 20 -20 36 -22 33 -26 85 -10 116 6 10 24 26 39 34 l29 15 -14
52 c-23 86 -21 90 59 151 39 30 106 97 147 147 41 51 87 98 103 106 19 11 27
22 27 42 0 23 21 46 119 131 132 116 115 86 180 321 l29 105 -52 27 c-29 14
-75 47 -102 72 -50 44 -53 45 -125 48 l-74 3 -3 73 -3 72 -84 0 -85 0 0 59 0
59 -47 6 c-27 3 -104 10 -173 16 -103 8 -126 7 -132 -4 -7 -13 -71 -27 -176
-39 -39 -4 -42 0 -56 77 -10 56 -13 61 -39 64 -31 4 -33 7 -42 72 -9 73 -15
77 -76 46 -29 -14 -61 -26 -71 -26 -11 0 -31 19 -48 47 -35 55 -40 107 -11
123 11 5 22 23 26 39 l6 30 121 3 c115 3 121 2 129 -18 7 -20 95 -72 104 -62
2 2 -3 33 -11 68 l-15 65 37 30 c91 73 96 79 101 129 6 47 7 50 54 69 47 20
49 22 49 62 0 33 6 47 33 73 20 19 43 32 59 32 19 0 31 9 46 34 16 27 35 39
93 61 41 15 85 38 98 51 l24 23 -29 24 c-17 14 -56 62 -89 106 -33 45 -65 81
-72 81 -8 0 -13 12 -13 28 l0 28 -147 27 c-82 15 -153 27 -159 27 -7 0 -13
-40 -17 -107 -3 -60 -11 -125 -17 -145 -10 -34 -14 -38 -44 -38 -31 0 -36 5
-62 58 -26 50 -33 57 -59 57 -20 1 -31 6 -33 18 -3 14 -15 17 -61 17 -50 0
-61 4 -86 30 -27 28 -28 30 -15 76 12 43 18 49 69 72 39 18 79 27 134 30 l78
5 -6 39 c-4 22 -4 69 0 104 l7 64 57 0 c32 0 60 -2 63 -5 3 -3 -1 -42 -10 -86
-8 -44 -12 -82 -10 -84 3 -3 61 -11 131 -18 l126 -12 56 67 c30 37 55 70 55
72 0 3 -92 78 -205 166 -177 140 -205 166 -205 189 0 28 45 81 223 264 43 44
75 82 72 86 -7 6 -251 29 -326 30 -33 1 -49 -3 -53 -14z"/>
<path d="M4120 6145 l0 -65 30 0 c44 0 107 -35 125 -70 13 -26 15 -208 15
-1548 0 -1086 -3 -1528 -11 -1551 -13 -37 -45 -56 -111 -65 l-48 -7 0 -65 0
-64 550 0 550 0 0 65 0 64 -52 7 c-35 5 -61 16 -82 35 l-31 27 -3 1531 c-2
1311 0 1536 12 1566 16 39 77 75 126 75 l30 0 0 65 0 65 -550 0 -550 0 0 -65z"/>
<path d="M10240 6146 l0 -63 48 -5 c63 -6 120 -34 137 -69 13 -24 15 -238 15
-1556 0 -1369 -2 -1531 -16 -1551 -22 -32 -60 -49 -127 -57 l-58 -7 3 -62 3
-61 1655 -5 c1283 -4 1660 -8 1676 -17 22 -13 44 -60 44 -94 0 -17 8 -19 65
-19 l65 0 0 460 0 460 -63 0 -63 0 -12 -44 c-15 -57 -65 -101 -132 -115 -35
-8 -393 -11 -1165 -11 l-1115 0 0 1321 c0 1486 -6 1370 76 1408 24 12 60 21
79 21 l35 0 0 65 0 65 -575 0 -575 0 0 -64z"/>
<path d="M19657 6203 c-4 -3 -7 -33 -7 -65 l0 -58 33 0 c55 -1 116 -35 132
-74 21 -51 23 -3039 2 -3089 -19 -45 -38 -58 -104 -71 l-58 -11 0 -60 0 -60
553 -3 552 -2 0 64 0 64 -47 7 c-64 9 -98 28 -112 62 -8 21 -11 421 -9 1564 3
1516 3 1537 23 1559 24 27 78 50 116 50 29 0 29 0 29 65 l0 65 -548 0 c-302 0
-552 -3 -555 -7z"/>
<path fill='#3573b9' d="M5650 5585 c0 -136 -2 -155 -17 -164 -14 -8 -1 -10 51 -11 l68 0 -6
38 c-4 20 -9 45 -12 55 -5 16 7 17 155 17 139 0 161 2 161 16 0 29 -20 52 -50
59 -17 4 -98 38 -181 76 -83 38 -155 69 -160 69 -5 0 -9 -70 -9 -155z"/>
<path fill='#3573b9' d="M13935 5618 c-16 -6 -31 -12 -33 -13 -8 -7 50 -85 63 -85 9 0 15 -9
15 -25 0 -13 7 -28 15 -33 13 -7 14 -14 5 -36 -19 -52 -15 -56 55 -56 l65 0 0
41 c0 36 -5 46 -42 79 -24 21 -56 61 -73 89 -16 28 -32 50 -35 50 -3 0 -18 -5
-35 -11z"/>
<path fill='#3573b9' d="M9557 5586 c-4 -9 -23 -16 -47 -18 l-40 -3 30 -62 c30 -65 54 -79 80
-48 7 8 19 15 27 15 30 0 71 31 82 61 16 45 15 47 -26 58 -54 15 -100 14 -106
-3z"/>
<path fill='#3573b9' d="M13792 5452 c-16 -79 -16 -79 19 -91 28 -10 33 -8 65 25 l35 35 -25
30 c-14 17 -26 37 -26 45 0 9 -10 14 -28 14 -26 0 -29 -4 -40 -58z"/>
<path fill='#3573b9' d="M18412 5230 c-13 -11 -42 -25 -63 -31 -38 -12 -53 -29 -24 -29 8 0
19 -9 25 -20 14 -25 36 -26 43 -1 4 18 76 41 127 41 12 0 20 7 20 16 0 43 -86
59 -128 24z"/>
<path fill='#3573b9' d="M18106 5089 c-3 -8 -10 -36 -16 -64 -6 -27 -19 -75 -29 -105 -15 -47
-22 -56 -47 -60 -16 -3 -54 -21 -84 -41 -30 -20 -69 -43 -86 -52 -33 -17 -63
-47 -47 -47 5 0 15 -11 21 -25 8 -17 20 -25 37 -25 14 0 25 5 25 10 0 6 6 10
13 10 6 0 57 22 113 49 107 51 137 79 169 156 9 22 28 52 42 67 18 19 26 39
27 67 l1 41 -55 11 c-30 6 -60 14 -67 16 -7 3 -15 -1 -17 -8z"/>
<path fill='#3573b9' d="M14430 4895 c0 -20 5 -25 25 -25 20 0 25 5 25 25 0 20 -5 25 -25 25
-20 0 -25 -5 -25 -25z"/>
<path fill='#3573b9' d="M18110 4615 c0 -21 21 -148 25 -153 2 -2 21 2 44 9 44 13 53 28 22
36 -11 3 -23 20 -29 42 -14 45 -62 96 -62 66z"/>
<path fill='#3573b9' d="M5790 4491 c0 -5 7 -14 15 -21 8 -7 15 -19 15 -26 0 -17 16 -17 55 0
l30 13 -35 21 c-35 22 -80 29 -80 13z"/>
<path fill='#3573b9' d="M8254 4391 c20 -22 26 -25 26 -13 0 4 -10 13 -22 21 -23 14 -23 14
-4 -8z"/>
<path fill='#3573b9' d="M6040 4369 c0 -14 64 -74 124 -116 46 -33 47 -33 114 -23 91 13 112
12 112 -3 0 -11 72 -44 74 -34 1 1 7 12 14 25 12 21 10 27 -20 62 -18 21 -38
40 -43 43 -6 3 -50 -2 -98 -11 l-86 -15 -85 41 c-89 44 -106 49 -106 31z"/>
<path fill='#3573b9' d="M8095 4300 c-3 -6 5 -14 19 -20 14 -5 26 -14 26 -20 0 -6 24 -10 55
-10 51 0 55 2 55 24 0 19 -6 24 -37 30 -57 9 -111 7 -118 -4z"/>
<path fill='#3573b9' d="M8339 4226 c13 -16 143 -69 196 -81 l30 -6 -27 24 c-29 27 -109 60
-172 71 -35 7 -38 6 -27 -8z"/>
<path fill='#3573b9' d="M17333 3895 c-60 -76 -83 -129 -83 -192 0 -39 16 -53 65 -54 22 -1
51 -4 65 -8 21 -6 30 -1 53 28 42 52 55 82 62 137 5 48 5 50 -48 107 l-53 59
-61 -77z"/>
<path fill='#3573b9' d="M17595 3778 c-2 -7 -15 -43 -28 -80 l-25 -68 44 0 c34 0 44 4 44 16
0 9 9 31 19 48 10 17 22 46 26 64 l7 32 -42 0 c-23 0 -42 -5 -45 -12z"/>
<path fill='#3573b9' d="M17840 3662 c0 -87 11 -98 111 -112 40 -6 81 -12 89 -15 14 -4 306
-55 316 -55 13 0 1 19 -16 23 -15 4 -20 14 -20 39 0 24 -8 42 -25 58 -14 13
-25 29 -25 37 0 7 -4 13 -8 13 -5 0 -97 18 -205 40 -107 22 -200 40 -206 40
-7 0 -11 -26 -11 -68z"/>
<path fill='#3573b9' d="M17840 3395 c0 -8 -12 -17 -27 -20 -16 -3 -61 -22 -101 -41 -54 -25
-78 -43 -93 -69 -16 -27 -27 -35 -50 -35 -22 0 -32 -7 -44 -30 -12 -23 -22
-30 -45 -30 -22 0 -33 -7 -44 -29 -11 -20 -29 -33 -58 -42 l-43 -14 -3 -102
-3 -102 40 -11 c22 -6 43 -15 46 -20 4 -6 1 -44 -6 -85 -7 -41 -10 -77 -7 -80
3 -4 81 6 172 22 l167 27 19 33 c21 36 40 42 60 18 6 -8 36 -25 65 -39 30 -13
60 -34 67 -45 7 -12 23 -21 36 -21 16 0 27 -10 39 -35 25 -52 86 -78 194 -83
l86 -4 7 34 c3 18 33 81 66 138 54 95 100 208 100 247 0 8 -19 36 -42 62 -24
26 -68 92 -98 147 -57 102 -146 206 -187 216 -22 6 -23 3 -23 -53 l0 -59 -48
0 c-43 0 -54 5 -101 45 -81 69 -141 95 -141 60z"/>
<path fill='#3573b9' d="M15409 3309 c-56 -71 -88 -141 -88 -194 -1 -26 7 -34 64 -67 35 -21
66 -38 68 -38 2 0 7 17 10 38 4 20 23 86 42 146 44 132 43 155 -6 171 l-35 13
-55 -69z"/>
<path fill='#3573b9' d="M6835 3340 c-29 -11 -58 -47 -52 -63 3 -8 18 -17 34 -20 15 -3 36 -9
46 -12 14 -6 17 -2 17 26 -1 49 -20 78 -45 69z"/>
<path fill='#3573b9' d="M6952 3174 c2 -20 12 -29 41 -39 30 -10 37 -10 37 1 0 7 8 17 17 23
30 16 -2 41 -54 41 -42 0 -44 -1 -41 -26z"/>
<path fill='#3573b9' d="M18990 2797 c0 -9 -4 -17 -10 -17 -5 0 -10 -16 -10 -36 0 -29 8 -44
40 -75 41 -40 50 -59 27 -59 -7 0 -19 -16 -26 -35 -17 -48 -123 -169 -161
-185 -23 -10 -30 -19 -30 -40 0 -16 7 -30 15 -34 10 -3 15 -19 15 -46 0 -40 0
-40 39 -40 35 0 43 5 75 48 20 26 52 67 71 92 19 25 42 67 50 94 17 57 20 116
5 116 -6 0 -10 31 -10 73 l0 73 -45 44 c-32 31 -45 39 -45 27z"/>
<path d="M4070 1975 l0 -75 8330 0 8330 0 0 75 0 75 -8330 0 -8330 0 0 -75z"/>
<path d="M7235 1574 c-53 -20 -111 -78 -132 -133 -25 -63 -24 -200 0 -263 22
-56 92 -123 147 -139 20 -6 71 -10 112 -8 99 5 157 40 202 119 29 52 31 61 31
160 0 90 -4 111 -24 149 -48 91 -117 131 -226 130 -38 0 -88 -7 -110 -15z
m184 -101 c89 -65 89 -261 0 -326 -38 -27 -97 -32 -139 -10 -54 28 -80 83 -80
173 0 90 26 145 80 173 42 22 101 17 139 -10z"/>
<path d="M15115 1576 c-16 -8 -43 -28 -59 -45 -24 -25 -31 -42 -34 -89 -8
-108 23 -137 183 -177 50 -12 101 -28 113 -34 26 -14 30 -62 7 -85 -20 -20
-76 -30 -123 -23 -38 6 -82 45 -82 73 0 10 -14 14 -55 14 -61 0 -66 -9 -44
-67 28 -75 99 -112 214 -113 124 0 194 44 215 133 10 47 -2 103 -31 133 -25
27 -68 44 -192 75 -75 19 -90 26 -98 47 -20 53 44 93 125 78 34 -6 58 -27 69
-58 5 -14 18 -18 62 -18 55 0 55 0 49 28 -24 99 -90 142 -216 142 -40 -1 -86
-7 -103 -14z"/>
<path d="M19385 1576 c-16 -8 -43 -28 -59 -45 -24 -25 -31 -42 -34 -89 -8
-108 23 -137 183 -177 118 -29 135 -38 135 -74 0 -39 -31 -63 -87 -68 -63 -6
-99 9 -124 52 -19 32 -25 35 -70 35 -54 0 -60 -10 -38 -67 28 -75 99 -112 214
-113 142 0 215 58 215 171 0 97 -32 122 -224 170 -70 18 -90 27 -98 45 -15 33
12 71 57 80 68 12 121 -10 138 -58 5 -14 18 -18 62 -18 55 0 55 0 49 28 -15
62 -42 96 -101 126 -40 20 -175 21 -218 2z"/>
<path d="M990 1310 l0 -270 55 0 55 0 0 270 0 270 -55 0 -55 0 0 -270z"/>
<path d="M1470 1310 l0 -270 50 0 50 0 0 185 c0 102 3 185 8 185 4 -1 54 -84
111 -185 l104 -185 59 0 58 0 0 270 0 270 -55 0 -55 0 -2 -182 -3 -182 -103
182 -104 182 -59 0 -59 0 0 -270z"/>
<path d="M2212 1533 l3 -48 78 -3 77 -3 0 -219 0 -220 60 0 60 0 0 220 0 220
80 0 80 0 0 50 0 50 -221 0 -220 0 3 -47z"/>
<path d="M2960 1310 l0 -270 205 0 205 0 0 50 0 50 -150 0 -151 0 3 68 3 67
128 3 127 3 0 44 0 45 -130 0 -130 0 0 55 0 54 143 3 142 3 0 45 0 45 -197 3
-198 2 0 -270z"/>
<path d="M3650 1310 l0 -270 55 0 54 0 3 103 3 102 80 3 c107 4 118 -4 122
-94 6 -118 4 -114 79 -114 l65 0 -15 22 c-11 16 -16 46 -16 99 0 69 -3 81 -26
109 -27 31 -27 31 -7 45 12 8 28 33 37 56 22 54 13 109 -22 151 -43 51 -74 58
-252 58 l-160 0 0 -270z m279 170 c41 -11 51 -24 51 -67 0 -58 -42 -77 -155
-71 l-60 3 -3 59 c-2 32 -1 65 2 72 6 17 113 19 165 4z"/>
<path d="M4380 1310 l0 -270 55 0 55 0 0 188 0 187 107 -187 107 -188 58 0 58
0 0 270 0 270 -55 0 -55 0 -2 -181 -3 -181 -101 178 -102 179 -61 3 -61 3 0
-271z"/>
<path d="M5335 1568 c-23 -62 -174 -488 -179 -505 -7 -22 -5 -23 53 -23 l60 0
17 55 18 56 100 -3 99 -3 17 -50 17 -50 62 -3 c57 -3 62 -1 57 15 -3 10 -46
131 -95 268 l-88 250 -67 3 c-47 2 -68 -1 -71 -10z m108 -235 l25 -83 -64 0
c-58 0 -65 2 -60 18 3 9 15 49 27 87 33 109 32 109 72 -22z"/>
<path d="M5880 1530 l0 -50 80 0 80 0 0 -220 0 -220 60 0 60 0 0 220 0 220 80
0 80 0 0 50 0 50 -220 0 -220 0 0 -50z"/>
<path d="M6630 1310 l0 -270 60 0 60 0 0 270 0 270 -60 0 -60 0 0 -270z"/>
<path d="M7940 1310 l0 -270 55 0 55 0 2 185 3 184 105 -184 105 -185 58 0 57
0 0 270 0 270 -55 0 -55 0 -2 -179 -3 -180 -101 177 -101 177 -62 3 -61 3 0
-271z"/>
<path d="M8882 1553 c-5 -16 -46 -129 -90 -253 -44 -124 -83 -233 -87 -242 -6
-16 0 -18 53 -18 l61 0 19 53 20 52 99 3 99 3 18 -56 17 -55 60 0 c46 0 60 3
57 13 -2 8 -43 129 -93 270 l-90 257 -66 0 c-64 0 -67 -1 -77 -27z m108 -200
c16 -53 28 -98 26 -100 -2 -2 -31 -3 -64 -1 l-60 3 31 98 c17 53 32 97 33 97
2 0 17 -44 34 -97z"/>
<path d="M9540 1310 l0 -270 190 0 190 0 0 50 0 50 -135 0 -135 0 0 220 0 220
-55 0 -55 0 0 -270z"/>
<path d="M10610 1310 l0 -270 195 0 195 0 0 50 0 50 -135 0 -135 0 0 220 0
220 -60 0 -60 0 0 -270z"/>
<path d="M11280 1310 l0 -270 205 0 205 0 0 50 0 50 -150 0 -151 0 3 68 3 67
128 3 127 3 0 44 0 45 -130 0 -130 0 0 55 0 54 143 3 142 3 3 48 3 47 -200 0
-201 0 0 -270z"/>
<path d="M12136 1572 c-7 -12 -186 -515 -186 -524 0 -4 26 -8 58 -8 l58 0 18
55 17 56 101 -3 101 -3 15 -52 15 -53 63 0 63 0 -55 158 c-31 86 -69 193 -84
237 -57 162 -43 145 -115 145 -35 0 -66 -4 -69 -8z m101 -224 l29 -93 -59 -3
c-33 -2 -61 -1 -64 1 -6 6 50 187 58 187 4 0 20 -42 36 -92z"/>
<path d="M12775 1567 c-3 -7 -4 -127 -3 -267 l3 -255 135 -3 c153 -3 198 8
249 60 63 65 91 223 59 330 -16 55 -78 122 -126 136 -55 17 -311 16 -317 -1z
m265 -90 c50 -17 74 -71 74 -162 -1 -81 -20 -136 -58 -161 -16 -10 -55 -19
-96 -22 l-70 -5 0 182 0 181 58 -1 c31 0 73 -5 92 -12z"/>
<path d="M13560 1310 l0 -270 205 0 205 0 0 50 0 50 -150 0 -151 0 3 68 3 67
133 3 132 3 0 44 0 44 -132 3 -133 3 -3 52 -3 52 143 3 143 3 3 48 3 47 -200
0 -201 0 0 -270z"/>
<path d="M14310 1310 l0 -270 55 0 55 0 0 105 0 105 80 0 c102 0 120 -14 120
-94 0 -29 3 -68 6 -85 6 -31 7 -31 70 -31 59 0 79 9 54 25 -5 3 -10 30 -10 58
-1 80 -16 139 -39 158 l-21 17 29 30 c55 54 53 149 -3 206 -42 42 -65 46 -247
46 l-149 0 0 -270z m284 166 c38 -16 52 -50 36 -90 -13 -35 -46 -46 -136 -46
l-74 0 0 75 0 75 70 0 c39 0 86 -6 104 -14z"/>
<path d="M15740 1310 l0 -270 60 0 60 0 0 120 0 120 100 0 100 0 0 -120 0
-120 60 0 60 0 0 270 0 270 -60 0 -60 0 0 -100 0 -100 -100 0 -100 0 0 100 0
100 -60 0 -60 0 0 -270z"/>
<path d="M16520 1310 l0 -270 60 0 60 0 0 270 0 270 -60 0 -60 0 0 -270z"/>
<path d="M16980 1310 l0 -270 60 0 60 0 0 94 0 94 88 4 c111 5 157 27 189 88
47 88 18 201 -61 239 -37 18 -61 21 -189 21 l-147 0 0 -270z m279 161 c40 -22
35 -107 -8 -130 -11 -6 -49 -11 -85 -11 l-66 0 0 81 0 82 69 -6 c39 -3 79 -10
90 -16z"/>
<path d="M18060 1310 l0 -270 60 0 60 0 0 270 0 270 -60 0 -60 0 0 -270z"/>
<path d="M18520 1310 l0 -270 50 0 50 0 0 186 c0 104 4 183 9 180 5 -3 55 -87
111 -186 l102 -180 59 0 59 0 0 270 0 270 -55 0 -55 0 -2 -182 -3 -183 -104
183 -103 182 -59 0 -59 0 0 -270z"/>
<path d="M19990 1530 l0 -50 80 0 80 0 0 -220 0 -221 58 3 57 3 3 217 2 217
78 3 77 3 3 48 3 47 -220 0 -221 0 0 -50z"/>
<path d="M20730 1310 l0 -270 55 0 55 0 0 270 0 270 -55 0 -55 0 0 -270z"/>
<path d="M21142 1533 l3 -48 78 -3 77 -3 0 -219 0 -220 60 0 60 0 0 220 0 220
80 0 80 0 0 50 0 50 -221 0 -220 0 3 -47z"/>
<path d="M21890 1369 c0 -240 5 -262 73 -307 32 -21 55 -28 114 -30 99 -5 137
3 180 41 59 52 63 72 63 302 l0 206 -56 -3 -56 -3 1 -168 c2 -188 -3 -226 -30
-256 -25 -27 -81 -37 -120 -20 -52 21 -59 54 -59 264 l0 185 -55 0 -55 0 0
-211z"/>
<path d="M22630 1530 l0 -50 80 0 80 0 0 -220 0 -220 55 0 55 0 0 220 0 219
83 3 82 3 3 48 3 47 -220 0 -221 0 0 -50z"/>
<path d="M23370 1310 l0 -270 205 0 205 0 0 50 0 50 -145 0 -145 0 0 70 0 70
130 0 130 0 0 45 0 45 -130 0 -130 0 0 55 0 55 140 0 140 0 0 50 0 50 -200 0
-200 0 0 -270z"/>
</g>
</svg>
