<?xml version="1.0" encoding="UTF-8"?>
<svg id="Capa_2" xmlns="http://www.w3.org/2000/svg" xmlns:xlink="http://www.w3.org/1999/xlink" viewBox="0 0 2210.45 921">
  <defs>
    <style>
      .cls-1 {
        fill: none;
      }

      .cls-2 {
        clip-path: url(#clippath-1);
      }

      .cls-3 {
        clip-path: url(#clippath-3);
      }

      .cls-4 {
        clip-path: url(#clippath-4);
      }

      .cls-5 {
        clip-path: url(#clippath-2);
      }

      .cls-6 {
        clip-path: url(#clippath-7);
      }

      .cls-7 {
        clip-path: url(#clippath-6);
      }

      .cls-8 {
        clip-path: url(#clippath-5);
      }

      .cls-9 {
        fill: #fff;
      }

      .cls-10 {
        fill: url(#Degradado_sin_nombre_7);
      }

      .cls-11 {
        fill: url(#Degradado_sin_nombre_6);
      }

      .cls-12 {
        fill: url(#Degradado_sin_nombre_5);
      }

      .cls-13 {
        fill: url(#Degradado_sin_nombre_4);
      }

      .cls-14 {
        fill: url(#Degradado_sin_nombre_3);
      }

      .cls-15 {
        fill: url(#Degradado_sin_nombre_2);
      }

      .cls-16 {
        clip-path: url(#clippath);
      }
    </style>
    <clipPath id="clippath">
      <rect class="cls-1" width="2210.45" height="921"/>
    </clipPath>
    <clipPath id="clippath-1">
      <path class="cls-1" d="M1684.19,891.81c-11.79-112.68,135.79-127.74,266.92-263.09,246.54-244.76-46.56-585.45-48.69-586.35,147.37,594.51-339.23,679.21-218.22,849.44"/>
    </clipPath>
    <linearGradient id="Degradado_sin_nombre_7" data-name="Degradado sin nombre 7" x1="-3369.77" y1="-2254.58" x2="-3353.64" y2="-2254.58" gradientTransform="translate(82089.33 -53341.88) scale(23.87 -23.87)" gradientUnits="userSpaceOnUse">
      <stop offset="0" stop-color="#e80"/>
      <stop offset=".2" stop-color="#e80"/>
      <stop offset=".44" stop-color="#f29e00"/>
      <stop offset=".79" stop-color="#f8bc00"/>
      <stop offset="1" stop-color="#fbc700"/>
    </linearGradient>
    <clipPath id="clippath-2">
      <path class="cls-1" d="M1780.69,848.33c15.02-71.59,108.75-51.71,216.11-109.04,199.94-101.71,87.05-369.16,85.92-370.11-26.83,394.61-342.78,350.59-302.03,479.15"/>
    </clipPath>
    <linearGradient id="Degradado_sin_nombre_2" data-name="Degradado sin nombre 2" x1="-3499.65" y1="-1961.05" x2="-3483.52" y2="-1961.05" gradientTransform="translate(60206 104299) rotate(90) scale(29.7 -29.7)" gradientUnits="userSpaceOnUse">
      <stop offset="0" stop-color="#007cbf"/>
      <stop offset=".56" stop-color="#007cbf"/>
      <stop offset=".93" stop-color="#294495"/>
      <stop offset="1" stop-color="#294495"/>
    </linearGradient>
    <clipPath id="clippath-3">
      <path class="cls-1" d="M1854.59,848.89c15.36-28.88,44.4-27.85,84.51-26.82,25.7.68,55.97,1.32,90.1-5.89,161.73-30.91,136.74-242.46,136.13-243.38-99.5,272.68-313.21,177.14-310.74,276.08"/>
    </clipPath>
    <linearGradient id="Degradado_sin_nombre_3" data-name="Degradado sin nombre 3" x1="-3310.48" y1="-2292.07" x2="-3294.35" y2="-2292.07" gradientTransform="translate(65971.28 -43681.53) scale(19.37 -19.37)" gradientUnits="userSpaceOnUse">
      <stop offset="0" stop-color="#a6151a"/>
      <stop offset="1" stop-color="#e12730"/>
    </linearGradient>
    <clipPath id="clippath-4">
      <rect class="cls-1" width="2210.45" height="921"/>
    </clipPath>
    <clipPath id="clippath-5">
      <path class="cls-1" d="M1616.28,372.87l-98.1,335.34-102.29-335.34h-107.17l-109.94,335.34-90.06-335.34h-126.93c21.86,14.49,41.93,31.95,60.02,52.41,53.44,60.65,80.48,132.26,80.48,212.83,0,51.34-11.12,99-33.03,142.6l33.14,111.1h137.24l99.24-300.72,94.66,300.72h137.66l165.74-518.94h-140.66Z"/>
    </clipPath>
    <linearGradient id="Degradado_sin_nombre_4" data-name="Degradado sin nombre 4" x1="-3491.63" y1="-2202.16" x2="-3475.5" y2="-2202.16" gradientTransform="translate(168730.18 -105166.08) scale(48.04 -48.04)" gradientUnits="userSpaceOnUse">
      <stop offset="0" stop-color="#fbc700"/>
      <stop offset=".04" stop-color="#f4ae05"/>
      <stop offset=".1" stop-color="#ea890e"/>
      <stop offset=".17" stop-color="#e26816"/>
      <stop offset=".25" stop-color="#db4e1c"/>
      <stop offset=".33" stop-color="#d53a21"/>
      <stop offset=".42" stop-color="#d12b24"/>
      <stop offset=".54" stop-color="#cf2326"/>
      <stop offset=".72" stop-color="#cf2127"/>
      <stop offset="1" stop-color="#cf2127"/>
    </linearGradient>
    <clipPath id="clippath-6">
      <path class="cls-1" d="M427.18,372.87v317.47l-248.3-317.47H43.93v518.94h134.95v-317.84l248.3,317.84h134.98v-25.35c-5.2-5.15-10.29-10.37-15.2-15.97-53.42-60.59-80.5-132.06-80.5-212.38,0-36.96,7.29-75.07,21.59-113.33,14.38-38.32,34.06-71.82,58.54-99.5,18.1-20.49,38.16-37.92,60-52.41h-179.42Z"/>
    </clipPath>
    <linearGradient id="Degradado_sin_nombre_5" data-name="Degradado sin nombre 5" x1="-3481.43" y1="-2224.13" x2="-3465.3" y2="-2224.13" gradientTransform="translate(121451.95 -76929.6) scale(34.87 -34.87)" gradientUnits="userSpaceOnUse">
      <stop offset="0" stop-color="#fbc700"/>
      <stop offset=".28" stop-color="#fbc700"/>
      <stop offset=".48" stop-color="#f8b900"/>
      <stop offset=".86" stop-color="#f19600"/>
      <stop offset="1" stop-color="#e80"/>
    </linearGradient>
    <clipPath id="clippath-7">
      <path class="cls-1" d="M637.17,823.13l-22.78-15.17,24.23-12.79,7.36-26.38,19.64,19.14,27.4-1.15-12.15,24.52,9.57,25.72-27.14-3.9-21.48,17.01-4.65-26.99ZM921.26,819.3l-24.65-11.97,22.31-15.84,3.78-27.17,21.99,16.33,26.98-4.79-8.71,25.98,12.92,24.15-27.43-.27-19.01,19.75-8.18-26.15ZM598.16,663.47l5.57,26.86,23.38,14.36-23.83,13.54-6.37,26.67-20.33-18.46-27.32,2.13,11.25-24.99-10.44-25.33,27.24,2.95,20.86-17.73ZM1018.57,652.36l7.37,26.36,24.22,12.76-22.8,15.2-4.61,26.98-21.51-16.99-27.09,3.94,9.55-25.72-12.15-24.54,27.38,1.13,19.64-19.12ZM563.94,591.26l-23.91-13.33,23.17-14.63,5.29-26.88,21.06,17.55,27.19-3.28-10.16,25.46,11.5,24.86-27.33-1.87-20.1,18.67-6.7-26.56ZM983.63,580.72l-23.7-13.76,23.44-14.18,5.76-26.8,20.73,17.94,27.3-2.84-10.67,25.27,11.1,25.07-27.28-2.31-20.46,18.3-6.23-26.69ZM661.1,700.2c-.45-.89-.82-1.81-1.21-2.73-.65-1.4-1.27-2.82-1.86-4.31-7.24-17.22-10.99-35.54-10.99-55.05,0-7.53.69-15.01,1.89-22.43.03-.08.03-.15.03-.24.24-1.69.56-3.37.89-5.03,12.89-68.1,72.69-119.61,144.52-119.61,49.37,0,93.08,24.38,119.75,61.75.66.89,1.27,1.76,1.92,2.65.29.4.56.89.86,1.29,16.44,23.77,24.8,50.92,24.8,81.63,0,27.85-7.15,53.13-21.3,75.74-25.75,42.66-72.56,71.17-126.03,71.17-58.99,0-109.81-34.72-133.27-84.82M664.57,427l7.53,26.36,24.36,12.59-22.75,15.31-4.44,27.04-21.57-16.89-27.09,4.16,9.37-25.82-12.29-24.44,27.4.97,19.47-19.28ZM941.54,421.94l5.31,26.88,23.19,14.55-23.9,13.39-6.71,26.56-20.1-18.65-27.32,1.86,11.5-24.86-10.21-25.43,27.2,3.24,21.04-17.54ZM577.09,452.17c-21.28,24.09-38.29,53.03-50.95,86.89-12.7,33.82-19.01,66.88-19.01,99.05,0,70.49,23.44,132.32,70.33,185.52,53.47,60.57,125.72,90.89,216.75,90.89s163.59-30.32,217.06-90.89c46.89-53.2,70.36-115.02,70.36-185.52s-23.48-132.68-70.36-185.94c-53.47-60.55-125.85-90.85-217.06-90.85s-163.65,30.3-217.12,90.85"/>
    </clipPath>
    <linearGradient id="Degradado_sin_nombre_6" data-name="Degradado sin nombre 6" x1="-3723.69" y1="-2210.94" x2="-3707.56" y2="-2210.94" gradientTransform="translate(-76845.43 -129840.9) rotate(-90) scale(35.12 -35.12)" gradientUnits="userSpaceOnUse">
      <stop offset="0" stop-color="#009cde"/>
      <stop offset=".02" stop-color="#0095d8"/>
      <stop offset=".09" stop-color="#0078bf"/>
      <stop offset=".17" stop-color="#0062ac"/>
      <stop offset=".26" stop-color="#00529e"/>
      <stop offset=".36" stop-color="#004896"/>
      <stop offset=".5" stop-color="#004694"/>
      <stop offset=".63" stop-color="#004996"/>
      <stop offset=".73" stop-color="#00529f"/>
      <stop offset=".82" stop-color="#0063ad"/>
      <stop offset=".91" stop-color="#007ac1"/>
      <stop offset=".99" stop-color="#0098da"/>
      <stop offset="1" stop-color="#009cde"/>
    </linearGradient>
  </defs>
  <g id="Capa_1-2" data-name="Capa_1">
    <g class="cls-16">
      <g class="cls-2">
        <rect class="cls-10" x="1563.18" y="42.37" width="634.46" height="849.44"/>
      </g>
      <g class="cls-5">
        <rect class="cls-15" x="1739.93" y="369.18" width="456.8" height="479.15"/>
      </g>
      <g class="cls-3">
        <rect class="cls-14" x="1852.12" y="572.81" width="338.81" height="276.08"/>
      </g>
      <g class="cls-4">
        <polygon class="cls-9" points="272.76 125.08 178.97 316.8 136.44 316.8 43.39 125.08 115.06 125.08 158.19 223.47 201.51 125.08 272.76 125.08"/>
        <path class="cls-9" d="M453.66,233.55h-133.82c0,28.8,12.99,43.19,39,43.19,13.29,0,23.44-6.08,30.56-18.18h61.73c-4.9,17.31-12.18,30.67-21.75,40.16-17.33,17.14-40.58,25.77-69.75,25.77-37.01,0-64.85-12.04-83.51-35.95-13.96-17.91-20.96-39.74-20.96-65.52,0-30.56,8.73-55.42,26.22-74.59,17.47-19.12,42.14-28.7,73.98-28.7,39.26,0,67.3,15.2,84.13,45.5,9.44,17.15,14.18,37,14.18,59.65v8.68ZM394.06,194.91c-4.55-21.62-16.57-32.43-36.16-32.43-10.81,0-19.59,3.44-26.27,10.31-5.31,5.52-8.65,12.86-10.05,22.12h72.48Z"/>
        <path class="cls-9" d="M654.38,316.8h-63.91v-96.94c0-16.93-1.81-28.14-5.39-33.66-5.29-8.1-13.2-12.17-23.75-12.17-9.65,0-17.76,3.5-24.33,10.5-5.92,6.26-8.87,16.17-8.87,29.59v102.66h-63.91V125.07h63.91v24.17c7.36-9.07,14.15-15.47,20.38-19.2,10.05-6.05,22.67-9.08,37.79-9.08,19.38,0,35.17,5.58,47.32,16.73,13.84,12.67,20.77,31.69,20.77,57.07v122.04Z"/>
        <path class="cls-9" d="M863.44,233.55h-133.8c0,28.8,12.99,43.19,39,43.19,13.28,0,23.46-6.08,30.51-18.18h61.78c-4.94,17.31-12.17,30.67-21.75,40.16-17.36,17.14-40.63,25.77-69.73,25.77-37.03,0-64.85-12.04-83.53-35.95-13.97-17.91-20.94-39.74-20.94-65.52,0-30.56,8.74-55.42,26.2-74.59,17.49-19.12,42.14-28.7,74.01-28.7,39.21,0,67.28,15.2,84.09,45.5,9.45,17.15,14.17,37,14.17,59.65v8.68ZM803.82,194.91c-4.52-21.62-16.55-32.43-36.11-32.43-10.84,0-19.6,3.44-26.27,10.31-5.32,5.52-8.66,12.86-10.08,22.12h72.46Z"/>
        <polygon class="cls-9" points="1051.54 125.08 967.06 261.24 1043.01 261.24 1043.01 316.8 860.22 316.8 945.3 180.69 871.67 180.69 871.67 125.08 1051.54 125.08"/>
        <path class="cls-9" d="M1254.03,246.81c0,35.64-15.84,59.34-47.57,71.02-13.21,4.82-29.35,7.24-48.39,7.24-37.42,0-64.26-9.79-80.58-29.3-10.36-12.44-15.55-28.77-15.55-48.97v-121.74h63.88v108.68c0,12,2.71,20.8,8.13,26.44,5.78,6.08,13.83,9.08,24.12,9.08s18.15-3,23.94-9.08c5.39-5.65,8.1-14.44,8.1-26.44v-108.68h63.91v121.74Z"/>
        <path class="cls-9" d="M1462.93,233.55h-133.85c0,28.8,13.02,43.19,39,43.19,13.3,0,23.46-6.08,30.53-18.18h61.8c-4.92,17.31-12.18,30.67-21.8,40.16-17.33,17.14-40.55,25.77-69.7,25.77-37.01,0-64.86-12.04-83.53-35.95-13.99-17.91-20.96-39.74-20.96-65.52,0-30.56,8.76-55.42,26.22-74.59,17.51-19.12,42.14-28.7,74.01-28.7,39.22,0,67.25,15.2,84.09,45.5,9.45,17.15,14.2,37,14.2,59.65v8.68ZM1403.29,194.91c-4.53-21.62-16.55-32.43-36.13-32.43-10.83,0-19.59,3.44-26.3,10.31-5.26,5.52-8.6,12.86-10.05,22.12h72.48Z"/>
        <rect class="cls-9" x="1473.45" y="6.5" width="63.91" height="310.3"/>
        <path class="cls-9" d="M1758.12,316.79h-63.93v-21.23c-6.05,8.13-12.2,14.05-18.39,17.75-10.91,6.49-23.27,9.7-37.11,9.7-22.33,0-42.29-8.2-59.75-24.57-20.81-19.51-31.2-45.39-31.2-77.56s10.7-58.92,32.01-78.45c16.93-15.55,36.38-23.33,58.38-23.33,12.78,0,24.83,2.82,36.09,8.47,6.45,3.31,13.1,8.76,19.97,16.33v-18.81h63.93v191.71ZM1696.11,220.94c0-12.04-3.95-22.31-11.97-30.72-8-8.45-17.64-12.65-29.01-12.65-12.62,0-22.98,5.05-31.09,15.23-6.6,8.2-9.91,17.62-9.91,28.14s3.31,19.94,9.91,28.17c7.97,10.18,18.35,15.22,31.09,15.22,11.49,0,21.2-4.15,29.12-12.54,7.94-8.34,11.86-18.62,11.86-30.85"/>
      </g>
      <g class="cls-8">
        <rect class="cls-13" x="981.78" y="372.87" width="775.16" height="518.94"/>
      </g>
      <g class="cls-7">
        <rect class="cls-12" x="43.93" y="372.87" width="562.66" height="518.94"/>
      </g>
      <g class="cls-6">
        <rect class="cls-11" x="407.32" y="254.75" width="774.14" height="766.33" transform="translate(-212.53 482.66) rotate(-30)"/>
      </g>
    </g>
  </g>
</svg>