<?xml version="1.0" standalone="no"?>
<!DOCTYPE svg PUBLIC "-//W3C//DTD SVG 20010904//EN"
 "http://www.w3.org/TR/2001/REC-SVG-20010904/DTD/svg10.dtd">
<svg version="1.0" xmlns="http://www.w3.org/2000/svg"
 width="2200.000000pt" height="831.000000pt" viewBox="0 0 2200.000000 831.000000"
 preserveAspectRatio="xMidYMid meet">

<g transform="translate(0.000000,831.000000) scale(0.100000,-0.100000)"
fill="#000000" stroke="none">
<path d="M5143 7568 c3 -13 11 -41 17 -63 40 -140 50 -218 57 -410 9 -293 -47
-521 -179 -717 -21 -31 -38 -62 -38 -68 0 -6 13 -30 28 -53 16 -23 48 -82 71
-132 40 -83 48 -101 72 -160 24 -61 62 -191 80 -275 22 -105 50 -183 86 -239
66 -104 77 -136 77 -246 1 -101 -10 -159 -46 -244 l-19 -44 39 -41 c39 -41 56
-68 127 -201 84 -157 97 -179 158 -285 15 -25 48 -88 74 -140 46 -92 48 -98
48 -186 0 -80 -3 -95 -25 -127 -16 -24 -46 -48 -80 -65 -53 -26 -60 -27 -205
-25 -82 2 -156 -1 -162 -5 -10 -6 -10 -22 -2 -71 9 -48 9 -77 0 -116 -6 -28
-9 -70 -5 -92 13 -81 -29 -159 -128 -237 -42 -32 -48 -42 -48 -74 0 -19 13
-63 29 -96 47 -99 51 -114 51 -176 0 -110 -70 -219 -167 -261 -55 -24 -136
-23 -353 5 -246 31 -468 -23 -510 -124 -12 -28 -11 -44 8 -119 31 -131 43
-210 93 -661 28 -251 84 -387 250 -606 38 -50 69 -94 69 -96 0 -5 -86 -19
-231 -37 -105 -14 -440 -14 -506 -2 -26 6 -75 15 -108 21 -172 33 -347 128
-412 224 -38 56 -42 145 -14 308 11 67 25 163 31 212 6 49 13 93 16 97 2 4 0
18 -5 31 l-10 23 0 -23 c-1 -12 -5 -30 -10 -40 -6 -9 -35 -82 -66 -162 -55
-139 -175 -396 -231 -490 -147 -249 -336 -484 -488 -605 -41 -33 -75 -66 -75
-73 -1 -17 3160 -13 3199 4 14 7 45 18 70 25 232 69 446 278 525 514 47 139
45 39 45 2935 0 2888 1 2806 -45 2945 -94 286 -359 512 -651 555 -38 5 -167
10 -288 10 l-218 0 5 -22z"/>
<path d="M1440 7566 c-99 -19 -148 -35 -225 -71 -186 -89 -339 -259 -407 -454
-50 -145 -48 -64 -47 -2201 0 -1097 4 -1986 9 -1975 4 11 14 40 21 65 28 95
88 192 161 259 40 37 48 50 48 79 0 141 168 368 377 510 70 47 79 58 65 75
-19 23 -25 94 -25 297 -1 236 13 362 72 680 18 93 56 257 80 343 6 20 15 52
20 70 43 159 199 513 273 619 10 14 18 29 18 32 0 8 92 145 138 206 229 302
565 568 872 693 14 5 34 13 45 18 29 12 115 40 153 50 17 5 49 14 70 20 65 19
133 29 302 44 134 13 195 14 320 5 85 -6 171 -13 190 -16 253 -41 341 -67 510
-148 155 -74 244 -138 361 -261 26 -27 51 -46 56 -41 12 12 7 320 -7 390 -56
294 -166 515 -334 674 l-54 51 -1498 -1 c-1152 0 -1514 -3 -1564 -12z"/>
<path d="M7760 6315 c-108 -25 -168 -56 -242 -124 -85 -78 -121 -159 -122
-271 -1 -47 5 -106 13 -133 34 -119 167 -200 426 -262 358 -84 445 -142 445
-293 0 -79 -18 -127 -68 -184 -132 -146 -396 -169 -590 -50 -45 28 -87 74
-162 178 -25 35 -43 50 -63 52 -42 5 -57 -13 -57 -68 0 -38 8 -58 39 -106 110
-167 258 -237 501 -236 163 0 257 25 353 91 60 41 98 78 133 131 52 77 59 105
59 235 0 107 -3 125 -24 168 -51 103 -157 180 -296 217 -104 28 -147 38 -200
50 -177 37 -287 99 -321 179 -21 50 -18 137 7 188 50 104 193 167 327 143 120
-21 178 -53 279 -156 69 -71 97 -80 114 -36 13 32 5 133 -13 169 -46 91 -359
160 -538 118z"/>
<path d="M14960 6285 c-17 -24 -46 -77 -64 -117 -55 -119 -86 -188 -86 -193 0
-3 -16 -40 -36 -82 -20 -43 -47 -105 -61 -138 -14 -33 -33 -78 -43 -100 -10
-22 -32 -74 -50 -115 -32 -73 -45 -104 -90 -205 -44 -100 -49 -111 -70 -175
-12 -36 -25 -74 -30 -85 -4 -11 -14 -35 -20 -53 -7 -18 -30 -49 -51 -70 -50
-47 -52 -78 -4 -98 44 -18 259 -19 295 -1 36 18 39 59 5 77 -42 23 -75 68 -75
103 0 30 23 113 68 252 l19 60 322 3 321 2 11 -27 c53 -133 95 -257 103 -301
6 -35 -7 -53 -68 -95 -32 -22 -33 -51 -4 -71 33 -23 323 -23 356 0 33 23 27
41 -28 92 -48 45 -52 53 -106 212 -30 91 -59 174 -64 185 -5 11 -16 40 -24 65
-56 175 -200 499 -316 710 -125 229 -152 250 -210 165z m50 -237 c0 -8 16 -45
81 -183 92 -197 179 -390 179 -397 0 -4 -126 -8 -280 -8 -154 0 -280 2 -280 5
0 4 108 252 174 400 8 17 23 50 34 75 63 143 63 142 78 130 8 -7 14 -17 14
-22z"/>
<path d="M18840 6318 c-113 -23 -186 -52 -260 -102 -144 -97 -241 -238 -296
-431 -21 -71 -29 -284 -15 -374 46 -294 237 -507 521 -582 64 -17 283 -14 350
4 248 67 429 232 508 462 31 92 37 137 36 285 -1 170 -15 241 -75 366 -32 66
-118 172 -187 230 -52 44 -170 106 -232 122 -125 32 -256 40 -350 20z m285
-130 c135 -46 259 -176 310 -325 49 -140 62 -361 30 -498 -79 -341 -406 -531
-691 -401 -114 52 -234 208 -278 362 -58 200 -36 441 57 619 54 103 174 210
282 251 71 26 198 23 290 -8z"/>
<path d="M8750 6282 c-32 -26 -19 -57 35 -81 24 -10 48 -28 54 -39 14 -27 15
-1155 1 -1181 -5 -10 -24 -24 -42 -31 -69 -27 -87 -65 -46 -94 20 -14 85 -16
515 -16 288 0 502 4 517 10 26 9 33 27 55 138 17 82 14 110 -9 117 -23 7 -51
-8 -108 -59 -20 -19 -62 -46 -92 -62 l-55 -29 -225 0 c-327 0 -314 -14 -315
360 l0 250 230 0 230 0 40 -27 c48 -34 59 -35 79 -6 19 27 22 129 5 177 -14
39 -36 40 -91 4 l-41 -28 -226 0 -226 0 -3 170 c-4 223 2 270 38 307 l28 28
217 0 c247 0 258 -3 352 -91 34 -32 61 -49 77 -49 24 0 26 4 26 43 0 72 -21
155 -46 182 l-23 25 -464 0 c-434 0 -466 -1 -487 -18z"/>
<path d="M10138 6290 c-38 -23 -12 -70 45 -84 15 -4 36 -15 47 -26 19 -19 20
-36 20 -601 0 -380 -4 -587 -10 -600 -6 -10 -28 -28 -50 -39 -49 -25 -61 -57
-30 -82 19 -16 42 -18 170 -18 122 0 151 3 164 16 9 8 16 22 16 29 0 20 -38
53 -70 60 -15 3 -37 15 -49 26 -21 20 -21 21 -21 554 0 421 3 535 13 535 7 0
56 -111 112 -253 54 -138 125 -306 156 -372 31 -66 80 -169 108 -228 28 -60
51 -112 51 -116 0 -11 54 -61 66 -61 22 0 55 51 132 205 78 157 98 201 182
400 23 55 50 118 60 141 11 22 29 65 40 95 12 29 32 77 46 107 13 29 24 57 24
62 0 6 5 10 10 10 7 0 10 -183 10 -530 l0 -531 -24 -22 c-13 -12 -35 -30 -50
-40 -32 -22 -33 -51 -4 -71 18 -13 54 -16 183 -16 180 0 209 8 203 58 -3 22
-13 30 -65 50 l-63 24 0 578 c0 356 4 589 10 605 5 14 18 28 27 31 10 3 27 9
38 14 11 5 28 11 38 14 24 8 23 62 -2 76 -29 15 -303 13 -323 -2 -9 -7 -23
-30 -32 -50 -23 -54 -43 -102 -62 -145 -9 -21 -20 -47 -25 -58 -5 -11 -35 -81
-66 -156 -76 -177 -256 -549 -266 -549 -4 0 -15 17 -24 38 -8 20 -23 55 -34
78 -10 22 -28 65 -39 95 -22 56 -33 82 -69 161 -11 26 -21 50 -21 53 0 2 -13
33 -28 67 -16 35 -63 146 -106 248 -43 102 -84 194 -92 205 -14 18 -28 20
-172 23 -97 1 -164 -2 -174 -8z"/>
<path d="M12033 6290 c-17 -7 -23 -18 -23 -39 0 -25 6 -33 38 -46 20 -9 44
-20 52 -24 13 -7 15 -85 18 -595 1 -393 -1 -593 -8 -606 -6 -11 -32 -30 -58
-42 -55 -27 -66 -57 -30 -82 18 -13 53 -16 193 -16 185 1 205 6 205 54 0 23
-8 31 -55 51 -37 17 -56 32 -60 47 -3 13 -5 275 -3 583 2 423 6 565 15 582 7
12 32 32 55 45 54 29 65 72 23 88 -33 12 -332 12 -362 0z"/>
<path d="M12736 6284 c-9 -8 -16 -20 -16 -25 0 -17 40 -49 63 -49 31 -1 62
-29 76 -69 16 -48 16 -1095 0 -1141 -9 -25 -23 -37 -65 -56 -47 -21 -54 -27
-54 -52 0 -49 11 -52 181 -52 171 0 189 5 189 55 0 19 -11 29 -54 49 -29 14
-56 33 -60 42 -10 27 -7 1094 4 1094 11 0 118 -123 200 -230 83 -110 595 -879
631 -949 37 -72 49 -83 86 -79 l28 3 5 665 c3 366 9 671 13 678 5 6 28 21 52
32 53 24 71 64 40 87 -29 20 -308 19 -329 -3 -29 -28 -13 -65 36 -84 73 -29
68 7 68 -492 0 -246 -4 -448 -8 -448 -5 0 -38 46 -73 103 -184 296 -534 755
-677 890 l-51 47 -135 0 c-109 0 -138 -3 -150 -16z"/>
<path d="M16011 6281 c-34 -34 -23 -57 41 -82 24 -9 49 -27 55 -40 10 -18 13
-152 12 -554 0 -291 -4 -552 -7 -580 -6 -42 -12 -53 -42 -72 -80 -51 -81 -52
-69 -76 7 -12 17 -25 23 -29 6 -4 85 -8 176 -8 180 0 210 8 210 54 0 19 -12
29 -55 50 l-55 26 0 244 c0 137 4 247 9 250 8 5 129 28 272 52 46 8 62 -8 168
-167 131 -194 190 -315 176 -359 -4 -11 -26 -34 -51 -50 -30 -22 -44 -38 -44
-54 0 -39 36 -46 224 -46 154 0 176 2 197 18 28 23 21 47 -22 70 -61 33 -80
58 -148 198 -77 157 -139 265 -213 366 -26 37 -48 72 -48 76 0 5 19 19 43 31
171 88 267 219 267 364 0 151 -84 254 -260 318 -25 9 -147 14 -437 17 -397 4
-401 4 -422 -17z m679 -105 c93 -23 139 -46 179 -92 60 -69 70 -172 25 -263
-61 -122 -237 -198 -551 -238 l-43 -6 0 260 c0 288 4 316 54 338 42 18 262 19
336 1z"/>
<path d="M17558 6294 c-22 -7 -32 -38 -19 -63 6 -10 31 -27 56 -36 l45 -18 0
-604 0 -605 -49 -21 c-28 -11 -55 -31 -62 -45 -12 -22 -11 -26 10 -43 21 -17
41 -19 195 -19 182 0 216 8 216 49 0 22 -15 36 -72 64 l-43 22 -3 564 c-1 363
1 577 8 601 9 32 19 43 58 62 48 23 62 48 42 78 -7 12 -41 15 -187 17 -98 1
-186 -1 -195 -3z"/>
<path d="M4604 6107 c-138 -185 -306 -443 -423 -650 -25 -45 -45 -79 -101
-176 l-43 -74 11 -57 c15 -71 15 -210 1 -264 -17 -63 -49 -124 -92 -172 -36
-40 -52 -51 -130 -83 -79 -32 -177 5 -214 81 -24 50 -43 115 -43 149 0 35 -17
12 -31 -43 -11 -39 -10 -57 1 -100 24 -95 64 -152 140 -196 40 -24 55 -27 140
-27 85 1 102 4 163 33 80 37 182 133 214 202 50 109 57 140 61 300 l4 154 97
196 c53 107 109 224 125 260 26 59 39 87 81 185 31 72 99 246 121 312 43 129
33 125 -82 -30z"/>
<path d="M17156 4233 c-22 -24 -79 -131 -119 -223 -8 -19 -27 -61 -41 -93 -14
-32 -26 -60 -26 -62 0 -2 -11 -28 -24 -57 -36 -81 -59 -132 -116 -263 -148
-340 -189 -438 -215 -520 -23 -71 -38 -100 -72 -136 -83 -89 -54 -112 143
-113 116 -1 134 1 153 18 31 28 25 47 -24 84 -26 18 -48 44 -51 59 -9 35 7
112 49 238 l34 100 323 0 324 0 16 -45 c9 -25 20 -54 24 -65 4 -11 12 -33 18
-50 5 -16 14 -39 19 -50 17 -38 38 -136 33 -150 -3 -8 -26 -26 -51 -40 -37
-22 -44 -31 -41 -53 5 -43 37 -52 191 -52 211 0 253 28 159 107 -45 38 -52 50
-94 170 -25 70 -60 171 -78 223 -17 52 -35 104 -40 115 -4 11 -29 74 -55 140
-57 145 -60 154 -145 330 -126 260 -222 415 -256 415 -7 0 -24 -12 -38 -27z
m48 -305 c19 -40 50 -109 71 -153 21 -44 48 -103 61 -131 12 -29 41 -90 62
-137 22 -46 43 -94 47 -106 l6 -21 -280 0 c-155 0 -281 4 -281 8 0 5 6 22 14
38 8 16 28 63 46 104 32 75 48 112 90 205 58 130 79 179 101 233 8 17 17 32
22 32 4 0 23 -33 41 -72z"/>
<path d="M11225 4235 c-282 -69 -427 -328 -319 -571 40 -90 162 -155 402 -214
70 -17 177 -48 237 -68 95 -31 116 -43 156 -83 39 -38 48 -54 54 -96 20 -146
-39 -248 -180 -314 -91 -43 -191 -55 -292 -36 -145 28 -234 85 -310 200 -62
94 -65 97 -106 97 -79 0 -67 -111 24 -220 114 -137 242 -189 464 -189 67 0
145 6 178 13 176 43 297 148 366 319 6 15 11 70 11 122 0 52 -5 107 -11 122
-73 181 -161 236 -504 313 -256 58 -346 128 -348 269 -1 109 74 198 199 236
60 18 112 18 186 1 89 -22 145 -55 235 -139 107 -102 117 -101 121 15 3 106
-6 125 -86 165 -103 52 -203 73 -335 72 -51 -1 -114 -7 -142 -14z"/>
<path d="M20415 4239 c-196 -46 -340 -145 -443 -306 -92 -144 -127 -289 -119
-487 6 -150 22 -218 76 -331 67 -138 159 -234 289 -303 167 -89 430 -98 623
-22 146 58 297 200 361 340 61 132 72 186 71 365 0 186 -12 244 -79 380 -69
142 -241 291 -386 336 -121 38 -297 50 -393 28z m283 -120 c191 -77 299 -206
352 -418 26 -104 29 -314 6 -406 -27 -111 -36 -133 -84 -207 -84 -128 -186
-200 -329 -234 -237 -56 -466 102 -550 381 -66 215 -48 443 50 630 64 122 209
240 327 265 53 11 189 4 228 -11z"/>
<path d="M7358 4209 c-28 -16 -21 -38 25 -88 40 -43 44 -53 61 -146 64 -352
125 -600 214 -870 36 -110 113 -293 142 -339 38 -59 75 -63 112 -13 77 103
163 321 267 677 12 41 26 85 32 98 5 13 9 30 9 38 0 8 7 31 16 52 l15 37 68
-200 c87 -256 127 -357 210 -530 90 -187 120 -220 176 -199 19 8 61 89 114
221 83 210 150 461 236 887 49 241 59 272 100 304 28 22 34 66 9 76 -27 10
-294 7 -315 -4 -10 -6 -19 -17 -19 -24 0 -17 38 -49 82 -70 25 -11 40 -26 44
-42 10 -38 -2 -129 -42 -324 -46 -225 -47 -230 -74 -325 -12 -44 -24 -90 -27
-101 -15 -64 -109 -326 -118 -326 -38 -3 -236 535 -303 822 -28 120 -32 143
-32 199 0 66 9 82 69 117 34 20 44 67 15 78 -20 8 -308 8 -328 0 -28 -11 -20
-58 14 -78 83 -49 85 -66 38 -296 -21 -105 -91 -364 -118 -440 -19 -54 -110
-298 -128 -343 -33 -85 -36 -82 -92 89 -50 153 -82 259 -100 334 -5 19 -18 71
-29 115 -22 83 -28 109 -54 235 -21 104 -29 214 -17 244 5 14 29 37 52 52 61
39 69 52 42 78 -13 13 -44 16 -182 16 -95 0 -175 -5 -184 -11z"/>
<path d="M9466 4207 c-21 -15 -18 -56 4 -67 8 -4 28 -14 44 -21 56 -27 56 -29
56 -628 0 -333 -4 -560 -10 -575 -6 -16 -27 -34 -57 -49 -41 -19 -48 -26 -48
-52 0 -55 1 -55 547 -53 454 3 499 4 514 20 19 19 55 197 47 229 -9 32 -45 21
-116 -36 -115 -93 -133 -98 -347 -103 -200 -4 -275 5 -306 39 -38 42 -44 85
-44 337 l0 243 233 -3 c222 -3 233 -4 264 -25 17 -13 40 -23 51 -23 35 0 43
23 40 115 -4 115 -13 121 -102 77 l-64 -32 -211 0 -211 0 0 216 c0 310 -16
293 283 294 250 0 255 -1 349 -90 54 -51 91 -63 102 -34 7 17 -9 140 -23 176
-23 61 1 58 -510 58 -369 0 -471 -3 -485 -13z"/>
<path d="M12238 4213 c-12 -3 -18 -14 -18 -34 0 -30 22 -50 70 -64 14 -5 30
-15 37 -24 18 -23 18 -1138 1 -1176 -7 -15 -29 -35 -50 -46 -53 -27 -66 -55
-39 -83 21 -21 27 -21 489 -24 257 -2 486 0 510 3 66 10 79 31 108 183 5 27
-12 62 -30 62 -8 0 -44 -21 -80 -46 -95 -65 -130 -74 -311 -85 -205 -12 -346
-4 -380 23 l-25 19 0 578 c0 566 0 578 20 599 11 12 32 25 46 28 41 10 55 51
28 78 -13 13 -43 16 -187 15 -95 -1 -180 -3 -189 -6z"/>
<path d="M13613 4212 c-28 -18 -14 -82 18 -82 11 0 34 -13 50 -29 l29 -29 0
-581 0 -580 -22 -21 c-12 -11 -28 -20 -35 -20 -8 0 -25 -11 -38 -24 -29 -29
-24 -63 12 -77 27 -10 936 -12 997 -2 31 5 41 12 51 37 16 42 39 192 31 211
-11 29 -52 16 -112 -37 -32 -28 -84 -63 -114 -77 -54 -25 -60 -26 -265 -26
-224 0 -260 6 -289 49 -28 43 -37 137 -34 351 l3 210 219 3 c219 2 219 2 269
-23 27 -15 59 -25 70 -23 31 4 43 59 31 145 -8 60 -12 68 -31 71 -13 2 -35 -5
-50 -16 -52 -37 -99 -43 -308 -40 l-200 3 -3 190 c-3 219 0 244 34 285 l26 30
219 0 c253 0 266 -3 358 -91 36 -34 59 -49 74 -47 21 3 22 8 19 78 -1 41 -7
90 -13 107 -21 65 -6 63 -519 63 -256 0 -470 -4 -477 -8z"/>
<path d="M14930 4205 c-20 -24 -7 -48 46 -84 41 -28 63 -55 114 -140 55 -94
157 -245 303 -449 26 -37 66 -93 87 -124 l40 -57 0 -219 c0 -214 0 -219 -22
-239 -13 -11 -36 -27 -53 -34 -23 -11 -30 -21 -30 -44 0 -47 28 -55 200 -55
162 0 198 9 203 48 4 30 -12 49 -47 57 -16 3 -38 15 -50 26 -20 19 -21 28 -21
234 l0 214 48 63 c265 347 349 467 426 610 34 63 57 93 86 112 31 20 40 33 40
55 0 38 -13 41 -191 41 -116 0 -149 -3 -159 -15 -18 -21 -5 -47 38 -74 58 -36
66 -67 33 -133 -15 -29 -37 -70 -49 -92 -33 -56 -313 -426 -323 -426 -4 0 -30
32 -56 71 -26 39 -53 76 -58 83 -6 6 -26 33 -45 60 -18 27 -63 90 -100 138
-37 49 -84 122 -106 162 -34 66 -37 76 -26 100 6 15 23 31 37 36 14 5 31 21
37 36 22 48 -2 54 -208 54 -146 0 -184 -3 -194 -15z"/>
<path d="M18193 4213 c-21 -8 -15 -51 9 -67 12 -9 32 -16 43 -16 12 0 32 -12
46 -26 l24 -26 3 -561 c2 -309 0 -576 -3 -593 -5 -26 -14 -35 -65 -57 -51 -21
-60 -29 -60 -51 0 -47 29 -56 190 -56 149 0 170 5 183 42 8 23 -13 48 -64 72
l-44 21 -3 553 c-1 303 2 552 6 552 13 0 108 -110 201 -234 93 -123 599 -883
632 -949 12 -23 28 -50 37 -59 20 -24 59 -23 72 1 6 13 10 238 10 661 0 422 4
648 10 661 6 10 28 28 50 39 55 28 71 69 36 92 -13 9 -298 11 -320 2 -19 -7
-21 -57 -3 -72 6 -5 29 -15 49 -22 20 -8 41 -24 47 -37 7 -16 11 -171 11 -471
l-1 -447 -20 25 c-16 20 -88 131 -164 252 -58 93 -317 438 -434 578 -30 36
-84 95 -121 133 l-67 67 -139 -1 c-76 0 -145 -3 -151 -6z"/>
<path d="M2630 3430 c-9 -6 -10 -10 -3 -10 21 0 424 -195 577 -278 83 -46 141
-93 161 -132 35 -68 27 -367 -11 -442 -16 -31 -44 -36 -98 -18 -201 63 -529
108 -599 81 -33 -13 -27 -31 9 -31 13 0 32 -4 42 -9 9 -5 37 -15 62 -22 25 -7
49 -16 54 -21 6 -4 16 -8 23 -8 7 0 35 -10 61 -21 26 -12 61 -27 77 -34 17 -7
83 -36 147 -64 65 -29 147 -63 182 -76 l64 -24 44 31 c48 35 61 51 98 117 24
43 34 69 59 167 14 54 14 298 0 366 -40 192 -356 362 -788 423 -122 17 -141
18 -161 5z"/>
<path d="M3731 2987 c-6 -6 -11 -30 -11 -53 l0 -41 75 -6 c81 -6 177 -43 243
-94 l34 -25 -16 30 c-46 89 -286 228 -325 189z"/>
<path d="M7642 2252 c-9 -6 -12 -89 -10 -378 l3 -369 165 -3 c195 -4 249 6
316 57 91 69 124 155 124 322 0 144 -23 221 -87 285 -79 81 -103 88 -313 92
-102 1 -191 -1 -198 -6z m342 -74 c125 -36 178 -120 179 -288 1 -151 -31 -229
-116 -286 -41 -28 -45 -28 -187 -29 l-145 0 -3 308 -2 307 116 0 c64 0 135 -5
158 -12z"/>
<path d="M8757 2254 c-4 -4 -7 -175 -7 -381 l0 -373 249 0 c165 0 252 4 256
11 4 5 4 21 1 34 l-6 25 -208 2 -207 3 0 140 0 140 185 5 185 5 3 24 c2 13 -2
28 -10 32 -7 5 -93 9 -190 9 l-178 0 0 130 0 130 203 2 202 3 0 30 0 30 -236
3 c-129 1 -238 -1 -242 -4z"/>
<path d="M10322 2252 c-9 -6 -5 -28 19 -93 17 -46 34 -95 39 -109 4 -14 15
-45 25 -70 9 -25 26 -70 37 -100 11 -30 24 -64 29 -75 4 -11 28 -76 53 -145
24 -69 48 -133 52 -143 5 -14 15 -17 46 -15 37 3 42 6 55 43 17 45 57 153 104
278 17 45 40 107 51 137 11 30 24 64 28 75 4 11 18 47 30 80 12 33 26 69 31
80 17 41 15 60 -8 63 -36 5 -57 -13 -72 -65 -8 -26 -17 -52 -20 -58 -4 -5 -13
-28 -20 -50 -7 -22 -16 -49 -21 -60 -5 -11 -16 -40 -24 -65 -8 -25 -29 -83
-46 -130 -18 -47 -41 -111 -52 -142 -28 -82 -41 -89 -61 -30 -20 60 -71 206
-137 392 -29 80 -55 154 -57 165 -12 42 -47 58 -81 37z"/>
<path d="M11402 2252 c-9 -7 -12 -89 -10 -378 l3 -369 248 -3 248 -2 -3 32 -3
33 -205 5 -205 5 -3 138 c-1 75 -1 138 0 139 2 1 86 4 188 7 l185 6 3 24 c2
13 -2 28 -10 32 -7 5 -93 9 -190 9 l-178 0 0 130 0 130 201 0 200 0 -3 33 -3
32 -225 2 c-124 2 -231 -1 -238 -5z"/>
<path d="M12387 2253 c-4 -3 -7 -175 -7 -380 l0 -374 38 3 37 3 -3 298 c-3
244 -2 297 10 297 10 -1 172 -231 396 -566 19 -29 28 -34 62 -34 l40 0 -2 378
-3 377 -30 0 -30 0 -3 -307 c-1 -170 -6 -308 -10 -308 -4 0 -30 35 -59 78
-233 347 -338 500 -356 520 -19 21 -66 30 -80 15z"/>
<path d="M13507 2253 c-4 -3 -7 -174 -7 -380 l0 -373 251 0 250 0 -3 33 -3 32
-199 3 c-127 1 -204 6 -213 13 -18 15 -19 249 -1 267 8 8 65 12 191 12 l178 0
-3 33 -3 32 -185 5 -185 5 0 125 0 125 205 5 205 5 3 24 c2 13 -2 28 -10 32
-15 10 -462 12 -471 2z"/>
<path d="M14482 2251 c-8 -4 -12 -19 -10 -32 l3 -24 213 -5 212 -5 -37 -50
c-21 -28 -78 -101 -127 -163 -48 -62 -107 -137 -130 -167 -181 -235 -187 -244
-184 -272 l3 -28 293 -3 292 -2 0 30 0 30 -240 0 c-166 0 -240 3 -240 11 0 6
20 36 44 67 24 32 112 145 195 252 83 107 158 203 166 213 71 84 92 138 59
151 -24 9 -497 7 -512 -3z"/>
<path d="M15493 2254 c-17 -7 -18 -476 -1 -559 16 -79 60 -143 123 -174 45
-23 61 -26 166 -26 111 0 117 1 165 30 52 33 87 76 106 134 8 23 13 134 15
313 l4 277 -25 7 c-57 14 -56 18 -56 -269 0 -278 -4 -306 -47 -365 -37 -49
-77 -65 -164 -66 -111 0 -176 39 -205 124 -4 14 -11 149 -14 300 l-5 275 -25
2 c-14 1 -31 -1 -37 -3z"/>
<path d="M16607 2254 c-4 -4 -7 -175 -7 -381 l0 -373 253 2 252 3 0 30 0 30
-210 5 -210 5 0 140 0 140 185 5 185 5 0 30 0 30 -187 3 -188 2 0 130 0 130
203 2 202 3 0 30 0 30 -236 3 c-129 1 -238 -1 -242 -4z"/>
<path d="M17607 2254 c-4 -4 -7 -175 -7 -381 l0 -373 225 0 225 0 0 30 0 30
-179 0 c-137 0 -181 3 -190 13 -7 9 -12 122 -13 348 l-3 334 -25 3 c-14 2 -29
0 -33 -4z"/>
<path d="M18735 2224 c-8 -20 -15 -38 -15 -40 0 -2 -8 -23 -19 -47 -65 -149
-251 -612 -251 -627 0 -14 66 -12 78 3 5 6 15 30 23 52 7 22 17 44 21 49 4 6
8 16 8 23 0 7 9 33 21 58 l21 45 168 0 c122 0 170 -3 178 -12 6 -7 27 -56 48
-108 20 -52 41 -101 47 -107 9 -12 87 -19 87 -8 0 3 -4 13 -9 23 -14 25 -51
111 -51 117 0 2 -13 34 -30 70 -16 36 -30 68 -30 70 0 2 -11 28 -24 57 -13 29
-54 125 -91 213 -84 202 -86 205 -130 205 -30 0 -37 -4 -50 -36z m130 -238
c37 -91 64 -170 60 -175 -7 -13 -243 -15 -263 -2 -13 8 -3 39 48 166 4 11 18
47 31 80 29 77 38 95 48 95 5 0 39 -74 76 -164z"/>
</g>
</svg>
