<?xml version="1.0" encoding="UTF-8"?>
<svg id="Capa_2" xmlns="http://www.w3.org/2000/svg" viewBox="0 0 267.04 86.09">
  <defs>
    <style>
      .cls-1 {
        fill: #96bd0d;
      }

      .cls-2 {
        fill: #e1007a;
      }

      .cls-3 {
        fill: #009f95;
      }
    </style>
  </defs>
  <g id="Capa_1-2" data-name="Capa_1">
    <g>
      <g>
        <g>
          <path class="cls-3" d="M104.7,40.65l8.78,17.82,8.7-17.82,8.74,17.82,8.74-17.82h5.17l-13.91,28.43-8.74-17.82-8.7,17.82-13.95-28.43h5.17Z"/>
          <path class="cls-3" d="M166.17,40.65v4.75h-13.91v7.13h13.91v4.71h-13.91v7.09h13.91v4.75h-18.52v-28.43h18.52Z"/>
          <path class="cls-3" d="M177.08,57.24c-2.25,0-4.16-.81-5.73-2.42-1.58-1.61-2.37-3.58-2.37-5.9s.79-4.21,2.37-5.82c1.55-1.64,3.46-2.46,5.73-2.46h15.08v4.75h-15.08c-.48,0-.94.09-1.36.27-.43.18-.8.43-1.12.76-.32.33-.57.71-.74,1.15-.17.44-.26.89-.26,1.35,0,.98.33,1.83,1,2.54.67.71,1.5,1.07,2.49,1.07h6.94c2.24,0,4.16.81,5.73,2.42,1.6,1.61,2.41,3.56,2.41,5.86s-.8,4.22-2.41,5.86c-1.58,1.61-3.49,2.42-5.73,2.42h-15.04v-4.75h15.04c.48,0,.94-.09,1.36-.27.43-.18.8-.42,1.12-.74.32-.31.57-.69.74-1.13.17-.44.26-.9.26-1.39,0-.96-.35-1.79-1.04-2.5-.67-.71-1.48-1.07-2.45-1.07h-6.94Z"/>
          <path class="cls-3" d="M194.96,40.65h4.61v23.68h13.91v4.75h-18.52v-28.43Z"/>
          <path class="cls-3" d="M234.82,40.65v4.75h-13.91v7.13h13.91v4.71h-13.91v7.09h13.91v4.75h-18.53v-28.43h18.53Z"/>
          <path class="cls-3" d="M259.39,40.65h5.89l-11.43,14.91v13.52h-4.61v-13.27l-11.63-15.16h5.94l7.9,10.36,7.94-10.36Z"/>
        </g>
        <g>
          <path class="cls-1" d="M104.53,33.54c-.67,0-1.3-.13-1.89-.39-.59-.25-1.11-.61-1.54-1.06-.43-.44-.78-.97-1.03-1.56-.26-.6-.39-1.25-.39-1.93s.13-1.33.39-1.93c.26-.59.61-1.12,1.04-1.57.44-.45.95-.8,1.54-1.06.58-.26,1.22-.39,1.89-.39,1.2,0,2.26.41,3.15,1.2l1.09-1.11c-.52-.48-1.12-.87-1.77-1.16-.76-.34-1.59-.51-2.47-.51s-1.71.17-2.47.51c-.77.34-1.45.82-2.03,1.41-.58.59-1.04,1.29-1.38,2.09-.34.79-.5,1.63-.5,2.5s.17,1.75.5,2.53c.33.79.8,1.48,1.38,2.07.58.59,1.26,1.06,2.03,1.4,1.53.68,3.42.68,4.94,0,.65-.29,1.24-.68,1.77-1.16l-1.09-1.1c-.9.79-1.96,1.19-3.15,1.19Z"/>
          <polygon class="cls-1" points="115.03 29.38 121.76 29.38 121.76 27.83 115.03 27.83 115.03 23.66 121.76 23.66 121.76 22.09 113.51 22.09 113.51 35.11 121.76 35.11 121.76 33.54 115.03 33.54 115.03 29.38"/>
          <polygon class="cls-1" points="127.86 26.42 136.84 34.66 136.84 22.07 135.3 22.07 135.3 30.76 126.35 22.52 126.35 35.09 127.86 35.09 127.86 26.42"/>
          <polygon class="cls-1" points="145.93 35.11 147.46 35.11 147.46 23.66 151.94 23.66 151.94 22.09 141.43 22.09 141.43 23.66 145.93 23.66 145.93 35.11"/>
          <path class="cls-1" d="M164.48,30.2c.73-.3,1.34-.81,1.82-1.51.49-.71.73-1.52.73-2.39,0-1.16-.4-2.14-1.21-2.97-.82-.83-1.77-1.24-2.91-1.24h-6.37v13.02h1.52v-4.58h4.36l2.6,4.58h1.76l-2.67-4.75.38-.16ZM158.05,28.94v-5.28h4.86c.7,0,1.31.26,1.82.78.51.52.76,1.15.76,1.86s-.26,1.36-.76,1.88c-.51.52-1.12.78-1.82.78l-4.86-.02Z"/>
          <path class="cls-1" d="M182.49,24.01c-1.23-1.27-2.75-1.91-4.5-1.91s-3.28.64-4.5,1.91c-1.24,1.27-1.87,2.82-1.87,4.6s.63,3.34,1.87,4.59c1.23,1.27,2.75,1.91,4.5,1.91s3.27-.64,4.5-1.91c1.28-1.27,1.89-2.77,1.89-4.6s-.64-3.32-1.89-4.59ZM181.4,32.1c-.95.95-2.09,1.44-3.41,1.44s-2.47-.48-3.43-1.43c-.94-.99-1.41-2.16-1.41-3.51s.47-2.52,1.4-3.48c.96-.97,2.11-1.46,3.43-1.46s2.47.49,3.41,1.45c.94.97,1.42,2.14,1.42,3.49s-.48,2.53-1.42,3.5Z"/>
        </g>
        <g>
          <path class="cls-1" d="M190.84,27.25v8.22h-2.23v-13.75l6.73,6.87,6.75-6.87v13.75h-2.27v-8.22l-4.48,4.59-4.5-4.59Z"/>
          <path class="cls-1" d="M214.92,21.73v2.3h-6.73v3.45h6.73v2.28h-6.73v3.43h6.73v2.3h-8.96v-13.75h8.96Z"/>
          <path class="cls-1" d="M218.8,21.73h4.48c.92,0,1.78.18,2.6.54.81.36,1.53.86,2.14,1.49.61.63,1.1,1.36,1.45,2.19.36.83.53,1.72.53,2.65s-.18,1.82-.53,2.65c-.36.83-.84,1.56-1.44,2.19-.61.63-1.32,1.12-2.14,1.49-.82.36-1.69.54-2.61.54h-4.48v-13.75ZM223.28,33.17c.62,0,1.2-.12,1.75-.36.54-.24,1.02-.57,1.43-.99.41-.42.73-.91.96-1.47.23-.55.35-1.14.35-1.76s-.12-1.21-.35-1.76c-.23-.55-.56-1.04-.97-1.47-.41-.42-.89-.75-1.44-.99-.54-.24-1.12-.36-1.73-.36h-2.25v9.15h2.25Z"/>
          <path class="cls-1" d="M233.89,21.73h2.23v13.75h-2.23v-13.75Z"/>
          <path class="cls-1" d="M246.74,21.73c.93,0,1.8.18,2.61.53.81.36,1.52.85,2.14,1.49l-1.59,1.62c-.88-.9-1.93-1.35-3.16-1.35-.62,0-1.2.12-1.75.36-.54.24-1.02.56-1.43.98-.41.42-.73.9-.97,1.46-.24.56-.36,1.15-.36,1.78s.12,1.23.36,1.78c.24.56.56,1.04.96,1.46.4.42.88.74,1.43.98.55.24,1.13.36,1.75.36,1.21,0,2.27-.44,3.16-1.33l1.59,1.6c-.62.63-1.33,1.13-2.14,1.48-.81.36-1.68.53-2.61.53s-1.8-.18-2.62-.54c-.82-.36-1.53-.85-2.14-1.48-.61-.62-1.1-1.35-1.45-2.18-.36-.83-.53-1.72-.53-2.67s.18-1.81.53-2.64c.35-.84.84-1.57,1.45-2.2.61-.63,1.33-1.12,2.14-1.49.81-.36,1.69-.54,2.62-.54Z"/>
          <path class="cls-1" d="M260.29,21.73c1.86,0,3.44.67,4.75,2.02,1.33,1.35,2,2.96,2,4.85s-.67,3.53-2,4.85c-1.31,1.35-2.89,2.02-4.75,2.02s-3.45-.67-4.75-2.02c-1.32-1.33-1.98-2.95-1.98-4.85s.66-3.51,1.98-4.85c1.29-1.35,2.88-2.02,4.75-2.02ZM260.29,24.02c-1.23,0-2.29.45-3.18,1.35-.87.9-1.3,1.97-1.3,3.23s.43,2.34,1.3,3.25c.89.88,1.95,1.33,3.18,1.33s2.28-.44,3.16-1.33c.88-.91,1.32-1.99,1.32-3.25s-.44-2.33-1.32-3.23c-.88-.9-1.93-1.35-3.16-1.35Z"/>
          <path class="cls-1" d="M215.03,17.01l-3.2,3.01h-1.81l2.34-3.01h2.67Z"/>
        </g>
      </g>
      <g>
        <path class="cls-2" d="M62.08,36.81h0s.02-.02,0,0Z"/>
        <path class="cls-1" d="M20.2,34.73c.75-2.94,1.82-5.71,3.28-8.27H0v33.22h11.66c.42-1.36,1.12-2.66,2.26-3.35l.05.08c.01-1.38.46-2.43,1.21-3.54.45-.66,1.05-1.25,1.63-1.79.39-.37.81-.71,1.24-1.03.13-.1.93-.49.99-.67.04-.13-.18-.66-.2-.78-.14-.64-.22-1.29-.25-1.94-.07-1.46.06-2.93.23-4.38.29-2.54.77-5.08,1.4-7.55Z"/>
        <path class="cls-3" d="M73.22,26.46h-12.66c.03.08.06.16.08.24.31,1.06.46,2.22.82,3.26.27.75.81,1.4,1.13,2.13.63,1.47.14,3.44-.55,4.79.01-.02.03-.05.04-.07h0s.01-.02,0,0c-.04.05-.07.14-.1.2,0,0,.4.34.52.4.28.25.38.38.58.75.59,1.09,1.18,2.18,1.76,3.27.69,1.3,1.53,2.61,2.07,3.98-.01-.03-.01-.03,0,.02.09.24.04.1,0,.01.74,1.97-.22,3.55-2.3,3.54-.56,0-1.12-.02-1.68-.03-.4,0-1.14-.22-1.27.16-.04.82.44,1.44.04,2.29-.18.38.08.95.03,1.41-.07.53-.3,1.06-.67,1.44-.44.55-1.62.97-1.36,1.81.22.65.81,1.64.97,2.45.08.44.03.81-.08,1.16h23.71V26.46h-11.1Z"/>
        <path class="cls-3" d="M55.87,61.78c-1.36-.2-2.69-.3-4.05-.05-1.1.2-3.05.76-2.65,2.27.44,1.7.66,3.46.85,5.21.24,2.15.29,4.39,1.08,6.43.64,1.67,1.71,3,2.78,4.4-2.41.33-4.79.62-7.22.4-1.75-.16-3.57-.52-5.08-1.48-.72-.46-1.79-1.33-1.81-2.25-.03-1.39.35-2.96.5-4.35.14-1.28.38-2.65.42-3.98-.97,3.46-3.79,15.26-20.3,17.7h38.02v-24.16c-.79.15-1.68-.01-2.54-.15Z"/>
        <path class="cls-3" d="M40.06,63.28c-.03.15-.09.31-.15.45-.18.34-.47.09-.81,0-2.44-.65-5.63-1.55-8.09-.66,2.58.37,5.05,1.7,7.45,2.72.43.18.87.37,1.3.56.13.05.43.26.55.18.34-.22.68-.44,1-.7,1.49-1.6,1.58-4.03,1.44-6.11,0,0-.03-.41-.03-.42-.04-.35-.01-.86-.17-1.17-.94-1.82-2.87-2.79-4.71-3.42-2.17-.75-4.55-1.17-6.84-1.11.9.41,1.81.82,2.71,1.24,1.25.6,2.52,1.18,3.73,1.87.73.42,2.7,1.38,2.78,2.36.08.98.1,1.96.03,2.94-.04.43-.1.86-.2,1.28Z"/>
        <path class="cls-3" d="M44.28,41.84c1.31.34,2.87-.18,3.91-1.03,1.62-1.32,2.17-3.51,2.09-5.55-.01-.29-.04-.58-.07-.87-.05-.42.08-.57.27-.93.32-.62.63-1.24.93-1.87.55-1.13,1.07-2.28,1.57-3.43-.08.19-.12.27.07-.16.13-.32.15-.36.12-.29.91-2.13,1.78-4.3,2.4-6.54-2.82,3.29-5.1,7.15-7.19,10.96-.23.41-.91,1.24-.81,1.74.17.82.26,1.65.21,2.5-.08,1.43-.6,2.56-1.77,3.38.02,0,.04-.02.06-.03-.53.24-1.02.48-1.61.48-1.65-.02-2.14-2.36-1.68-3.62-1.74,1.61-.61,4.72,1.49,5.27Z"/>
        <path class="cls-3" d="M48.58,62.09c-.03-.12-.1-.24-.16-.38-.06-.14-.12-.29-.22-.43-.09-.15-.17-.32-.3-.46-.12-.15-.23-.32-.38-.46-.14-.15-.28-.3-.44-.43-.63-.55-1.4-.93-2-1.13-.3-.1-.56-.17-.75-.21-.09-.02-.17-.03-.24-.04-.05,0-.08-.01-.08-.01l-.02,1.53s.02,0,.06,0c.03,0,.08,0,.15-.01.14,0,.35-.01.61.01.51.04,1.21.18,1.85.5.16.08.32.17.47.27.16.09.29.21.42.32.14.1.25.23.36.34.12.11.21.23.3.35.08.11.18.21.23.31.06.1.11.19.16.26.09.15.14.23.14.23,0,0-.03-.09-.08-.26-.02-.08-.06-.18-.09-.3Z"/>
        <path class="cls-3" d="M42.72,59.3c-.04-.35-.01-.86-.17-1.17-.94-1.82-2.87-2.79-4.71-3.42-2.17-.75-4.55-1.17-6.84-1.11.9.41,1.81.82,2.71,1.24,1.25.6,2.52,1.18,3.73,1.87.73.42,2.7,1.38,2.78,2.36.08.98.1,1.96.03,2.94-.04.43-.1.86-.2,1.28-.03.15-.09.31-.15.45-.18.34-.47.09-.81,0-2.44-.65-5.63-1.55-8.09-.66,2.58.37,5.05,1.7,7.45,2.72.43.18.87.37,1.3.56.13.05.43.26.55.18.34-.22.68-.44,1-.7,1.49-1.6,1.58-4.03,1.44-6.11,0,0-.03-.41-.03-.42Z"/>
        <path class="cls-3" d="M48.58,62.09c-.03-.12-.1-.24-.16-.38-.06-.14-.12-.29-.22-.43-.09-.15-.17-.32-.3-.46-.12-.15-.23-.32-.38-.46-.14-.15-.28-.3-.44-.43-.63-.55-1.4-.93-2-1.13-.3-.1-.56-.17-.75-.21-.09-.02-.17-.03-.24-.04-.05,0-.08-.01-.08-.01l-.02,1.53s.02,0,.06,0c.03,0,.08,0,.15-.01.14,0,.35-.01.61.01.51.04,1.21.18,1.85.5.16.08.32.17.47.27.16.09.29.21.42.32.14.1.25.23.36.34.12.11.21.23.3.35.08.11.18.21.23.31.06.1.11.19.16.26.09.15.14.23.14.23,0,0-.03-.09-.08-.26-.02-.08-.06-.18-.09-.3Z"/>
        <path class="cls-3" d="M47.57,33.86c.17.82.26,1.65.21,2.5-.08,1.43-.6,2.56-1.77,3.38.02,0,.04-.02.06-.03-.53.24-1.02.48-1.61.48-1.65-.02-2.14-2.36-1.68-3.62-1.74,1.61-.61,4.72,1.49,5.27,1.31.34,2.87-.18,3.91-1.03,1.62-1.32,2.17-3.51,2.09-5.55-.01-.29-.04-.58-.07-.87-.05-.42.08-.57.27-.93.32-.62.63-1.24.93-1.87.55-1.13,1.07-2.28,1.57-3.43-.08.19-.12.27.07-.16.13-.32.15-.36.12-.29.91-2.13,1.78-4.3,2.4-6.54-2.82,3.29-5.1,7.15-7.19,10.96-.23.41-.91,1.24-.81,1.74Z"/>
        <path class="cls-1" d="M25.9,0v22.88c.52-.66,1.07-1.3,1.66-1.92,1.39-1.41,2.88-2.65,4.55-3.69,2.74-1.67,5.89-2.82,9.09-3.03,5.8-.37,13.31.5,17.21,7.41V0H25.9Z"/>
      </g>
    </g>
  </g>
</svg>