<svg viewBox="0 0 2048 479" xmlns="http://www.w3.org/2000/svg">
    <path
        d="M443 23h28l21 3 19 5 15 6 16 8 11 7 13 10 13 12 5 5 5 7 1 3v9l-5 8-32 32-5 2h-9l-8-5-9-9-10-7-17-9-19-6-16-2-18 1-15 4-17 8-11 7-12 11-10 13-9 15-7 16-6 21-3 16-1 9v42l3 20 4 17 6 16 8 16 10 16 8 9 8 7 12 9 15 8 14 5 19 3h19l19-3 16-5 12-5 11-6 14-9 3-1h8l7 4 6 9 13 22 5 7 1 3v11l-3 6-7 7-17 9-29 10-32 8-31 5-9 1h-19l-24-3-21-5-19-7-21-10-16-12-13-12-10-11-10-13-10-18-10-21-7-21-5-22-3-20-2-29v-21l2-31 5-30 5-19 9-25 13-25 10-15 11-14 12-12 11-9 12-9 14-8 17-8 19-6 20-4zm479 152h33l16 3 17 6 16 9 11 8 12 12 10 14 8 15 6 17 4 19 1 9v16l-34 16-13 5-38 18-33 15-21 9-14 7-2 3 1 6 9 6 15 4 21 2 13-2 15-5 11-6 8-4h10l5 3 7 7 9 11 7 7 5 7 1 3v9l-4 8-8 7-16 8-19 7-23 6-20 3h-23l-18-3-15-5-16-8-15-9-12-11-10-11-14-21-8-18-6-19-3-17-1-11v-22l2-18 5-21 7-19 7-13 8-12 9-11 11-11 10-7 16-9 13-6 19-5zm13 67-13 2-12 5-13 10-9 11-8 16-4 18v6l3 4h7l34-16 33-15 14-6 10-5 2-2v-6l-6-9-9-6-13-5z"
        fill="#54B579" />
    <path
        d="M1431 175h33l17 3 19 7 15 9 11 8 10 10 10 14 10 19 5 15 4 21 1 11v10l-17 9-18 8-12 5-34 16-41 19-13 5-19 9-1 7 4 5 12 5 15 3 15 1 13-2 15-5 16-9 3-1h10l6 4 10 11 7 8 8 9 3 7v7l-4 9-8 7-21 10-21 7-22 5-14 2h-23l-22-4-16-6-17-9-13-9-16-16-12-17-10-19-8-24-3-16-1-9v-30l3-21 7-24 7-16 14-21 9-10 5-5 9-8 20-12 14-6 19-5zm14 67-13 2-10 4-9 6-10 9-7 10-6 12-4 17v9l3 3h7l36-17 28-13 24-10 5-5-1-7-9-10-12-6-11-3z"
        fill="#FECB44" />
    <path
        d="M1197 175h29l22 4 20 6 14 7 10 8 3 8-2 9-6 8-11 13-9 10-4 4-3 1h-9l-16-7-9-2-14-1-15 2-12 4-11 7-8 8-7 11-5 10-4 15-1 7v20l3 17 5 13 6 10 8 10 7 6 10 6 13 4 6 1h21l15-3 13-5 8-4 4-1h7l6 3 6 7 7 10 12 18 2 6-1 7-4 6-10 7-17 8-25 7-28 4h-16l-21-3-17-5-17-8-13-8-9-7-16-16-12-17-7-12-8-21-5-19-2-14v-34l3-18 6-20 7-16 7-12 12-16 15-15 9-6 15-9 16-7 14-4z"
        fill="#E64564" />
    <path
        d="M772 174h15l6 4 3 5v52l-4 5-3 2-33 4-17 5-14 7-7 6h-2l-2 4-8 10-6 12-4 13-3 20-1 127-3 6-5 4-5 1h-44l-7-3-4-5-1-6V189l3-7 5-4h53l7 6 1 3 1 11 2 2 7-1 14-10 14-7 19-5z"
        fill="#55B57A" />
    <path
        d="M1749 174h16l7 6 1 2v53l-5 6-9 2-19 2-18 4-13 5-12 8-8 8-9 14-6 16-3 17-1 9-1 125-4 7-3 2-5 1h-45l-7-3-4-5V185l5-6 2-1h53l5 3 3 6 1 11 3 2h5l12-9 15-8 21-6z"
        fill="#332F84" />
    <path
        d="M646 45h254l6 4 4 6v67l-5 7-6 3H647l-7-4-4-7V56l4-7zm82 11-12 3-9 6-5 6-3 8v15l3 9 9 9 13 5h14l11-4 8-7 4-8 1-5V78l-5-10-5-5-8-5-10-2zm-78 2v13h23l-3 6-6 8-15 24v6l3 1h44v-15h-24l6-11 18-27v-5zm160-1-2 1v27l1 2-5-5-12-15-7-9h-14l-1 55 2 3h13l2-1V86l5 5 10 14 9 11h10l3-2 1-12V59l-1-1zm47 1-5 10-16 36-3 7v4h16l3-9 26 1 4 9h15l1-4-24-54z"
        fill="#55B57A" />
    <path d="m729 70 8 1 7 6 2 4v9l-3 7-6 5-7 1-9-3-5-6-1-3V81l3-5 4-4z" fill="#56B67B" />
    <path d="m864 77 4 1 3 9v5h-12l1-7z" fill="#57B67C" />
</svg>