<svg xmlns="http://www.w3.org/2000/svg" viewBox="0 0 384 512"><!--!Font Awesome Free 6.6.0 by @fontawesome - https://fontawesome.com License - https://fontawesome.com/license/free Copyright 2024 Fonticons, Inc.--><path d="M256 128c35.4 0 64-28.7 64-64S291.4 0 256 0s-64 28.7-64 64 28.7 64 64 64zm-30.6 169.8c14.1 16.7 39 19.1 56 5.2l88-72c17.1-14 19.6-39.2 5.6-56.3-14-17.1-39.2-19.6-56.3-5.6l-57.4 47-38.9-46.3c-15.4-18.4-39.2-27.9-64-25.3-24.2 2.5-45.3 16.3-56.4 36.9l-49.4 92c-23.4 43.6-8.7 96.4 34.2 123.8L131.6 432H40c-22.1 0-40 17.9-40 40s17.9 40 40 40h208c34.1 0 53.8-42.8 28.3-68.3L166.4 333.9l34.8-64.9 24.2 28.8z"/></svg>