<?xml version="1.0" encoding="UTF-8"?>
<svg id="Capa_2" xmlns="http://www.w3.org/2000/svg" fill="currentColor" viewBox="0 0 308.39 406">
  <g id="Capa_1-2" data-name="Capa_1">
    <g>
      <path d="M214.09,188.29c0,23.42.6,46.86-.35,70.24-.31,7.54-2.55,17.72-7.74,21.76-9.67,7.53-9.52,16.29-9.47,26.18.09,18.46.19,36.93-.03,55.39-.3,25.75-18.56,44.41-42.87,44.14-23.65-.26-41.46-18.79-41.76-43.88-.25-21.16.17-42.34-.32-63.5-.1-4.39-1.61-10.29-4.68-12.78-10.21-8.3-12.81-18.67-12.73-31.09.3-44.13,1-88.3-.27-132.4-.75-25.95,13.23-29.87,32.87-23.63,19.17,6.09,35.36,6.22,54.62.11,20.42-6.48,34.72-2.44,33.01,24.62-1.36,21.53-.27,43.22-.28,64.84Z"/>
      <path d="M104.92,87.13c-20.61,7.06-21.22,22.82-21.01,39.89.54,42.32-.36,84.66.39,126.98.36,20.02,4.67,40.01,4.53,59.99-.19,26.28-27.29,42.49-51.25,31.86-13.41-5.95-21.33-16.39-21.63-31.47-.3-15.3-.32-30.62-.07-45.93.2-12.52,1.37-24.46-10.79-33.81-4.07-3.13-4.76-12.3-4.83-18.74C-.15,177.18.04,138.45.07,99.73c.02-19.94,9.3-28.03,28.11-21.06,16.69,6.19,31.58,6.91,48.13.09,9.16-3.77,20.1-3.61,28.61,8.37Z"/>
      <path d="M203.16,87.14c10.04-12.72,21.58-11.96,31.75-7.66,14.33,6.05,27.22,5.81,41.61.19,21.58-8.44,31.74-.87,31.75,21.76.02,38.28.42,76.56-.32,114.83-.14,7.43-2.9,16.47-7.75,21.72-5.8,6.27-8.05,11.95-7.84,20.04.44,16.65.24,33.32.13,49.98-.17,25.12-14.35,40.93-36.56,40.99-22.2.06-37.32-16.02-36.76-40.75,1.4-62.34,3.22-124.66,5.22-186.98.5-15.42-3.57-27.58-21.23-34.11Z"/>
      <path d="M154.08,94.59c-23.61-.05-43.11-19.5-43.15-43.03-.04-24.31,19.73-43.81,44.01-43.4,23.67.39,42.61,19.82,42.48,43.58-.13,23.48-19.77,42.9-43.33,42.85Z"/>
      <path d="M293.6,36.97c.34,20.61-16.37,37.99-37.04,38.52-20.49.52-37.83-16.41-38.12-37.23C218.16,17.15,234.32.38,255.31,0c20.88-.37,37.95,16.1,38.3,36.96Z"/>
      <path d="M51.88,0c21.04-.24,37.79,16.1,38.02,37.1.23,20.97-16.27,38.1-36.97,38.38-20.5.27-37.75-16.63-38.12-37.36C14.43,17.27,30.98.25,51.88,0Z"/>
    </g>
  </g>
</svg>