<?xml version="1.0" encoding="UTF-8"?>
<svg id="Capa_2" xmlns="http://www.w3.org/2000/svg" viewBox="0 0 550.54 413">
  <g id="Capa_1-2" data-name="Capa_1">
    <g>
      <path d="M0,275.3c1.26-5.81,2.1-11.75,3.84-17.41,6.69-21.87,20.07-38.69,39.39-50.8,13.07-8.19,27.34-12.27,42.81-12.17,30.52.2,60.99,1.35,91.16,6.17,22.51,3.6,44.87,8.18,67.31,12.23,25.19,4.55,50.4,8.99,75.6,13.48,8.04,1.43,16.11,2.75,24.13,4.3,19.48,3.76,31.91,21.06,29.31,40.81-1.07,8.13-2.49,16.21-7.69,22.97-8.91,11.6-20.68,16.7-35.13,14.36-26.94-4.37-53.81-9.11-80.71-13.68-7.46-1.27-13.6,2.49-14.82,9.02-1.19,6.36,3.35,12.61,10.54,13.89,13.73,2.45,27.46,4.89,41.26,6.88,13.8,1.99,27.65,3.9,41.54,4.99,19.25,1.51,38.56,2.88,57.86,3.11,39.59.47,79.18.5,118.77.01,24.66-.31,41.93,21.66,39.91,43.26-1.73,18.48-15.1,32.9-33.37,36-1.27.22-2.58.24-3.87.24-67.11.01-134.22-.03-201.33.03-29.9.03-59.77-.78-89.58-3.1-34.51-2.69-68.76-7.28-102.32-16.06-21.45-5.62-42.3-12.93-61.65-23.98-17.39-9.93-32.46-22.4-42.68-39.98-5.06-8.71-8.13-18.15-9.69-28.1-.1-.66-.39-1.28-.59-1.92,0-8.18,0-16.36,0-24.54Z"/>
      <path d="M550.54,228.63c-5.83,8.74-11.38,17.7-17.6,26.15-4.33,5.87-12.69,6.45-19.12,1.97-10.62-7.41-21.14-14.96-31.71-22.44-4.04-2.86-8.1-5.7-12.31-8.67-6.24,8.93-12.34,17.64-18.44,26.36-14.89,21.3-29.76,42.62-44.72,63.88-.64.91-1.98,1.85-3,1.86-12.43.13-24.86.08-37.29.08-.09-.35-.18-.69-.27-1.04,1.08-.91,2.16-1.84,3.25-2.73,10.04-8.23,16.06-18.76,18.51-31.51,1.9-9.89,2.9-19.7.23-29.61-.27-.99.39-2.48,1.05-3.43,12.09-17.43,24.25-34.82,36.39-52.22.4-.57.79-1.14,1.38-1.98-3.87-2.75-7.65-5.45-11.44-8.12-10.99-7.73-22.05-15.38-32.98-23.21-6.85-4.9-7.99-13.78-2.99-20.63,4.28-5.88,8.49-11.8,12.62-17.78,5.33-7.7,13.29-9.56,20.98-4.25,14.11,9.72,28.03,19.72,42.03,29.6.63.45,1.3.83,2.14,1.36,5.84-8.25,11.58-16.36,17.31-24.47,5.46-7.73,10.83-15.52,16.41-23.17,4.79-6.57,13.09-7.93,19.85-3.32,6.58,4.5,13.08,9.11,19.55,13.76,6.39,4.59,8.04,13.14,3.55,19.6-10.28,14.8-20.73,29.48-31.12,44.21-.8,1.14-1.62,2.26-2.68,3.73,4.99,3.57,9.88,7.1,14.81,10.58,9.43,6.68,18.81,13.43,28.36,19.94,3.57,2.43,5.69,5.7,7.27,9.51v5.98Z"/>
      <path d="M260.09,54.75c1.13-12.3,5.38-22.82,12.66-32.19C290.3-.06,323.41-6.77,348.19,7.47c18.95,10.89,28.02,28.06,30.06,49.18,2.49,25.71-4.32,49.76-14.32,73.09-9.94,23.2-23.38,44.35-38.14,64.72-1.44,1.98-2.79,2.77-5.37,2.49-28.83-3.15-57.12-8.67-84.18-19.4-19.69-7.81-37.94-18.03-52.91-33.4-11.07-11.37-18.55-24.54-18.88-40.74-.47-23.46,9.62-41.53,29.99-53,21.02-11.83,42.12-10.69,62.52,2.27.91.58,1.8,1.19,3.12,2.07Z"/>
    </g>
  </g>
</svg>